<svg xmlns="http://www.w3.org/2000/svg" width="451.13" height="446.03" viewBox="0 0 451.13 446.03">
  <g id="_15" data-name="15" transform="translate(-11.815 -430.222) rotate(31)" opacity="0.1">
    <g id="Envelope_back" transform="translate(374.437 211.815)">
      <path id="Path_60593" data-name="Path 60593" d="M1615.992,799.655l-10.247-6.794a1.274,1.274,0,0,0-1.288-.055,1.227,1.227,0,0,0-.658,1.1V809.08a1.208,1.208,0,0,0,.713,1.123,1.221,1.221,0,0,0,.548.109,1.39,1.39,0,0,0,.794-.274l10.247-8.383a1.334,1.334,0,0,0,.465-1.041A1.278,1.278,0,0,0,1615.992,799.655Z" transform="translate(-1293.026 -633.525)" fill="#000200"/>
      <path id="Path_60594" data-name="Path 60594" d="M470.73,665.345a1.257,1.257,0,0,1-1.151-.74,1.213,1.213,0,0,1,.219-1.37l53.479-58.328a1.26,1.26,0,1,1,1.863,1.7l-51.479,56.136,51.7-1.616a1.309,1.309,0,0,1,1.288,1.205,1.251,1.251,0,0,1-1.205,1.288l-54.657,1.7C470.758,665.345,470.758,665.345,470.73,665.345Z" transform="translate(-469.459 -496.914)" fill="#000200"/>
      <path id="Path_60595" data-name="Path 60595" d="M968.338,263.838a1.381,1.381,0,0,1-.822-.3L910.12,214.8l-42.931,46.849a1.26,1.26,0,0,1-1.863-1.7l43.752-47.725a1.245,1.245,0,0,1,1.726-.11l58.328,49.534a1.227,1.227,0,0,1,.137,1.753A1.21,1.21,0,0,1,968.338,263.838Z" transform="translate(-756.631 -211.815)" fill="#000200"/>
    </g>
    <g id="Text" transform="translate(486.885 546.135)">
      <path id="Path_60596" data-name="Path 60596" d="M923.762,1434.62h-42.6a1.26,1.26,0,1,1,0-2.52h42.6a1.26,1.26,0,1,1,0,2.52Z" transform="translate(-879.9 -1432.1)" fill="#7baeed"/>
      <path id="Path_60597" data-name="Path 60597" d="M935.022,1504.721H881.16a1.26,1.26,0,1,1,0-2.521h53.862a1.257,1.257,0,0,1,1.26,1.26A1.24,1.24,0,0,1,935.022,1504.721Z" transform="translate(-879.9 -1482.995)" fill="#7baeed"/>
    </g>
    <path id="Postcard_2" d="M671.788,625.57l2.63-152.408L660.5,471.6l4.055,146.409Z" transform="translate(-233.723 -188.612)" fill="#fed6c2"/>
    <g id="Postcard" transform="translate(436.804 258.769)">
      <path id="Path_60598" data-name="Path 60598" d="M970.234,599.05l5.151-125.4-214-2.055L758.1,639.953,824.373,701.6l26.493-17.205,21.1,14.055Z" transform="translate(-741.388 -447.381)" fill="#b2d3fc"/>
      <path id="Path_60599" data-name="Path 60599" d="M821.033,699.563a1.274,1.274,0,0,1-.849-.329l-66.273-61.616a1.227,1.227,0,0,1-.411-.932l3.288-168.354a1.251,1.251,0,0,1,1.26-1.233h0l214,2.055a1.29,1.29,0,0,1,.9.384,1.261,1.261,0,0,1,.356.9l-5.15,125.368a1.187,1.187,0,0,1-.357.822l-98.273,99.451a1.246,1.246,0,0,1-1.589.164l-20.411-13.589L821.691,699.4A1.378,1.378,0,0,1,821.033,699.563Zm-65.013-63.4,65.123,60.574,25.7-16.657a1.245,1.245,0,0,1,1.37,0l20.219,13.479,97.2-98.327,5.1-123.615-211.449-2.027Zm210.874-40.411Z" transform="translate(-738.048 -444.114)" fill="#000200"/>
      <path id="Path_60600" data-name="Path 60600" d="M698.36,562.65h0a1.263,1.263,0,0,1-1.26-1.288l3.041-176.929a1.182,1.182,0,0,1,.384-.877,1.548,1.548,0,0,1,.9-.356l253.2,4.438a1.27,1.27,0,0,1,.9.411,1.3,1.3,0,0,1,.328.932l-9.288,126.354a1.271,1.271,0,0,1-1.342,1.151,1.255,1.255,0,0,1-1.151-1.343L953.288,390.1l-250.626-4.383-3.041,175.669A1.275,1.275,0,0,1,698.36,562.65Z" transform="translate(-697.1 -383.2)" fill="#7baeed"/>
      <path id="Path_60601" data-name="Path 60601" d="M994.854,561.42c-.712-5.753-4.274-8.384-10.164-6.685-3.479.986-6.356,10.384-7.808,13.205.137-6.329.932-22.657-.137-28.657-.822-4.465-3.4-9.232-8.164-10.109-7.973-1.452-12.11,17.068-14.3,23.206-.164-5.671-1.4-22.712-2-28.3-.521-4.931-2.165-8.9-8.192-8.466-7.178.493-9.561,6.849-10.931,12.466-2.384,9.753-3.836,22.575-6.192,32.328-2.795-12.082-10.055-27.013-24.877-23.89-12.794,2.685-27.589,14.9-26.931,28.931-8.795-5.315-17.7,1.452-25.917,6.027-10.959,6.109-21.37,23.671-23.836,36.465-2.767,14.219-1.013,19.507-.822,33.917q.37,26.383.74,52.794a1.26,1.26,0,0,0,2.438.384q20.589,20.26,41.15,40.52a1.282,1.282,0,0,0,1.781,0c6.329-5.89,14.164-9.123,21.616-14.63,8.63-6.356,16.9,7.013,27.479,9.479.712.164,30.383-27.123,43.287-40.931,15.1-16.137,19.424-34.849,23.013-55.753l6.493-36.411c1.123-6.493,1.26-13.068,2.384-19.561C995.621,573.557,995.374,565.694,994.854,561.42ZM900.5,581.338c-1.041,16.767-2.63,39.123-18.767,48.081-12.356,6.877-27.479,1.4-29.835-13.151-1.151-6.986-.986-14.411,4.137-19.26,9.206-8.712,21.781-10.849,21.835-25.808,0-2.822,3.1-3.643,4.9-2.493,7.973-.794,12.411-9.78,16.438-4.931C901.54,566.571,900.773,576.652,900.5,581.338Z" transform="translate(-789.131 -479.311)" fill="#fff"/>
      <path id="Path_60602" data-name="Path 60602" d="M1446.1,436.82h-9.041a1.256,1.256,0,0,1-1.26-1.26,1.24,1.24,0,0,1,1.26-1.26h9.041a1.26,1.26,0,0,1,0,2.52Z" transform="translate(-1233.419 -420.3)" fill="#7baeed"/>
      <path id="Path_60603" data-name="Path 60603" d="M1507.148,428.462h-9.287a1.257,1.257,0,0,1-1.26-1.26V418.16a1.257,1.257,0,0,1,1.26-1.26h9.287a1.257,1.257,0,0,1,1.26,1.26V427.2A1.257,1.257,0,0,1,1507.148,428.462Zm-8.054-2.493h6.794v-6.548h-6.794Z" transform="translate(-1277.562 -407.667)" fill="#7baeed"/>
      <path id="Path_60604" data-name="Path 60604" d="M1567.481,428.461a1.29,1.29,0,0,1-.9-.383l-8.821-9.041a1.259,1.259,0,1,1,1.808-1.753l8.822,9.041a1.26,1.26,0,0,1-.9,2.137Z" transform="translate(-1321.704 -407.667)" fill="#7baeed"/>
      <path id="Path_60605" data-name="Path 60605" d="M1558.69,428.491a1.225,1.225,0,0,1-.931-.411,1.259,1.259,0,0,1,.109-1.781l10.247-9.041a1.262,1.262,0,1,1,1.671,1.891l-10.246,9.041A1.4,1.4,0,0,1,1558.69,428.491Z" transform="translate(-1321.734 -407.697)" fill="#7baeed"/>
      <path id="Path_60606" data-name="Path 60606" d="M909.344,587.546a20.133,20.133,0,0,0-16.795-2.11c-10.794,3.151-19.616,13.041-23.561,21.452a12.74,12.74,0,0,0-1.48,6.027c-7.863-1.616-21.479,3.835-33.643,13.89-19.726,16.274-20.466,54.6-15.288,111.2a1.25,1.25,0,0,0,1.233,1.151h.11c.685-.055,1.7,1.808,1.644,1.123-4.959-54.218-4.9-96,13.89-111.533,12.137-10,26.493-15.589,32.9-12.986a5.42,5.42,0,0,0,1.4,1.534,7.133,7.133,0,0,0,1.233.767,9.063,9.063,0,0,1,.384,5.89c-1.287,6.438-7.068,10.63-13.205,15.068-8.3,6-17.7,12.822-14.356,26.383,2.657,10.712,11.644,17.863,22.383,17.753,9.671-.082,21.479-6.684,25.643-24.9,5.452-23.863,5.644-42.794.466-46-.795-.493-2.439-1.068-4.548.63-3.342,2.74-10.438,4.438-14.547,3.315-1.068-.383-2.876-.9-3.15-3.315a10.18,10.18,0,0,1,1.232-4.932c4.411-9.342,13.452-17.616,22-20.109a17.451,17.451,0,0,1,14.74,1.808c13.37,8.466,11.616,25.2,11.589,25.37a1.256,1.256,0,0,0,2.494.3C922.166,614.586,924.057,596.86,909.344,587.546Zm-35.424,31.369c5.15.767,12.055-1.343,15.4-4.082,1.014-.822,1.479-.548,1.644-.466,2.931,1.808,4.465,16.849-1.589,43.314-3.835,16.794-14.493,22.877-23.2,22.959h-.191c-9.452,0-17.37-6.356-19.726-15.863-2.959-11.918,4.986-17.644,13.37-23.726,6.247-4.52,12.712-9.205,14.192-16.6A13.105,13.105,0,0,0,873.921,618.915Z" transform="translate(-783.319 -529.355)" fill="#000200"/>
      <path id="Path_60607" data-name="Path 60607" d="M1151.38,625.32a1.376,1.376,0,0,1-.329-.055,1.256,1.256,0,0,1-.876-1.534c7.479-27.342,11.014-52.958,13.589-71.671,2.137-15.534,3.671-26.739,6.384-32.027,3.343-6.52,8.055-9.78,12.63-8.74,4.767,1.1,8,6.493,8.219,13.78.384,13.37,0,30.164,0,30.329a1.24,1.24,0,0,1-1.287,1.233c-.685-.027-1.233,3.205-1.233,2.493,0-.164.383-20.685,0-33.972-.165-6.028-2.685-10.6-6.247-11.4-3.4-.767-7.069,2.027-9.836,7.452-2.521,4.931-4.11,16.52-6.137,31.232-2.575,18.767-6.109,44.493-13.644,72A1.329,1.329,0,0,1,1151.38,625.32Z" transform="translate(-1026.012 -476.062)" fill="#000200"/>
      <path id="Path_60608" data-name="Path 60608" d="M1277.036,601.912h.027a21.466,21.466,0,0,0,.932-3.206.6.6,0,0,1,.356-.465c.082-5.178.246-17.534-.055-27.863-.192-7.288-3.424-12.685-8.219-13.781-4.575-1.041-9.287,2.246-12.63,8.74-2.712,5.287-4.246,16.52-6.383,32.027-2.576,18.712-6.109,44.328-13.589,71.67a1.256,1.256,0,0,0,.877,1.534,1.355,1.355,0,0,0,.329.055,1.25,1.25,0,0,0,1.206-.931c7.533-27.506,11.068-53.2,13.644-72,2.027-14.712,3.616-26.329,6.137-31.232,2.767-5.424,6.438-8.192,9.835-7.452,3.561.822,6.082,5.4,6.246,11.4.383,13.315,0,30.027,0,30.191A1.389,1.389,0,0,0,1277.036,601.912Z" transform="translate(-1089.395 -508.954)" fill="#000200"/>
      <path id="Path_60609" data-name="Path 60609" d="M1336.523,772.281a1.187,1.187,0,0,1-.521-.109,1.276,1.276,0,0,1-.63-1.671c4.192-9.205,13.424-45.342,16.9-72.464.054-.274,3.671-20.3,3.315-33.507-.191-6.384-2.657-11.589-5.753-12.109-2.877-.493-6.137,3.343-8.63,10.219-1.891,5.151-2.795,11.507-4.055,20.3a458.838,458.838,0,0,1-12.767,61.917,1.279,1.279,0,0,1-1.534.877,1.256,1.256,0,0,1-.877-1.535,455.38,455.38,0,0,0,12.685-61.615c1.287-8.959,2.218-15.425,4.191-20.822,4.11-11.233,8.9-12.219,11.4-11.835,4.41.713,7.643,6.685,7.862,14.52.384,13.479-3.178,33.123-3.343,33.972-3.506,27.26-12.849,63.78-17.122,73.122A1.219,1.219,0,0,1,1336.523,772.281Z" transform="translate(-1150.744 -576.805)" fill="#000200"/>
      <path id="Path_60610" data-name="Path 60610" d="M1033.484,1053.711h-.164a1.26,1.26,0,0,1-1.1-1.4c.027-.3,3.589-31.561-26.41-56.547a1.245,1.245,0,0,1,1.589-1.918c31.095,25.918,27.342,58.465,27.287,58.794A1.176,1.176,0,0,1,1033.484,1053.711Z" transform="translate(-920.911 -826.345)" fill="#000200"/>
      <path id="Path_60611" data-name="Path 60611" d="M887.43,588.588c-4.247-3.781-8.466-7.589-12.712-11.369-1.206-1.068-2.987.685-1.781,1.781,4.247,3.781,8.466,7.589,12.712,11.37C886.854,591.438,888.635,589.684,887.43,588.588Z" transform="translate(-824.471 -523.822)" fill="#ffcb56"/>
      <path id="Path_60612" data-name="Path 60612" d="M957.2,542.507c-2.932-7.78-5.863-15.589-8.822-23.369-.576-1.507-2.987-.849-2.411.658,2.931,7.781,5.863,15.589,8.822,23.369C955.337,544.672,957.747,544.015,957.2,542.507Z" transform="translate(-877.721 -481.276)" fill="#ffcb56"/>
    </g>
    <g id="Envelope" transform="translate(374.447 377.688)">
      <path id="Path_60613" data-name="Path 60613" d="M796.148,1039.815H482.125a1.279,1.279,0,0,1-1.26-1.178l-11.37-220a1.239,1.239,0,0,1,.712-1.205,1.205,1.205,0,0,1,1.37.219l144.08,133.971a1.257,1.257,0,0,1,.055,1.781,1.233,1.233,0,0,1-1.781.054L472.18,821.572l11.15,215.723H794.888l-4.3-215.777L664.2,949.378a1.259,1.259,0,0,1-1.781-1.78L790.888,817.627a1.234,1.234,0,0,1,1.342-.274,1.294,1.294,0,0,1,.795,1.151l4.384,220a1.262,1.262,0,0,1-.356.9A1.172,1.172,0,0,1,796.148,1039.815Z" transform="translate(-469.493 -817.259)" fill="#000200"/>
      <path id="Path_60614" data-name="Path 60614" d="M512.291,1349.461a1.182,1.182,0,0,1-1.041-.575,1.237,1.237,0,0,1,.357-1.726l159.2-103.2a1.244,1.244,0,0,1,1.37,0L827,1347.16a1.246,1.246,0,1,1-1.37,2.082L671.494,1246.476,512.976,1349.242A1.076,1.076,0,0,1,512.291,1349.461Z" transform="translate(-499.659 -1126.905)" fill="#000200"/>
    </g>
    <g id="Stamp" transform="translate(401.185 497.697)">
      <path id="Path_60615" data-name="Path 60615" d="M658.336,1255.3H594.2l4.383,83.232h59.753Z" transform="translate(-586.772 -1255.3)" fill="#f674b4"/>
      <path id="Path_60616" data-name="Path 60616" d="M632.515,1355.725h-59.78a1.28,1.28,0,0,1-1.261-1.178l-4.383-83.232a1.178,1.178,0,0,1,.356-.931,1.289,1.289,0,0,1,.9-.384h64.136a1.257,1.257,0,0,1,1.26,1.261v83.232A1.228,1.228,0,0,1,632.515,1355.725Zm-58.575-2.52h57.342v-80.739H569.694Z" transform="translate(-567.087 -1265.973)" fill="#000200"/>
      <path id="Path_60617" data-name="Path 60617" d="M646.312,1412.72H598.86a1.256,1.256,0,0,1-1.26-1.26,1.24,1.24,0,0,1,1.26-1.26h47.451a1.26,1.26,0,1,1,0,2.52Z" transform="translate(-589.241 -1367.762)" fill="#000200"/>
      <path id="Path_60618" data-name="Path 60618" d="M686.8,1374.083a1.264,1.264,0,0,1-1.26-1.206l-1.343-47.889a1.251,1.251,0,0,1,1.206-1.288,1.27,1.27,0,0,1,1.287,1.205l1.342,47.89a1.251,1.251,0,0,1-1.2,1.287Z" transform="translate(-652.112 -1304.961)" fill="#000200"/>
      <path id="Path_60619" data-name="Path 60619" d="M646.984,1374.744a1.277,1.277,0,0,1-.795-.273c-7.4-5.973-11.1-16-10.164-27.507.823-10.082,5.069-19.233,10.329-22.219a1.246,1.246,0,0,1,1.233,2.165c-4.52,2.575-8.329,11.1-9.068,20.246-.877,10.685,2.493,19.917,9.233,25.342a1.234,1.234,0,0,1,.192,1.754A1.194,1.194,0,0,1,646.984,1374.744Z" transform="translate(-617.035 -1305.595)" fill="#000200"/>
      <path id="Path_60620" data-name="Path 60620" d="M700.874,1374.246a1.2,1.2,0,0,1-.685-.22,1.242,1.242,0,0,1-.356-1.726c11.671-17.424,8.219-37.972-2.192-45.506a1.255,1.255,0,0,1,1.479-2.027c11.315,8.192,15.26,30.3,2.795,48.9A1.214,1.214,0,0,1,700.874,1374.246Z" transform="translate(-661.501 -1305.561)" fill="#000200"/>
      <path id="Path_60621" data-name="Path 60621" d="M622.586,1374.037a25.22,25.22,0,1,1,24.986-25.452C647.572,1365.462,639.161,1374.037,622.586,1374.037Zm0-47.944a22.5,22.5,0,0,0-22.465,22.465c0,12.438,10.3,22.931,22.465,22.931,15.123,0,22.465-7.507,22.465-22.931A22.514,22.514,0,0,0,622.586,1326.093Z" transform="translate(-589.24 -1304.888)" fill="#000200"/>
    </g>
    <g id="Objects" transform="translate(338.581 370.531)">
      <path id="Path_60622" data-name="Path 60622" d="M1518.1,1223.5v11.617l12.028-5.808Z" transform="translate(-1194.949 -1105.046)" fill="#ff3857"/>
      <path id="Path_60623" data-name="Path 60623" d="M1537.361,1135.814c-.521,4.164-1.041,8.329-1.59,12.493-.191,1.589,2.3,1.589,2.493,0,.521-4.164,1.042-8.329,1.589-12.493C1540.074,1134.2,1537.553,1134.226,1537.361,1135.814Z" transform="translate(-1207.771 -1040.511)" fill="#7baeed"/>
      <path id="Path_60624" data-name="Path 60624" d="M357.024,805.264c-5.424-4.6-10.822-9.205-16.246-13.808-1.233-1.042-3.014.712-1.781,1.78,5.425,4.6,10.822,9.205,16.246,13.808C356.476,808.058,358.257,806.3,357.024,805.264Z" transform="translate(-338.581 -791.137)" fill="#f674b4"/>
    </g>
  </g>
</svg>
