<svg width="622.163" height="317.344" viewBox="0 0 622.163 317.344" xmlns="http://www.w3.org/2000/svg">
  <defs>
    <filter id="Path_60625" x="0" y="0" width="622.163" height="317.344" filterUnits="userSpaceOnUse">
      <feOffset dy="30" input="SourceAlpha"/>
      <feGaussianBlur stdDeviation="40" result="blur"/>
      <feFlood flood-color="#dbdbb2" flood-opacity="0.404"/>
      <feComposite operator="in" in2="blur"/>
      <feComposite in="SourceGraphic"/>
    </filter>
  </defs>
  <g id="Group_19463" data-name="Group 19463" transform="translate(-695.999 -2473.792)">
    <g transform="matrix(1, 0, 0, 1, 696, 2473.79)" filter="url(#Path_60625)">
      <path id="Path_60625-2" data-name="Path 60625" d="M272.1,465.3l382.163.293v75.6l-372.379,1.454Z" transform="translate(-152.1 -375.3)" fill="#fff"/>
    </g>
    <path id="Frame" d="M327.037,594.261c-1.089,0-1.94-.207-1.988-.472L315.3,514.807c0-.127.189-.253.568-.357a6.365,6.365,0,0,1,1.42-.15h0l380.774.3c1.088,0,1.988.219,1.988.484v77.2c0,.265-.852.484-1.988.484l-371.025,1.5Zm-7.714-78.971,9.654,78,367.1-1.474V515.578Z" transform="translate(514 2064.576)" fill="#000200"/>
  </g>
  <text style="fill: rgb(51, 51, 51); font-family: Arial, sans-serif; font-size: 13.6px; font-weight: 700; white-space: pre;" x="259.116" y="140.718" transform="matrix(1.074531, 0, 0, 1.387097, -20.282633, -48.31995)">Custom Tailored Premiums</text>
  <g id="volunteer_activism_black_24dp" transform="matrix(1, 0, 0, 1, 169.354721, 121.80687)">
    <g id="Group_19437" data-name="Group 19437" transform="translate(0)">
      <rect id="Rectangle_7091" data-name="Rectangle 7091" width="32" height="32" transform="translate(-0.48)" fill="none"/>
    </g>
    <g id="Group_19441" data-name="Group 19441" transform="translate(1.519 3)">
      <g id="Group_19440" data-name="Group 19440">
        <g id="Group_19439" data-name="Group 19439">
          <g id="Group_19438" data-name="Group 19438">
            <path id="Path_60764" data-name="Path 60764" d="M17.88,16.446c4.058-3.69,7.88-7.144,7.88-10.112A4.289,4.289,0,0,0,21.426,2,4.75,4.75,0,0,0,17.88,3.642,4.772,4.772,0,0,0,14.334,2,4.289,4.289,0,0,0,10,6.334C10,9.3,13.822,12.756,17.88,16.446ZM14.334,4.627a2.088,2.088,0,0,1,1.55.722l2,2.351,2-2.351a2.088,2.088,0,0,1,1.55-.722,1.672,1.672,0,0,1,1.707,1.707c0,1.471-2.679,4.163-5.253,6.553-2.574-2.39-5.253-5.1-5.253-6.553A1.672,1.672,0,0,1,14.334,4.627Z" transform="translate(1.82 -2)" fill="#f674b4"/>
            <path id="Path_60765" data-name="Path 60765" d="M24.639,17.566H22.013a3.8,3.8,0,0,0-2.456-3.546L11.467,11H1V25.446H8.88V23.555L18.073,26.1,28.579,22.82V21.506A3.935,3.935,0,0,0,24.639,17.566ZM3.627,22.82V13.627H6.253V22.82Zm14.407.538L8.88,20.823v-7.2h2.114l7.643,2.85a1.169,1.169,0,0,1,.749,1.09,28.922,28.922,0,0,1-3.021-.2L13.24,16.332l-.827,2.5,3.126,1.038a6.545,6.545,0,0,0,2.075.341h7.026a1.323,1.323,0,0,1,1.182.735Z" transform="translate(-1 0.82)" fill="#f674b4"/>
          </g>
        </g>
      </g>
    </g>
  </g>
</svg>