<svg xmlns="http://www.w3.org/2000/svg" width="553.69" height="428.508" viewBox="0 0 553.69 428.508">
  <g id="_28" data-name="28" transform="translate(-267 -378.235)">
    <path id="Path_60064" data-name="Path 60064" d="M-19049,9813.637h268.875v213.412H-19039.7Z" transform="translate(19316 -9403.321)" fill="#fff"/>
    <path id="Path_60063" data-name="Path 60063" d="M-18778.645,9882.263s23.459-3.546,29.117-6.227,7.541-3.447,7.541-3.447,23.139,66.945,20.326,83.107-8.229,17.651-12.463,20.348-19.039,8.585-22.742,9.329-5.205.667-2.105,4.12,9.982,8.979,19.043,9.628,37.666,8.348,47.818,23.866,12.885,19.671,27.188,46.887,15.127,29.206,15.127,29.206,5.668,9.417,12.105,7.611,8.771-8.478,9.893-22,2.658-44.156,4.482-54.134,6.84-35.946,16.029-50.81,13.107-18.879,17.646-22.981,20.605-15.9,21.492-14.713.037,7.484-5.781,11.689-9.117,7.243-7.43,11.052,10.848.831,10.848.831,30.973-10.476,35.238-8.1,3.664,1.773,4.971,5.869,5,.9,5.162,3.43a12.811,12.811,0,0,1-1.373,5.521s1.861,1.972,3.834,1.874,4.539,1.188,3.129,3.8-1.428,4.021,0,4.892,5.078,3.566,1,5.912-42.969,19.255-49.107,31.834,0,47.334,0,47.334-3.1,67.381-10.373,78.395-12.281,38.647-55.248,38.542-62.869-35.026-62.869-35.026l-5.156-6.529v44.065h-131.092s-12.238,18.523-24.17,21.979-47.475,6-67.2,3.211-48.959-11.1-63.025-25.716-24.18-30.748-23.67-50.353,8.6-41.6,13.785-50.405,23.949-30.911,33.453-38.22,25.957-17.13,25.957-17.13,47.6-21.033,69.717-25.419,60.955-8.73,60.955-8.73V9949.95s-8.795,3.605-13.34,0-8.105-11.52-3.936-14.654,4.98-4.729,8.842-7.181,8.434-26.834,8.434-26.834l9.711-19.019Z" transform="translate(19312.156 -9409.203)" fill="#fff"/>
    <g id="Window" transform="translate(267 378.235)">
      <path id="Path_60062" data-name="Path 60062" d="M553.488,590.3H416.3l5.167,103.516L496.04,738.33l52.788-54.072Z" transform="translate(-365.876 -518.677)" fill="#f674b4"/>
      <path id="Path_60016" data-name="Path 60016" d="M365.923,684.165H276.186a1.326,1.326,0,0,1-1.351-1.317L267,468.183a1.409,1.409,0,0,1,.372-.979,1.353,1.353,0,0,1,.979-.405l268.7-2.4a1.578,1.578,0,0,1,.979.405,1.352,1.352,0,0,1,.405.979v37.59a1.351,1.351,0,0,1-2.7,0V467.136L269.8,469.5l7.7,211.93h88.419a1.355,1.355,0,0,1,1.351,1.351A1.322,1.322,0,0,1,365.923,684.165Z" transform="translate(-267 -435.299)" fill="#000200"/>
      <path id="Path_60017" data-name="Path 60017" d="M537.281,715.666a1.417,1.417,0,0,1-.709-.2l-74.538-44.48a1.368,1.368,0,0,1-.675-1.115L456.19,566.352a1.272,1.272,0,0,1,.372-1.013,1.387,1.387,0,0,1,.979-.439H594.729a1.329,1.329,0,0,1,.98.439,1.272,1.272,0,0,1,.371,1.013l-4.661,93.992a1.59,1.59,0,0,1-.371.878L538.26,715.294A1.539,1.539,0,0,1,537.281,715.666ZM464.059,668.99l72.985,43.6,51.674-52.923,4.559-92.033H458.993Z" transform="translate(-392.29 -501.856)" fill="#000200"/>
      <path id="Path_60018" data-name="Path 60018" d="M575.778,712.613a1.516,1.516,0,0,1-.642-.169L518.7,682.926a1.441,1.441,0,0,1-.743-1.115l-5.167-74.538a1.373,1.373,0,0,1,.338-1.013,1.5,1.5,0,0,1,.946-.473l99.092-4.087a1.385,1.385,0,0,1,1.418,1.418l-3.276,76.092a1.256,1.256,0,0,1-.439.946L576.69,712.241A1.3,1.3,0,0,1,575.778,712.613ZM520.659,680.9l54.882,28.708,33.064-31.038,3.208-74.066-96.153,4.019Z" transform="translate(-429.774 -526.228)" fill="#000200"/>
      <path id="Path_60019" data-name="Path 60019" d="M472.918,849.8a1.355,1.355,0,0,1-.743-2.5l19.15-12.429a1.368,1.368,0,0,1,1.486,2.3L473.661,849.6A1.539,1.539,0,0,1,472.918,849.8Z" transform="translate(-402.467 -680.503)" fill="#000200"/>
      <path id="Path_60020" data-name="Path 60020" d="M693.582,952.16h-.067a1.384,1.384,0,0,1-1.317-1.418l1.047-27.424A1.344,1.344,0,0,1,694.663,922a1.385,1.385,0,0,1,1.317,1.418l-1.047,27.424A1.37,1.37,0,0,1,693.582,952.16Z" transform="translate(-548.592 -738.351)" fill="#000200"/>
      <path id="Path_60021" data-name="Path 60021" d="M815.411,835.171a1.7,1.7,0,0,1-.405-.068l-17.6-5.471A1.378,1.378,0,1,1,798.22,827l17.6,5.471a1.382,1.382,0,0,1-.405,2.7Z" transform="translate(-617.633 -675.4)" fill="#000200"/>
      <path id="Path_60022" data-name="Path 60022" d="M597.778,696.718a1.392,1.392,0,0,1-.912-.338,1.349,1.349,0,0,1-.135-1.925l54.95-63.089a1.365,1.365,0,1,1,2.06,1.79l-54.95,63.089A1.369,1.369,0,0,1,597.778,696.718Z" transform="translate(-485.143 -545.559)" fill="#000200"/>
      <path id="Path_60023" data-name="Path 60023" d="M666.217,768a1.451,1.451,0,0,1-.946-.371,1.346,1.346,0,0,1-.034-1.925l34.145-35.631a1.361,1.361,0,1,1,1.959,1.891L667.2,767.56A1.264,1.264,0,0,1,666.217,768Z" transform="translate(-530.481 -610.964)" fill="#000200"/>
      <path id="Path_60024" data-name="Path 60024" d="M309.61,397.913a1.451,1.451,0,0,1-.946-.371l-18.1-16.954a1.362,1.362,0,0,1,1.858-1.993l18.1,16.954a1.377,1.377,0,0,1,.068,1.925A1.329,1.329,0,0,1,309.61,397.913Z" transform="translate(-282.321 -378.235)" fill="#7baeed"/>
      <path id="Path_60025" data-name="Path 60025" d="M291.508,397.913a1.333,1.333,0,0,1-1.013-.439,1.377,1.377,0,0,1,.068-1.925l18.1-16.954a1.362,1.362,0,0,1,1.858,1.993l-18.069,16.954A1.452,1.452,0,0,1,291.508,397.913Z" transform="translate(-282.321 -378.235)" fill="#7baeed"/>
      <path id="Path_60026" data-name="Path 60026" d="M407.446,395.018h-15a1.355,1.355,0,0,1-1.351-1.351V379.651a1.355,1.355,0,0,1,1.351-1.351h14.388a1.348,1.348,0,0,1,1.351,1.317l.574,14.016a1.56,1.56,0,0,1-.372,1.013A1.271,1.271,0,0,1,407.446,395.018Zm-13.611-2.736h12.192L405.555,381H393.836Z" transform="translate(-349.187 -378.278)" fill="#7baeed"/>
      <path id="Path_60027" data-name="Path 60027" d="M492.1,401.8h-19.15a1.351,1.351,0,0,1,0-2.7H492.1a1.351,1.351,0,0,1,0,2.7Z" transform="translate(-402.499 -392.053)" fill="#7baeed"/>
      <path id="Path_60028" data-name="Path 60028" d="M375.957,936.163c-3.344,4.627-6.721,9.288-10.065,13.915-1.047,1.418,1.351,2.8,2.364,1.385,3.344-4.627,6.721-9.288,10.065-13.915C379.334,936.129,376.97,934.778,375.957,936.163Z" transform="translate(-332.321 -747.346)" fill="#000200"/>
    </g>
    <g id="Objects" transform="translate(487.88 715.655)">
      <path id="Path_60014" data-name="Path 60014" d="M1015.8,1379.124l-91.121-1.824L921,1440.794h103.415C1021.747,1420.226,1018.977,1399.658,1015.8,1379.124Z" transform="translate(-921 -1377.3)" fill="#7baeed"/>
    </g>
    <g id="Key" transform="translate(682.091 420.889)">
      <path id="Path_60029" data-name="Path 60029" d="M1597.738,504.554c-32.862-1.047-37.489,33.368-2.432,39.549l1.047,54.511,18.576-.709v-14.05l-10.909.642-.642-7.667,6.518-2.229-.642-8.376-6.856-.338-.338-20.23C1632.964,547.514,1634.417,505.736,1597.738,504.554Zm.27,33.571c-25.465-3.985-23.878-26.951,0-26.276C1625.872,512.66,1623.474,542.077,1598.009,538.125Z" transform="translate(-1545.672 -504.531)" fill="#ffcb56"/>
      <path id="Path_60030" data-name="Path 60030" d="M1504.638,746.442c-2.7,2.229-5.4,4.458-8.14,6.687-1.351,1.115.574,3.04,1.925,1.925,2.7-2.229,5.4-4.458,8.139-6.687C1507.948,747.252,1505.989,745.327,1504.638,746.442Z" transform="translate(-1496.039 -664.517)" fill="#f674b4"/>
      <path id="Path_60031" data-name="Path 60031" d="M1792.492,510.242c-3.85,3.31-7.734,6.586-11.585,9.9-1.351,1.148.608,3.073,1.925,1.925,3.85-3.31,7.734-6.586,11.584-9.9C1795.767,511.052,1793.808,509.127,1792.492,510.242Z" transform="translate(-1684.395 -508.091)" fill="#f674b4"/>
      <path id="Path_60032" data-name="Path 60032" d="M1845.979,691.462q-13.881-7.4-27.728-14.793c-1.554-.811-2.938,1.52-1.385,2.364q13.881,7.4,27.728,14.793C1846.148,694.637,1847.533,692.273,1845.979,691.462Z" transform="translate(-1708.061 -618.42)" fill="#f674b4"/>
    </g>
    <g id="Man" transform="translate(299.721 440.481)">
      <g id="Head" transform="translate(185.622 0)">
        <path id="Path_60033" data-name="Path 60033" d="M1127.887,753.479a1.378,1.378,0,0,1-.372-2.7c2.668-.743,4.661-2.06,5.37-3.546a3.021,3.021,0,0,0-.1-2.736c-1.013-2.162-6.383-2.094-8.815-1.689a1.349,1.349,0,0,1-1.52-.979l-3.546-12.935a1.377,1.377,0,0,1,.946-1.689,1.393,1.393,0,0,1,1.689.946l3.242,11.787c2.7-.27,8.747-.405,10.5,3.411a5.844,5.844,0,0,1,.068,5.032c-1.047,2.263-3.58,4.053-7.126,5.032A.608.608,0,0,1,1127.887,753.479Z" transform="translate(-1049.494 -671.557)" fill="#000200"/>
        <path id="Path_60034" data-name="Path 60034" d="M1147.863,709.676l.777,2.837c.98,3.648,6.653,2.094,5.64-1.554l-.777-2.837C1152.524,704.475,1146.85,706.029,1147.863,709.676Z" transform="translate(-1068.627 -657.577)" fill="#000200"/>
        <path id="Path_60035" data-name="Path 60035" d="M1047.077,737.224l.777,2.837c.979,3.647,6.653,2.094,5.64-1.554l-.777-2.837C1051.738,732.056,1046.1,733.61,1047.077,737.224Z" transform="translate(-1001.884 -675.837)" fill="#000200"/>
        <path id="Path_60036" data-name="Path 60036" d="M1026.583,702.739a38.769,38.769,0,0,0-6.045,3.816c-1.452,1.182.642,3.208,2.094,2.06a37.5,37.5,0,0,1,5.437-3.377C1029.758,704.36,1028.272,701.861,1026.583,702.739Z" transform="translate(-984.058 -655.267)" fill="#000200"/>
        <path id="Path_60037" data-name="Path 60037" d="M1140.9,666.392c-1.689-.574-3.512-.844-5.167-1.554-1.723-.743-3.175,1.824-1.452,2.533,1.891.811,3.918,1.182,5.877,1.824C1141.95,669.837,1142.693,667,1140.9,666.392Z" transform="translate(-1059.2 -630.2)" fill="#000200"/>
        <path id="Path_60038" data-name="Path 60038" d="M1087.084,850.641c-2.2.237-5.269.068-6.113-2.432-.608-1.79-3.445-1.013-2.837.777,1.284,3.783,5.269,5,8.95,4.559C1088.941,853.342,1088.941,850.4,1087.084,850.641Z" transform="translate(-1022.471 -751.056)" fill="#000200"/>
        <path id="Path_60039" data-name="Path 60039" d="M1007.147,605.419c-1.283-4.357-2.634-8.916-3.985-13.645a47.062,47.062,0,0,0-3.209-8.241,10.517,10.517,0,0,0-.135-12.057c-5.91-8.68-19.015-9.828-28.437-8.443-6.653.979-13,3.31-19.184,5.877-2.094.878-4.492,1.689-6.687,2.837-13.307,4.458-22.257,10.47-27.289,18.305-5.235,8.139-6.113,18.17-2.7,30.666l6.181,22.595a1.351,1.351,0,0,0,1.689.946,1.4,1.4,0,0,0,1.013-1.283,48.69,48.69,0,0,1,7.667-2.094c.608.844,2.871.372,3.141-.642.068-.979-.811-9.018-1.182-13.78a43.013,43.013,0,0,1,5.235-13.341c2.6-4.627,5.134-9.828,4.188-15.333l-.1-.405c16.887-.608,47.519-7.6,54.713-11.517a43.051,43.051,0,0,1,2.533,6.687c1.385,4.728,2.7,9.288,4.019,13.644,12.159,41.271,19.521,66.163,7.971,77.848-9.9,10-31.443,14.523-31.68,14.556a1.422,1.422,0,0,0-1.013.844,1.341,1.341,0,0,0,.169,1.283,30.806,30.806,0,0,0,15.57,10.943,1.148,1.148,0,0,0,.338.034,1.477,1.477,0,0,0,.844-.27,1.41,1.41,0,0,0,.54-1.081V696.371c6.079-2.432,12.665-5.877,17.157-10.436C1027.107,673.135,1019.609,647.636,1007.147,605.419Z" transform="translate(-913.488 -562.54)" fill="#000200"/>
        <path id="Path_60040" data-name="Path 60040" d="M995.488,857.98l-.169,10.4c-6.586,18.035-18.508,20.129-27.357,18.677-16.11-2.634-30.734-18.069-30.97-28.4l-1.52-47.418a1.393,1.393,0,0,0-.574-1.081,1.536,1.536,0,0,0-1.216-.2c-4.863,1.554-8.984,1.486-11.99-.135a8.128,8.128,0,0,1-4.019-5,7.273,7.273,0,0,1,.777-5.742c2.229-3.681,7.869-6.586,16.38-8.477a1.354,1.354,0,0,0,1.047-1.621,1.37,1.37,0,0,0-1.621-1.047c-9.355,2.06-15.468,5.336-18.137,9.727a9.738,9.738,0,0,0-1.081,7.869,10.705,10.705,0,0,0,5.336,6.654c2.33,1.283,6.316,2.364,12.395.811l1.486,45.662c.3,12.733,17.089,28.4,33.267,31.038,8.106,1.317,22.831.372,30.43-20.669a1.073,1.073,0,0,0,.068-.473v-5.64C997.176,861.458,996.433,859.4,995.488,857.98Z" transform="translate(-914.258 -711.787)" fill="#000200"/>
      </g>
      <g id="Hand_1" transform="translate(0 145.512)">
        <path id="Path_60041" data-name="Path 60041" d="M482.772,1214.134c-6.451,0-13.712-.236-21.852-.743-41.035-2.567-73.12-19.183-88.082-45.561-13-22.932-11.821-50.627,3.377-80.145,38.468-74.606,138.438-91.087,194.6-94.3a1.385,1.385,0,0,1,1.452,1.283,1.409,1.409,0,0,1-1.283,1.452c-55.591,3.141-154.514,19.386-192.341,92.81-14.759,28.64-15.941,55.456-3.445,77.544,14.489,25.567,45.8,41.643,85.886,44.176,62.211,3.918,69.709-7.667,77.612-19.893a71.253,71.253,0,0,1,4.559-6.518c11.415-14.016,14.658-16.786,22.73-13.881,2.7.979,4.12.777,4.357.439.3-.439.135-2.8-4.289-7.937a8.877,8.877,0,0,0-6.89-3.445h-.1c-5.2,0-11.956,4.289-19.015,12.125a1.363,1.363,0,1,1-2.026-1.823c5.37-5.944,13.408-13.037,21.041-13.037h.135a11.607,11.607,0,0,1,8.916,4.391c4.526,5.235,6.012,9.017,4.492,11.28-.811,1.216-2.8,2.3-7.532.608-6.316-2.263-8.342-.912-19.69,13.037a68.075,68.075,0,0,0-4.391,6.282C534.007,1203.023,526.813,1214.134,482.772,1214.134Z" transform="translate(-363.883 -993.385)" fill="#000200"/>
        <path id="Path_60042" data-name="Path 60042" d="M857.115,1461.205a1.333,1.333,0,0,1-1.013-.439,1.347,1.347,0,0,1,.1-1.925c20.7-18.913,26.58-21.683,34.821-16.482,4.593,2.9,7.126,6.079,7.531,9.49.338,2.837-.844,5.674-3.479,8.41a1.361,1.361,0,1,1-1.959-1.891c2.06-2.094,2.972-4.188,2.736-6.181-.3-2.5-2.466-5.1-6.282-7.5-6.045-3.816-10.065-3.377-31.545,16.178A1.441,1.441,0,0,1,857.115,1461.205Z" transform="translate(-689.625 -1289.191)" fill="#000200"/>
        <path id="Path_60043" data-name="Path 60043" d="M835.215,1439.078a1.333,1.333,0,0,1-1.013-.439,1.347,1.347,0,0,1,.1-1.925c14.691-13.408,24.722-20.872,32.389-19.521,3.749.676,6.789,3.411,9.288,8.376a1.359,1.359,0,1,1-2.432,1.216c-2.094-4.154-4.526-6.417-7.363-6.924-6.518-1.216-16.346,6.316-30.058,18.846A1.368,1.368,0,0,1,835.215,1439.078Z" transform="translate(-675.122 -1273.954)" fill="#000200"/>
        <path id="Path_60044" data-name="Path 60044" d="M835.4,1406.22c-9.963-5.674-15.975-7.734-32.828,11.112-3.344,3.749-5.877,6.214-7.5,7.7L794.3,1410.1c-.912.3-1.79.608-2.7.946l.878,16.921a1.461,1.461,0,0,0,.777,1.182,1.11,1.11,0,0,0,.574.135,1.374,1.374,0,0,0,.811-.27c.135-.1,3.614-2.769,9.929-9.828,16.178-18.1,20.872-15.434,29.451-10.571a1.385,1.385,0,0,0,1.385-2.4Z" transform="translate(-647.144 -1264.163)" fill="#000200"/>
        <path id="Path_60045" data-name="Path 60045" d="M655.525,1294.783a1.359,1.359,0,0,0,1.891.338c18.272-12.935,13.982-27.559,13.813-28.2a1.339,1.339,0,0,0-1.25-.946c-47.148-1.587-75.45,13.273-81.7,43.23-1.385,6.687,0,12.5,4.154,17.292,11.078,12.834,39.853,14.928,49.512,14.928.946,0,1.722-.034,2.263-.068,3.512-.2,4.8-2.938,7.363-8.342a147.231,147.231,0,0,1,7.43-14.05,1.365,1.365,0,0,0-.473-1.858,1.335,1.335,0,0,0-1.857.473,151.237,151.237,0,0,0-7.532,14.286c-2.4,5.066-3.242,6.687-5.066,6.789-.371.034-36.948.642-49.546-13.949-3.546-4.12-4.762-9.152-3.546-14.962,6.417-30.667,36.1-39.718,64.474-41,0,0,1.148,23.641.439,24.148A1.306,1.306,0,0,0,655.525,1294.783Z" transform="translate(-512.15 -1173.835)" fill="#000200"/>
        <path id="Path_60046" data-name="Path 60046" d="M643.2,1147.314a.572.572,0,0,1-.236-.034,1.374,1.374,0,0,1-1.115-1.587c1.351-7.971,6.451-48.735-25.837-68.391a1.379,1.379,0,1,1,1.418-2.364c26.208,15.941,31.173,47.215,27.12,71.195A1.4,1.4,0,0,1,643.2,1147.314Z" transform="translate(-530.422 -1047.271)" fill="#000200"/>
      </g>
      <g id="Hand_2" transform="translate(266.851 89.654)">
        <path id="Path_60047" data-name="Path 60047" d="M1325.975,845.12c4.289-3.344,9.592-7.532,8.612-13.611-.1-.642-.439-2.634-2.2-3.31-2.972-1.115-7.971,2.094-24.317,15.6-22.02,18.238-34.449,61.6-36.644,94.127-.371,5.674-.675,10.909-.979,15.671-1.52,25.7-2.3,38.569-9.659,39.245-7.092.709-16.042-18.711-24.655-37.421-2.229-4.9-4.526-9.9-6.89-14.793-13.273-27.525-31.41-53.362-73.964-55.9a1.272,1.272,0,0,0-1.013.371,2.365,2.365,0,0,0-.27.338c.878,1.317,1.722,2.634,2.567,3.985v-1.857c40.123,2.938,57.483,27.8,70.215,54.24,2.364,4.9,4.661,9.9,6.89,14.759,10,21.75,17.934,39.009,26.749,39.009a3.667,3.667,0,0,0,.608-.034c9.727-.844,10.47-13.678,12.158-41.778.27-4.762.608-9.963.979-15.637,2.161-31.984,14.219-74.471,35.631-92.2,6.755-5.606,19.318-16.042,21.615-15.164.135.034.338.372.473,1.182.709,4.492-3.512,7.8-7.6,11.01-3.31,2.6-6.451,5.066-6.687,8.173-.169,2.229,1.149,4.087,2.567,6.045,3.107,4.323,6.957,9.659-1.891,22.865a1.386,1.386,0,0,0,.371,1.891,1.355,1.355,0,0,0,1.891-.371c9.9-14.759,5.032-21.514,1.824-25.972-1.216-1.655-2.162-3.006-2.06-4.222C1320.47,849.443,1323.138,847.349,1325.975,845.12Z" transform="translate(-1154 -827.996)" fill="#000200"/>
        <path id="Path_60048" data-name="Path 60048" d="M1643.306,886.6a1.37,1.37,0,0,1-1.351-1.115,1.351,1.351,0,0,1,1.081-1.587c8.342-1.655,15.975-3.783,22.7-5.708,12.665-3.58,21.852-6.147,26.344-2.567,2.026,1.621,2.938,4.323,2.735,8.241a1.385,1.385,0,0,1-1.452,1.283,1.367,1.367,0,0,1-1.283-1.452c.169-2.972-.405-4.931-1.688-5.978-3.411-2.736-12.463-.169-23.878,3.073-6.788,1.925-14.489,4.087-22.932,5.741A.364.364,0,0,1,1643.306,886.6Z" transform="translate(-1477.14 -858.398)" fill="#000200"/>
        <path id="Path_60049" data-name="Path 60049" d="M1695.2,912a1.42,1.42,0,0,1-1.283-.878,1.347,1.347,0,0,1,.777-1.756c25.6-9.963,35.9-12.226,39.346-8.578,1.553,1.655,1.486,4.188-.169,7.8a1.375,1.375,0,1,1-2.5-1.148c1.081-2.364,1.317-4.087.642-4.8-3.411-3.58-26.478,5.4-36.374,9.254A.845.845,0,0,1,1695.2,912Z" transform="translate(-1511.506 -875.116)" fill="#000200"/>
        <path id="Path_60050" data-name="Path 60050" d="M1711.815,936.056a1.4,1.4,0,0,1-1.317-.98,1.372,1.372,0,0,1,.912-1.689c7.6-2.3,13.813-4.424,18.812-6.147,11.618-4.019,16.921-5.876,19.589-2.33a6.072,6.072,0,0,1,1.351,4.695,6.136,6.136,0,0,1-2.533,3.816,1.368,1.368,0,0,1-1.486-2.3,2.936,2.936,0,0,0,.507-4.593c-1.452-1.925-7.126.034-16.515,3.276-5.032,1.722-11.247,3.884-18.913,6.181A.856.856,0,0,1,1711.815,936.056Z" transform="translate(-1522.514 -890.933)" fill="#000200"/>
        <path id="Path_60051" data-name="Path 60051" d="M1352.113,1156.666a72.4,72.4,0,0,1-11.348-.912,78.743,78.743,0,0,1-57.55-42.15,1.359,1.359,0,0,1,2.432-1.216,76.113,76.113,0,0,0,55.558,40.7c19.724,3.107,38.806-2.3,51.032-14.523,27.188-27.188,23.945-102.6,22.73-131.008-.878-20.872,8.241-26.411,17.934-32.321,1.25-.743,2.5-1.52,3.783-2.331,3.985-2.567,9.558-4.965,14.928-7.329,7.329-3.175,15.637-6.789,16.617-9.727a1.358,1.358,0,0,0-.135-1.182c-1.891-3.276-2.465-3.208-12.6.912-4.728,1.925-11.213,4.56-20.467,7.7a1.356,1.356,0,1,1-.878-2.567c9.187-3.107,15.6-5.741,20.3-7.667,9.862-4.019,12.834-5.235,15.975.27a4.106,4.106,0,0,1,.371,3.377c-1.351,4.087-9.119,7.464-18.1,11.348-5.269,2.3-10.74,4.661-14.556,7.092-1.283.811-2.567,1.621-3.85,2.364-9.76,5.944-17.427,10.6-16.617,29.856,1.216,28.708,4.492,105-23.54,133.034C1383.725,1150.958,1368.527,1156.666,1352.113,1156.666Z" transform="translate(-1239.478 -908.529)" fill="#000200"/>
        <path id="Path_60052" data-name="Path 60052" d="M1309.06,1352.292a1.337,1.337,0,0,1-1.317-1.081c-3.681-17.056,5.505-31.139,11.314-38.029,9.592-11.348,23.236-18.88,33.233-18.508a1.369,1.369,0,1,1-.1,2.736c-9.22-.507-21.953,6.822-31.038,17.562-5.471,6.485-14.185,19.758-10.74,35.7a1.354,1.354,0,0,1-1.047,1.621Z" transform="translate(-1255.258 -1137.051)" fill="#000200"/>
        <path id="Path_60053" data-name="Path 60053" d="M1294.992,1349.313c-9.153-9.49-12.463-23.439-16.651-41.136-2.9-12.226-6.181-26.073-12.091-40.968a1.345,1.345,0,0,0-1.486-.844,1.368,1.368,0,0,0-1.148,1.283l-1.216,27.694a.924.924,0,0,0,.068.439s.405,1.317,1.115,3.445a1.437,1.437,0,0,0,1.047.912c.439.1.878.2,1.317.27l.574.068a8.145,8.145,0,0,0,2.128-.405c.2-.067.473-.135.743-.2.473,6.214.878,17.36.574,22.9a1.512,1.512,0,0,0,.135.675c4.931,9.828,14.32,22.8,23.236,27.931a1.186,1.186,0,0,0,.675.169,1.313,1.313,0,0,0,1.081-.54A1.254,1.254,0,0,0,1294.992,1349.313Z" transform="translate(-1225.789 -1118.3)" fill="#000200"/>
      </g>
      <g id="Body" transform="translate(141.786 147.907)">
        <path id="Path_60054" data-name="Path 60054" d="M793.81,1155.729a1.385,1.385,0,0,1-1.283-.878,1.363,1.363,0,0,1,.811-1.756c14.624-5.4,25.533-23.743,26.985-26.31,0-6.721-.338-103.685-8.477-118.174a1.362,1.362,0,0,1,2.364-1.351c8.747,15.57,8.815,115.607,8.815,119.863a1.4,1.4,0,0,1-.169.641c-.473.878-12.023,21.75-28.606,27.863A.937.937,0,0,1,793.81,1155.729Zm27.9-28.64Z" transform="translate(-789.486 -1004.517)" fill="#000200"/>
        <path id="Path_60055" data-name="Path 60055" d="M1005.59,1124.433H901.432a1.383,1.383,0,0,1-1.385-1.385c.473-37.117-.507-110.068-7.5-120.437a1.355,1.355,0,0,1,.372-1.891,1.332,1.332,0,0,1,1.891.372c8.714,12.969,8.106,107.434,7.971,120.606h101.49c.405-11.821,3.175-99.227-3.208-117.4a1.359,1.359,0,0,1,.844-1.723,1.41,1.41,0,0,1,1.756.844c6.957,19.893,3.445,115.641,3.31,119.694A1.378,1.378,0,0,1,1005.59,1124.433Z" transform="translate(-855.633 -1000.476)" fill="#000200"/>
        <path id="Path_60056" data-name="Path 60056" d="M1261.681,1191.819a1.327,1.327,0,0,1-1.351-1.317l-1.621-53.092h-4.188a1.329,1.329,0,0,1-.979-.439,1.4,1.4,0,0,1-.372-1.013c.068-.946,4.931-95.613-4.255-113.918a1.359,1.359,0,1,1,2.432-1.216c8.95,17.934,5.2,101.355,4.593,113.851h4.087a1.326,1.326,0,0,1,1.351,1.317l1.655,54.409a1.385,1.385,0,0,1-1.317,1.419Z" transform="translate(-1091.697 -1013.452)" fill="#000200"/>
        <path id="Path_60057" data-name="Path 60057" d="M889.328,1362.2H875.751a1.351,1.351,0,1,1,0-2.7h13.577a1.355,1.355,0,0,1,1.351,1.351A1.313,1.313,0,0,1,889.328,1362.2Z" transform="translate(-843.766 -1238.245)" fill="#000200"/>
        <path id="Path_60058" data-name="Path 60058" d="M1238.128,1362.2h-13.577a1.351,1.351,0,1,1,0-2.7h13.577a1.351,1.351,0,1,1,0,2.7Z" transform="translate(-1074.764 -1238.245)" fill="#000200"/>
        <path id="Path_60059" data-name="Path 60059" d="M997.538,1494.306a1.4,1.4,0,0,1-.642-.169,1.349,1.349,0,0,1-.54-1.858L1009.73,1468a1.368,1.368,0,1,1,2.4,1.317L998.754,1493.6A1.388,1.388,0,0,1,997.538,1494.306Z" transform="translate(-924.417 -1309.624)" fill="#000200"/>
        <path id="Path_60060" data-name="Path 60060" d="M789.067,1320.134l-2.668-52.484a1.311,1.311,0,0,0-1.418-1.284,1.357,1.357,0,0,0-1.283,1.418l2.736,53.295C787.277,1320.742,788.155,1320.4,789.067,1320.134Z" transform="translate(-783.696 -1176.553)" fill="#000200"/>
      </g>
    </g>
  </g>
</svg>
