<svg id="engineering_black_24dp" xmlns="http://www.w3.org/2000/svg" width="32" height="32" viewBox="0 0 32 32">
  <g id="Group_19431" data-name="Group 19431">
    <rect id="Rectangle_7089" data-name="Rectangle 7089" width="32" height="32" fill="none"/>
  </g>
  <g id="Group_19433" data-name="Group 19433" transform="translate(1.313 3.94)">
    <g id="Group_19432" data-name="Group 19432">
      <path id="Path_60756" data-name="Path 60756" d="M11.506,15C8,15,1,16.76,1,20.253V22.88H22.013V20.253C22.013,16.76,15.013,15,11.506,15Zm-7.88,5.253c.289-.946,4.347-2.627,7.88-2.627s7.617,1.694,7.88,2.627Z" transform="translate(-1 0.759)" fill="#936beb"/>
      <path id="Path_60757" data-name="Path 60757" d="M4.894,10.566h.341a5.253,5.253,0,0,0,10.506,0h.341a.645.645,0,0,0,.644-.644V9.9a.645.645,0,0,0-.644-.644h-.341a5.249,5.249,0,0,0-2.627-4.531V5.97a.657.657,0,0,1-1.313,0V4.184A5.372,5.372,0,0,0,10.488,4a5.372,5.372,0,0,0-1.313.184V5.97a.657.657,0,1,1-1.313,0V4.722A5.249,5.249,0,0,0,5.235,9.253H4.894A.645.645,0,0,0,4.25,9.9v.039A.642.642,0,0,0,4.894,10.566Zm8.221,0a2.627,2.627,0,1,1-5.253,0Z" transform="translate(0.018 -2.687)" fill="#936beb"/>
      <path id="Path_60758" data-name="Path 60758" d="M23.825,7.242l1.221-1.09-.985-1.707L22.5,4.957a2.6,2.6,0,0,0-.617-.355L21.553,3h-1.97l-.328,1.6a2.983,2.983,0,0,0-.63.355l-1.55-.512L16.09,6.152l1.221,1.09a2.969,2.969,0,0,0,0,.683L16.09,9.041l.985,1.707,1.576-.5a3.018,3.018,0,0,0,.565.328l.368,1.615h1.97l.355-1.6a3.126,3.126,0,0,0,.578-.328l1.563.5.985-1.707L23.812,7.938A3.112,3.112,0,0,0,23.825,7.242Zm-3.257,2A1.642,1.642,0,1,1,22.21,7.6,1.642,1.642,0,0,1,20.568,9.238Z" transform="translate(3.728 -3)" fill="#936beb"/>
      <path id="Path_60759" data-name="Path 60759" d="M20.757,11.038l-1.116.368a1.773,1.773,0,0,0-.433-.25L18.97,10H17.565l-.236,1.143a2.446,2.446,0,0,0-.447.25l-1.1-.368-.709,1.221.867.775a3,3,0,0,0,0,.486l-.867.8.709,1.221,1.129-.355a2.526,2.526,0,0,0,.407.236l.236,1.156h1.405l.25-1.143a2.647,2.647,0,0,0,.42-.236l1.116.355.709-1.221-.867-.8a3,3,0,0,0,0-.486l.867-.775Zm-2.5,3.415a1.169,1.169,0,1,1,1.169-1.169A1.171,1.171,0,0,1,18.261,14.452Z" transform="translate(3.408 -0.807)" fill="#936beb"/>
    </g>
  </g>
</svg>
