<?xml version="1.0" encoding="utf-8"?>
<svg width="560.92" height="317.344" viewBox="0 0 560.92 317.344" xmlns="http://www.w3.org/2000/svg">
  <defs>
    <filter id="Path_60625" x="0" y="0" width="560.92" height="317.344" filterUnits="userSpaceOnUse">
      <feOffset dy="30" input="SourceAlpha"/>
      <feGaussianBlur stdDeviation="40" result="blur"/>
      <feFlood flood-color="#dbdbb2" flood-opacity="0.404"/>
      <feComposite operator="in" in2="blur"/>
      <feComposite in="SourceGraphic"/>
    </filter>
  </defs>
  <g id="Group_19461" data-name="Group 19461" transform="translate(-695.998 -2473.79)">
    <g transform="matrix(1, 0, 0, 1, 696, 2473.79)" filter="url(#Path_60625)">
      <path id="Path_60625-2" data-name="Path 60625" d="M272.1,465.3l320.92.293v75.6l-312.7,1.454Z" transform="translate(-152.1 -375.3)" fill="#fff"/>
    </g>
    <path id="Frame" d="M325.168,594.261c-.915,0-1.631-.207-1.671-.472l-8.2-78.982c0-.127.159-.253.478-.357a4.538,4.538,0,0,1,1.194-.15h0l320.164.3c.915,0,1.671.219,1.671.484v77.2c0,.265-.716.484-1.671.484l-311.967,1.5Zm-6.486-78.971,8.118,78,308.664-1.474V515.578Z" transform="translate(513.998 2064.575)" fill="#000200"/>
  </g>
  <text style="fill: rgb(51, 51, 51); font-family: Arial, sans-serif; font-size: 13.6px; font-weight: 700; white-space: pre;" transform="matrix(1.259288, 0, 0, 1.611887, -43.766975, -81.268494)" x="206.225" y="140.233">24X7 Customer Support</text>
  <g id="support_agent_black_24dp" transform="matrix(1, 0, 0, 1, 153.166931, 120.351166)">
    <g id="Group_19434" data-name="Group 19434">
      <rect id="Rectangle_7090" data-name="Rectangle 7090" width="32" height="32" transform="translate(-0.305)" fill="none"/>
    </g>
    <g id="Group_19436" data-name="Group 19436" transform="translate(2.627 3.94)">
      <g id="Group_19435" data-name="Group 19435">
        <path id="Path_60762" data-name="Path 60762" d="M26.953,15.109a11.824,11.824,0,1,0-23.639.079A2.584,2.584,0,0,0,2,17.446v2.627A2.634,2.634,0,0,0,4.627,22.7H5.94V14.688a9.193,9.193,0,1,1,18.386,0v9.324H13.82v2.627H24.326a2.634,2.634,0,0,0,2.627-2.627v-1.6a2.428,2.428,0,0,0,1.313-2.154V17.236A2.418,2.418,0,0,0,26.953,15.109Z" transform="translate(-2 -3)" fill="#5499ef"/>
        <circle id="Ellipse_876" data-name="Ellipse 876" cx="1.5" cy="1.5" r="1.5" transform="translate(8.07 12.061)" fill="#5499ef"/>
        <ellipse id="Ellipse_877" data-name="Ellipse 877" cx="1" cy="1.5" rx="1" ry="1.5" transform="translate(16.07 12.061)" fill="#5499ef"/>
        <path id="Path_60763" data-name="Path 60763" d="M21.758,12.606A7.932,7.932,0,0,0,6.025,14.471a10.6,10.6,0,0,0,6.383-7.735A10.555,10.555,0,0,0,21.758,12.606Z" transform="translate(-0.745 -2.06)" fill="#5499ef"/>
      </g>
    </g>
  </g>
</svg>