<svg xmlns="http://www.w3.org/2000/svg" xmlns:xlink="http://www.w3.org/1999/xlink" width="502.511" height="317.344" viewBox="0 0 502.511 317.344">
  <defs>
    <filter id="Path_60625" x="0" y="0" width="502.511" height="317.344" filterUnits="userSpaceOnUse">
      <feOffset dy="30" input="SourceAlpha"/>
      <feGaussianBlur stdDeviation="40" result="blur"/>
      <feFlood flood-color="#dbdbb2" flood-opacity="0.404"/>
      <feComposite operator="in" in2="blur"/>
      <feComposite in="SourceGraphic"/>
    </filter>
  </defs>
  <g id="Group_19460" data-name="Group 19460" transform="translate(-695.998 -2473.79)">
    <g transform="matrix(1, 0, 0, 1, 696, 2473.79)" filter="url(#Path_60625)">
      <path id="Path_60625-2" data-name="Path 60625" d="M272.1,465.3l262.511.293v75.6l-255.79,1.454Z" transform="translate(-152.1 -375.3)" fill="#fff"/>
    </g>
    <path id="Frame" d="M323.387,594.261c-.75,0-1.337-.207-1.37-.472L315.3,514.807c0-.127.13-.253.391-.357a3.09,3.09,0,0,1,.978-.15h0l262.358.3c.75,0,1.37.219,1.37.484v77.2c0,.265-.587.484-1.37.484l-255.641,1.5Zm-5.315-78.971,6.652,78,252.934-1.474V515.578Z" transform="translate(513.996 2064.574)" fill="#000200"/>
  </g>
</svg>
