<svg xmlns="http://www.w3.org/2000/svg" width="34.705" height="30.648" viewBox="0 0 34.705 30.648">
  <g id="Group_19210" data-name="Group 19210" transform="translate(0 0)">
    <path id="Path_59922" data-name="Path 59922" d="M4102.615,639.25c.043-.629.089-1.258.13-1.887a27.275,27.275,0,0,1,.9-5.741,14.987,14.987,0,0,1,4.243-6.816,19.532,19.532,0,0,1,5.8-3.744,1.759,1.759,0,0,1,2.4.879q.639,1.288,1.231,2.6a1.765,1.765,0,0,1-.953,2.5,13.07,13.07,0,0,0-3.117,1.951,8.839,8.839,0,0,0-2.822,4.977c-.216,1.021-.308,2.068-.462,3.155.221.01.338.02.457.02,1.536,0,3.073,0,4.609,0a1.788,1.788,0,0,1,1.96,1.952q0,5.236,0,10.473a1.8,1.8,0,0,1-1.966,1.953c-3.367,0-6.734-.023-10.1.014a2.086,2.086,0,0,1-2.312-1.436Z" transform="translate(-4102.615 -620.886)" fill="#8f9ecc"/>
    <path id="Path_59923" data-name="Path 59923" d="M3666.143,637.427h.386q2.287,0,4.575,0a1.79,1.79,0,0,1,1.971,1.974q0,5.219,0,10.438a1.794,1.794,0,0,1-1.952,1.965q-5.236,0-10.472,0a1.8,1.8,0,0,1-1.952-1.937c0-3.22-.021-6.44.019-9.659a36.821,36.821,0,0,1,.712-7.133,15.01,15.01,0,0,1,4.591-8,20.1,20.1,0,0,1,5.712-3.7,1.777,1.777,0,0,1,2.466.909c.4.821.79,1.648,1.176,2.476a1.776,1.776,0,0,1-.913,2.563,13.068,13.068,0,0,0-3.144,1.971,9.094,9.094,0,0,0-2.819,4.982A13.582,13.582,0,0,0,3666.143,637.427Z" transform="translate(-3638.898 -621.172)" fill="#8f9ecc"/>
  </g>
</svg>
