<svg xmlns="http://www.w3.org/2000/svg" xmlns:xlink="http://www.w3.org/1999/xlink" width="622.163" height="317.344" viewBox="0 0 622.163 317.344">
  <defs>
    <filter id="Path_60625" x="0" y="0" width="622.163" height="317.344" filterUnits="userSpaceOnUse">
      <feOffset dy="30" input="SourceAlpha"/>
      <feGaussianBlur stdDeviation="40" result="blur"/>
      <feFlood flood-color="#dbdbb2" flood-opacity="0.404"/>
      <feComposite operator="in" in2="blur"/>
      <feComposite in="SourceGraphic"/>
    </filter>
  </defs>
  <g id="Group_19463" data-name="Group 19463" transform="translate(-695.999 -2473.792)">
    <g transform="matrix(1, 0, 0, 1, 696, 2473.79)" filter="url(#Path_60625)">
      <path id="Path_60625-2" data-name="Path 60625" d="M272.1,465.3l382.163.293v75.6l-372.379,1.454Z" transform="translate(-152.1 -375.3)" fill="#fff"/>
    </g>
    <path id="Frame" d="M327.037,594.261c-1.089,0-1.94-.207-1.988-.472L315.3,514.807c0-.127.189-.253.568-.357a6.365,6.365,0,0,1,1.42-.15h0l380.774.3c1.088,0,1.988.219,1.988.484v77.2c0,.265-.852.484-1.988.484l-371.025,1.5Zm-7.714-78.971,9.654,78,367.1-1.474V515.578Z" transform="translate(514 2064.576)" fill="#000200"/>
  </g>
</svg>
