<svg xmlns="http://www.w3.org/2000/svg" width="509.535" height="545.943" viewBox="0 0 509.535 545.943">
  <g id="_26" data-name="26" transform="translate(-326.7 -388.3)">
    <g id="Objects" transform="translate(326.7 519.466)">
      <path id="Path_60766" data-name="Path 60766" d="M326.7,975.881l55.835,233.406L612.2,1159.137S542.836,970.336,326.7,975.881Z" transform="translate(-326.7 -834.312)" fill="#d9dbf1"/>
      <path id="Path_60767" data-name="Path 60767" d="M1650.808,575.615l-12.431,10.312c-1.483,1.236.636,3.32,2.119,2.119,4.132-3.426,8.3-6.887,12.432-10.312C1654.41,576.5,1652.292,574.379,1650.808,575.615Z" transform="translate(-1174.814 -575.241)" fill="#000200"/>
      <path id="Path_60768" data-name="Path 60768" d="M1651.922,635.191q-7.575,5.509-15.186,11.019c-1.519,1.13-.035,3.708,1.518,2.578q7.576-5.509,15.186-11.019C1654.959,636.675,1653.476,634.061,1651.922,635.191Z" transform="translate(-1173.668 -613.839)" fill="#000200"/>
      <path id="Path_60769" data-name="Path 60769" d="M1097.086,1494.7l-71.586,73.917,74.906,8.794,59.3-80.592Z" transform="translate(-778.709 -1169.98)" fill="#e4f9be"/>
      <path id="Path_60770" data-name="Path 60770" d="M1223.7,1376.251c-4.344-7.134-8.688-14.3-13.031-21.437a1.5,1.5,0,0,0-2.578,1.519c4.344,7.134,8.688,14.3,13.032,21.437C1222.149,1379.359,1224.728,1377.875,1223.7,1376.251Z" transform="translate(-896.674 -1079.042)" fill="#000200"/>
      <path id="Path_60771" data-name="Path 60771" d="M1185.035,1433.129c-3.955-2.225-7.876-4.485-11.831-6.71a1.5,1.5,0,0,0-1.519,2.578c3.956,2.225,7.876,4.485,11.831,6.71A1.5,1.5,0,0,0,1185.035,1433.129Z" transform="translate(-872.803 -1125.679)" fill="#000200"/>
    </g>
    <g id="Phone" transform="translate(584.545 835.993)">
      <path id="Path_60772" data-name="Path 60772" d="M1164.641,1579.224l-21.578,20.907a1.474,1.474,0,0,0,.741,2.507l41.285,8.158a.78.78,0,0,0,.282.035,1.481,1.481,0,0,0,1.236-.671l16.811-25.675a1.511,1.511,0,0,0,.106-1.448,1.532,1.532,0,0,0-1.2-.848l-36.552-3.39A1.733,1.733,0,0,0,1164.641,1579.224Zm34.963,5.721-14.9,22.744-37.542-7.416,19.036-18.435Z" transform="translate(-1112.302 -1540.906)" fill="#000200"/>
      <path id="Path_60773" data-name="Path 60773" d="M1182.773,1491.277v-.071a.653.653,0,0,0-.071-.247c0-.035-.035-.035-.035-.071-.035-.071-.035-.106-.071-.177a.124.124,0,0,0-.036-.071c-.035-.035-.07-.106-.106-.141l-.071-.071a.351.351,0,0,0-.177-.141l-.035-.035h0c-.071-.035-.141-.106-.212-.141-.035,0-.07-.035-.106-.035s-.071-.035-.106-.035h-.071c-.035,0-.071-.035-.141-.035h-.283a1.16,1.16,0,0,0-.6.141c-.036,0-.036.035-.071.035-.035.035-.106.035-.141.071s-.071.035-.106.071-.07.035-.106.071c-.071.071-.141.106-.177.177l-47.571,63.534-71.057-8.334,63.358-65.442,13.314,1.448h.176a1.54,1.54,0,0,0,1.236-.636l5.085-7.31h0v-.035l.106-.212c0-.035.035-.035.035-.071a.51.51,0,0,0,.071-.247v-.035a.688.688,0,0,0,.035-.283v-.071a.6.6,0,0,0-.035-.247v-.036a.654.654,0,0,0-.071-.247c0-.035-.035-.035-.035-.071s-.035-.035-.035-.071c-.035-.035-.035-.071-.071-.106l-.035-.035a.766.766,0,0,0-.141-.177l-.035-.035c-.035-.035-.106-.07-.141-.106-.035,0-.035-.035-.071-.035l-.212-.106h-.035c-.071-.035-.141-.035-.212-.071h-.071c-.07,0-.177-.035-.247-.035h-13.491a1.531,1.531,0,0,0-1.059.459l-5.615,5.827h0l-65.971,68.054c-.035.071-.106.106-.141.177a.035.035,0,0,1-.035.035c-.035.071-.106.141-.141.212a.035.035,0,0,1-.035.035.665.665,0,0,0-.071.283v.035c0,.106-.035.176-.035.282v.071h0l.283,8.758a1.473,1.473,0,0,0,1.236,1.412l74.624,12.573c.071,0,.177.036.247.036a1.473,1.473,0,0,0,1.2-.636l48.066-67.807a1.52,1.52,0,0,0,.283-.847v-9.006A.321.321,0,0,0,1182.773,1491.277Z" transform="translate(-1056.8 -1471.5)" fill="#000200"/>
    </g>
    <g id="Man" transform="translate(339.117 492.227)">
      <path id="Body" d="M1026.069,1473.311a1.128,1.128,0,0,1-.495-.106c-33.762-12.361-77.66-48.277-78.084-48.63a1.481,1.481,0,0,1,1.872-2.3c.424.353,43.969,35.952,77.237,48.136a1.479,1.479,0,0,1,.883,1.907A1.441,1.441,0,0,1,1026.069,1473.311Z" transform="translate(-740.31 -1095.677)" fill="#000200"/>
      <g id="Hand_2" transform="translate(0 78.383)">
        <path id="Path_60774" data-name="Path 60774" d="M855.413,786.187A1.472,1.472,0,0,1,854,785.162c-4.909-15.5-5.509-38.565-2.4-45.1,2.26-4.8,5.015-4.909,6.428-4.521,4.273,1.095,7.063,8.617,6.71,14.656a1.526,1.526,0,0,1-1.589,1.413,1.5,1.5,0,0,1-1.413-1.589c.318-5.3-2.26-11.019-4.485-11.584-1.307-.318-2.543,1.942-3,2.931-2.543,5.368-2.437,27.229,2.543,42.909a1.492,1.492,0,0,1-.954,1.872C855.731,786.151,855.555,786.187,855.413,786.187Z" transform="translate(-677.404 -729.982)" fill="#000200"/>
        <path id="Path_60775" data-name="Path 60775" d="M825.773,771.88a1.472,1.472,0,0,1-1.413-1.024c-4.838-14.444-3.744-35.1-2.225-40.367,1.2-4.238,3.5-9.465,7.452-10.312,2.437-.53,4.909.671,7.381,3.6.53.636,2.507,3.037.989,3.638-1.978.742-2.719-1.059-3.249-1.7-1.165-1.377-2.9-2.966-4.521-2.613-1.907.424-3.849,3.5-5.191,8.229-1.272,4.415-2.508,24.58,2.19,38.6a1.464,1.464,0,0,1-.954,1.872A2.061,2.061,0,0,1,825.773,771.88Z" transform="translate(-658.748 -720.056)" fill="#000200"/>
        <path id="Path_60776" data-name="Path 60776" d="M735.581,903.341h-.071a1.494,1.494,0,0,1-1.413-1.554c.388-7.911,3.143-13.844,8.193-17.658,8.3-6.251,20.06-4.662,23.379-4.026,10.772-13.456.071-59.473-4.026-76.99-.777-3.391-1.413-6-1.66-7.522-1.554-8.547-5.156-16.175-8.3-22.885-3.779-7.982-7.028-14.868-6.039-21.331,1.519-9.889,9.288-20.166,16.634-21.967a7.008,7.008,0,0,1,7.734,2.613,1.49,1.49,0,0,1-2.4,1.766,4.036,4.036,0,0,0-4.626-1.519c-5.474,1.377-13,10.206-14.409,19.565-.848,5.545,2.225,12.043,5.792,19.6,3.249,6.887,6.922,14.656,8.547,23.627.283,1.483.848,4.026,1.66,7.381,4.627,19.918,15.5,66.571,2.755,80.309a1.425,1.425,0,0,1-1.413.424c-.141-.035-13.42-3-21.826,3.355-4.273,3.249-6.639,8.441-6.992,15.4A1.563,1.563,0,0,1,735.581,903.341Z" transform="translate(-602.635 -725.931)" fill="#000200"/>
        <path id="Path_60777" data-name="Path 60777" d="M812.916,784.228a1.448,1.448,0,0,1-1.095-.495l-1.165-1.271c-5.651-6.251-8.405-10.277,1.06-20.1a1.5,1.5,0,1,1,2.154,2.084c-8.017,8.3-6.11,10.383-.989,16.034l1.165,1.307a1.493,1.493,0,0,1-.106,2.084A1.885,1.885,0,0,1,812.916,784.228Z" transform="translate(-648.822 -747.13)" fill="#000200"/>
        <path id="Path_60778" data-name="Path 60778" d="M459.911,1056.678c-20.024,0-37.93-5.086-53.116-15.292C379,1022.775,362.65,988.129,361.873,946.35c-.636-36.164,19.212-77.767,54.528-114.178,28.288-29.171,60.5-48.207,82.04-48.454h.035c.812,0,6.993.812,7.028,1.625,0,.812-6.18,1.342-6.993,1.342-20.483.247-52.586,19.389-79.921,47.571-34.751,35.846-54.352,76.672-53.716,112.059.742,40.79,16.634,74.553,43.58,92.6,27.865,18.682,65.265,19.671,108.139,2.931,53.5-20.907,77.166-81.086,81.44-130.459,4.061-46.9-7.275-76.248-19.53-83.664-25.675-15.575-25.393-36.376-25.251-48.807.071-4.556.106-8.476-1.377-8.935a1.625,1.625,0,0,0-1.8.494c-4.061,4.132-4.238,24.368,1.095,40.155a1.474,1.474,0,0,1-2.79.953c-4.909-14.586-6.074-37.4-.388-43.192a4.5,4.5,0,0,1,4.8-1.236c3.6,1.13,3.532,5.615,3.461,11.831-.141,11.8-.389,31.537,23.8,46.229C593.513,833.373,605.2,863.286,601,911.7c-4.379,50.255-28.536,111.564-83.311,132.966C497.029,1052.652,477.64,1056.678,459.911,1056.678Z" transform="translate(-361.858 -750.364)" fill="#000200"/>
        <path id="Path_60779" data-name="Path 60779" d="M571.071,1202.67a1.456,1.456,0,0,1-.953-.353,1.5,1.5,0,0,1-.212-2.084c28.324-34.115,51.1-28.465,62.157-22.073a1.5,1.5,0,0,1-1.519,2.578c-10.242-5.933-31.467-11.054-58.378,21.4A1.323,1.323,0,0,1,571.071,1202.67Z" transform="translate(-496.221 -1013.253)" fill="#000200"/>
        <path id="Path_60780" data-name="Path 60780" d="M885.63,1135c-11.76,0-27.971-3.178-48.1-14.585a1.492,1.492,0,0,1-.565-2.013,1.462,1.462,0,0,1,2.013-.565c42.8,24.3,67.278,9.853,67.525,9.712a1.49,1.49,0,1,1,1.554,2.543C907.526,1130.408,899.757,1135,885.63,1135Z" transform="translate(-669.055 -977.225)" fill="#000200"/>
        <path id="Path_60781" data-name="Path 60781" d="M872.659,1163.59c-13.173,0-28.394-3.814-43.58-15.928a1.484,1.484,0,1,1,1.836-2.331c27.829,22.143,55.694,15.363,69.856,9.359a1.479,1.479,0,0,1,1.166,2.719A74.677,74.677,0,0,1,872.659,1163.59Z" transform="translate(-663.713 -994.939)" fill="#000200"/>
        <path id="Path_60782" data-name="Path 60782" d="M525.967,1082.093a1.524,1.524,0,0,1-.918-.318l-71.2-55.341a1.484,1.484,0,1,1,1.836-2.331l71.2,55.341a1.47,1.47,0,0,1,.247,2.083A1.39,1.39,0,0,1,525.967,1082.093Z" transform="translate(-420.992 -916.515)" fill="#000200"/>
      </g>
      <g id="Head" transform="translate(129.745)">
        <path id="Path_60783" data-name="Path 60783" d="M752,710.855c2.437,7.911,4.415,10.065,4.415,10.065l.459.565c5.439-1.554,8.582-1.519,13.6-2.225.671-.636,1.377-1.271,2.084-1.872a8.746,8.746,0,0,1,.53-2.26,42.9,42.9,0,0,0-.459-8.229C765.809,708.454,758.922,709.725,752,710.855Z" transform="translate(-743.961 -633.163)" fill="#000200"/>
        <path id="Path_60784" data-name="Path 60784" d="M994.765,736.016a1.544,1.544,0,0,1-1.483-1.236,1.459,1.459,0,0,1,1.236-1.7c3.461-.565,6.18-1.978,7.24-3.779a4.035,4.035,0,0,0,.282-3.567c-1.059-3.178-8.37-3.5-10.877-3.39a1.484,1.484,0,0,1-1.554-1.236l-2.649-16.457a1.483,1.483,0,1,1,2.931-.459l2.472,15.186c3.249,0,10.877.565,12.5,5.439a7.051,7.051,0,0,1-.53,6.039c-1.554,2.578-4.944,4.45-9.323,5.156Z" transform="translate(-895.928 -630.601)" fill="#000200"/>
        <path id="Path_60785" data-name="Path 60785" d="M893.251,711.8l-1.13,3.461c-1.483,4.45,5.439,6.745,6.922,2.3l1.13-3.461C901.656,709.645,894.734,707.349,893.251,711.8Z" transform="translate(-834.462 -634.778)" fill="#000200"/>
        <path id="Path_60786" data-name="Path 60786" d="M1024.051,694.6l-1.13,3.461c-1.483,4.45,5.439,6.745,6.922,2.3l1.13-3.461C1032.456,692.445,1025.534,690.15,1024.051,694.6Z" transform="translate(-919.068 -623.652)" fill="#000200"/>
        <path id="Path_60787" data-name="Path 60787" d="M743.089,763.915c-6.957-.883-10.1-5.262-10.7-9.112a9.075,9.075,0,0,1,1.766-7.134c3.073-4.026,9.818-6.816,19.565-8.123,1.024-.777,2.084-1.554,3.108-2.331a1.421,1.421,0,0,0-1.519-.848c-11.8,1.307-19.707,4.485-23.521,9.535a12.169,12.169,0,0,0-2.366,9.429c.777,4.874,4.7,10.489,13.279,11.584h.177c.742,0,3,1.554,3.073.812C746.056,766.881,743.9,764.021,743.089,763.915Z" transform="translate(-729.258 -652.213)" fill="#000200"/>
        <path id="Path_60788" data-name="Path 60788" d="M1040.031,823.194c-2.19,1.483-4.415,2.967-6.6,4.45-1.943,1.307.282,4.2,2.225,2.9,2.19-1.483,4.415-2.967,6.6-4.45C1044.2,824.783,1041.974,821.887,1040.031,823.194Z" transform="translate(-925.513 -708.172)" fill="#000200"/>
        <path id="Path_60789" data-name="Path 60789" d="M848.3,529.22c-6.428-25.428-26.77-35.1-61.98-29.63-23.415,3.638-38.812,10.983-47.077,22.426-6.5,9.041-8.511,20.519-6.074,35.14.954-.282,1.942-.494,2.9-.706-2.225-13.667-.388-24.368,5.58-32.668,7.77-10.771,22.532-17.694,45.134-21.225a109.793,109.793,0,0,1,16.881-1.413c23.062,0,36.8,9.535,41.744,28.853A16.715,16.715,0,0,1,848.3,529.22Z" transform="translate(-731.133 -498.11)" fill="#000200"/>
        <path id="Path_60790" data-name="Path 60790" d="M736.075,632.226a1.536,1.536,0,0,1-1.448-1.095l-5.333-19a1.493,1.493,0,0,1,1.095-1.872l117.78-27.935a1.612,1.612,0,0,1,1.2.212,1.516,1.516,0,0,1,.636,1.024l2.578,18.47a1.511,1.511,0,0,1-1.13,1.66L736.428,632.155A.636.636,0,0,1,736.075,632.226Zm-3.5-19.389,4.52,16.1,112.306-27.794-2.154-15.5Z" transform="translate(-729.236 -552.556)" fill="#000200"/>
        <path id="Path_60791" data-name="Path 60791" d="M891.884,662.233a37.369,37.369,0,0,0-8.476,2.755c-2.119.989-.212,4.061,1.907,3.108a41.116,41.116,0,0,1,7.593-2.366C895.2,665.2,894.18,661.809,891.884,662.233Z" transform="translate(-828.363 -604.247)" fill="#000200"/>
        <path id="Path_60792" data-name="Path 60792" d="M1012.363,633.338c-2.19-.388-4.485-.388-6.639-.953-2.26-.565-3.6,2.825-1.307,3.39,2.472.636,5.015.742,7.558,1.165C1014.27,637.364,1014.658,633.726,1012.363,633.338Z" transform="translate(-906.462 -584.923)" fill="#000200"/>
        <path id="Path_60793" data-name="Path 60793" d="M1023.539,643.352l-.141-.777a1.514,1.514,0,0,0-1.731-1.2,1.487,1.487,0,0,0-1.2,1.731l.141.777c9.571,52.657,15.363,84.477-.53,97.438-4.415,3.6-7.523,5.368-10.913,6.533l-.318.106a68.856,68.856,0,0,1-8.158,1.907l-1.907.388c-.459.071-1.73.106-1.942.495s.671,1.13.848,1.554l3.39,7.8a1.437,1.437,0,0,0,1.236.883h.141a1.539,1.539,0,0,0,1.236-.636l.494-.706h0l6.216-9.076c3.532-1.236,6.922-3.179,11.548-6.922C1039.255,729.524,1033.322,697.068,1023.539,643.352Z" transform="translate(-902.311 -590.769)" fill="#000200"/>
      </g>
      <g id="Hand_1" transform="translate(256.858 107.691)">
        <path id="Path_60794" data-name="Path 60794" d="M1169.91,1119.214a1.474,1.474,0,0,1-1.448-1.2,1.49,1.49,0,0,1,1.165-1.766c6-1.2,14.2-7.451,22.849-14.056,8.194-6.216,17.447-13.279,26.487-17.34,1.589-.706,3.461-1.519,5.545-2.4,29.525-12.679,107.927-46.37,101.57-131.024-6.851-91.116-151.33-134.308-235.631-145.433a1.475,1.475,0,0,1-1.271-1.66,1.451,1.451,0,0,1,1.66-1.271c25.71,3.39,91.752,14.444,149.706,43.651,55.623,28.006,85.395,63.181,88.5,104.536,6.533,86.737-73.281,121.065-103.336,133.955-2.048.883-3.92,1.7-5.474,2.4-8.723,3.92-17.482,10.559-25.922,16.987-9.359,7.134-17.411,13.279-24.086,14.621A.959.959,0,0,0,1169.91,1119.214Z" transform="translate(-1089.164 -803.042)" fill="#000200"/>
        <path id="Path_60795" data-name="Path 60795" d="M1527.476,1404.616h-.212a1.477,1.477,0,0,1-1.236-1.7c3.037-19.883-19.954-40.755-54.811-49.831l-4.238,7.982a1.485,1.485,0,0,1-2.613-1.412l4.8-9.006a1.5,1.5,0,0,1,1.7-.742c37.612,9.465,61.521,31.432,58.166,53.469A1.688,1.688,0,0,1,1527.476,1404.616Z" transform="translate(-1331.741 -1156.745)" fill="#000200"/>
        <path id="Path_60796" data-name="Path 60796" d="M1475.121,1282.587l1.483-.176-1.519-.036c-1.589-13.279-3.214-27.017,4.626-34.292,5.262-4.874,14.021-6.039,26.77-3.532a1.475,1.475,0,1,1-.565,2.9c-11.76-2.3-19.671-1.377-24.192,2.79-6.746,6.251-5.192,19.212-3.708,31.75l-1.448.388Z" transform="translate(-1337.94 -1087.796)" fill="#000200"/>
        <path id="Path_60797" data-name="Path 60797" d="M1481.588,1227.648c-1.377,0-2.861-1.413-3.92-2.931-2.543-3.638-3.673-9.43,1.483-13.738a1.465,1.465,0,0,1,2.083.212,1.5,1.5,0,0,1-.176,2.084,6.224,6.224,0,0,0-2.437,6.18,9.006,9.006,0,0,0,4.485,5.9c.777.318.141,1.625-.565,2.013A1.518,1.518,0,0,1,1481.588,1227.648Z" transform="translate(-1339.073 -1066.691)" fill="#000200"/>
        <path id="Path_60798" data-name="Path 60798" d="M1386.722,1153.48a1.493,1.493,0,0,1-1.236-.636c-7.8-11.372-53.01-32.173-53.469-32.35a1.493,1.493,0,1,1,1.236-2.719c1.907.883,46.441,21.331,54.705,33.409a1.524,1.524,0,0,1-.388,2.084A1.68,1.68,0,0,1,1386.722,1153.48Z" transform="translate(-1245.691 -1006.543)" fill="#000200"/>
        <path id="Path_60799" data-name="Path 60799" d="M1356.752,981.387a2.393,2.393,0,0,1-.494-.071,1.5,1.5,0,0,1-.918-1.907l28.041-82.252a1.472,1.472,0,0,1,1.872-.918,1.5,1.5,0,0,1,.918,1.907L1358.129,980.4A1.41,1.41,0,0,1,1356.752,981.387Z" transform="translate(-1261.279 -863.268)" fill="#000200"/>
        <path id="Path_60800" data-name="Path 60800" d="M1348.806,1639.675a1.445,1.445,0,0,1-1.448-1.2,1.487,1.487,0,0,1,1.2-1.731c26.77-4.98,26.276-17.8,26.24-18.365a1.52,1.52,0,0,1,1.377-1.589,1.467,1.467,0,0,1,1.589,1.342c.035.636.954,16-28.677,21.508A.782.782,0,0,1,1348.806,1639.675Z" transform="translate(-1256.159 -1329.4)" fill="#000200"/>
        <path id="Path_60801" data-name="Path 60801" d="M1264.824,1446.141a4.737,4.737,0,0,1-3.108-1.059c-3.143-2.543-2.684-8.794,1.272-17.128,6.251-13.1,12.714-26.664,31.325-31.22,16.7-4.1,18.259-5.333,37.259-20.413l.777-.636a1.518,1.518,0,0,1,1.166-.318c.495.071,50.962,8.829,54.387,49.725a1.5,1.5,0,0,1-1.342,1.625,1.428,1.428,0,0,1-1.589-1.342c-3.037-36.129-45.523-45.805-51.279-46.935l-.247.212c-19.495,15.469-21.084,16.74-38.424,20.978-16.069,3.92-22.037,14.268-29.348,29.63-3.638,7.593-3.673,12.29-2.119,13.526,1.2.954,3.955.071,6.993-2.26,2.931-2.26,5.05-6.039,7.1-9.712,3.814-6.816,8.123-14.551,18.259-10.489,2.3.918,4.485,1.7,6.463,2.437,6.6,2.4,11.372,4.132,12.82,7.876.883,2.26.424,4.874-1.377,8.335a1.507,1.507,0,0,1-2.013.636,1.477,1.477,0,0,1-.636-2.013c1.342-2.578,1.766-4.521,1.236-5.862-.953-2.472-5.191-4.026-11.054-6.145-2.013-.742-4.2-1.519-6.534-2.472-7.31-2.931-10.312,1.589-14.55,9.182-2.19,3.92-4.485,7.982-7.911,10.63C1269.557,1445.01,1266.979,1446.141,1264.824,1446.141Z" transform="translate(-1199.441 -1173.23)" fill="#000200"/>
      </g>
    </g>
    <g id="Objects-2" data-name="Objects" transform="translate(326.699 412.58)">
      <path id="Path_60626" data-name="Path 60626" d="M811.926,476.735q-7.206-7.161-14.381-14.352a1.175,1.175,0,0,0-1.661,1.661q7.206,7.161,14.381,14.352A1.175,1.175,0,0,0,811.926,476.735Z" transform="translate(-643.885 -450.016)" fill="#f674b4"/>
      <path id="Path_60627" data-name="Path 60627" d="M1152.224,421.88c-2.817,3.262-5.634,6.494-8.451,9.756-1.008,1.156.712,2.817,1.69,1.661,2.817-3.262,5.634-6.494,8.451-9.756C1154.922,422.413,1153.2,420.723,1152.224,421.88Z" transform="translate(-888.643 -421.492)" fill="#7baeed"/>
      <path id="Path_60628" data-name="Path 60628" d="M1208.2,481.22c-7,3.173-13.966,6.375-20.964,9.548-1.394.652-.178,2.669,1.216,2.046,7-3.173,13.966-6.375,20.964-9.548C1210.841,482.614,1209.625,480.6,1208.2,481.22Z" transform="translate(-919.001 -463.426)" fill="#f674b4"/>
      <path id="Path_60630" data-name="Path 60630" d="M810.5,1147.2l3.469,10.349,9.933-7.917Z" transform="translate(-746.06 -951.649)" fill="#f674b4"/>
      <path id="Path_60634" data-name="Path 60634" d="M380.825,635.657c-.652,4.566-1.3,9.1-1.957,13.67-.208,1.483,2.046,2.135,2.283.623.652-4.567,1.3-9.1,1.957-13.67C383.316,634.8,381.033,634.145,380.825,635.657Z" transform="translate(-235.757 -551.838)" fill="#ffcb56"/>
      <path id="Path_60635" data-name="Path 60635" d="M1634.942,555.787c-.237-1.483-2.52-.86-2.283.623q.489,2.935.978,5.871c.237,1.483,2.521.86,2.283-.623Q1635.431,558.723,1634.942,555.787Z" transform="translate(-1375.738 -476.077)" fill="#7baeed"/>
      <path id="Path_60636" data-name="Path 60636" d="M1776.443,752.49c-3.588.326-7.176.652-10.734.979-1.512.148-1.512,2.491,0,2.343,3.588-.326,7.176-.652,10.734-.979C1777.926,754.714,1777.956,752.371,1776.443,752.49Z" transform="translate(-1496.954 -651.177)" fill="#7baeed"/>
      <path id="Path_60637" data-name="Path 60637" d="M314.659,697.018c-1.957-1.3-3.914-2.609-5.871-3.884-1.275-.83-2.461,1.186-1.186,2.046,1.957,1.3,3.914,2.609,5.871,3.884C314.748,699.895,315.934,697.849,314.659,697.018Z" transform="translate(-181.508 -591.457)" fill="#ffcb56"/>
      <path id="Path_60638" data-name="Path 60638" d="M523.48,528.3a200.106,200.106,0,0,0-86.734,49.253c-1.1,1.067.563,2.728,1.661,1.661a198.08,198.08,0,0,1,85.7-48.63A1.185,1.185,0,0,0,523.48,528.3Z" transform="translate(-391.23 -496.594)" fill="#7baeed"/>
      <path id="Path_60639" data-name="Path 60639" d="M1411.914,512.854a104.072,104.072,0,0,0-43.2-21.943c-1.483-.356-2.105,1.927-.623,2.283a101.488,101.488,0,0,1,42.136,21.32C1411.38,515.493,1413.07,513.832,1411.914,512.854Z" transform="translate(-1046.061 -470.3)" fill="#7baeed"/>
    </g>
    <g id="Question" transform="translate(519.894 388.3)">
      <path id="Path_60677" data-name="Path 60677" d="M978.823,346.755c-5.4-5.249-17.109-10.319-42.284-4.655a1.184,1.184,0,0,0-.682,1.839l5.041,6.909a1.14,1.14,0,0,0,1.275.445c10.7-3.2,19.838-2.817,25.738,1.068A14.222,14.222,0,0,1,974.257,363c1.364,11.624-20.757,14.767-20.964,14.8a1.188,1.188,0,0,0-1.008,1.216l.978,19.689a1.2,1.2,0,0,0,1.186,1.127h4.3a1.188,1.188,0,0,0,.86-.356,1.161,1.161,0,0,0,.326-.86l-.445-14.085c4.448-.978,21.943-5.575,24.552-18.918C985.465,358.142,983.627,351.44,978.823,346.755Z" transform="translate(-935.628 -339.613)" fill="#8f9ecc"/>
      <path id="Path_60678" data-name="Path 60678" d="M995.665,556.6h-5.9a1.178,1.178,0,0,0-1.156.919l-1.661,7.413a1.243,1.243,0,0,0,.178.919,1.22,1.22,0,0,0,.8.5l7.532,1.156h.178a1.1,1.1,0,0,0,.771-.3,1.2,1.2,0,0,0,.415-.89v-8.57A1.139,1.139,0,0,0,995.665,556.6Z" transform="translate(-971.714 -492.258)" fill="#8f9ecc"/>
    </g>
  </g>
</svg>
