<svg xmlns="http://www.w3.org/2000/svg" xmlns:xlink="http://www.w3.org/1999/xlink" width="317" height="489" viewBox="0 0 317 489">
  <defs>
    <clipPath id="clip-path">
      <rect id="Rectangle_7083" data-name="Rectangle 7083" width="317" height="489" rx="158.5" transform="translate(0.018 0.019)" fill="#d9dbf1"/>
    </clipPath>
  </defs>
  <g id="Mask_Group_7306" data-name="Mask Group 7306" transform="translate(-0.018 -0.019)" clip-path="url(#clip-path)">
    <g id="_29" data-name="29" transform="translate(-134.227 -65.185)">
      <g id="Objects" transform="translate(0 0)">
        <path id="Path_60697" data-name="Path 60697" d="M481.136,270.114l-149.011-1.332,11.824,86.35,141.517,1.5" transform="translate(59.533 61.307)" fill="#fed6c2"/>
        <path id="Path_60698" data-name="Path 60698" d="M305.36,311.945a215.617,215.617,0,0,1-3.331,25.814c-.458,14.78-1.249,29.519-3.039,44.258a4.553,4.553,0,0,1-.666,1.915,92.654,92.654,0,0,1-7.869,26.854c-7.369,15.2-21.109,23.69-36.555,27.1a4.03,4.03,0,0,1,1.624,3.372c12.241.5,55.916,31.309,88.307,86.475,6.287-14.78,14.739-29.352,25.772-39.47,12.116-11.116,27.687-14.114,41.135-3.164,3.955,3.206,3.289,6.786-.874,5.329a29.722,29.722,0,0,1-.749,3.206c.833,2.248.167,4.913-2.831,5.371-7.7,1.249-14.739,3.789-19.735,8.951a53.325,53.325,0,0,0-2.373,12.948c.042,0,.083,0,.083.042,6.953,3.289,15.655,1.457,23.024,1.332,3.747-.083,67.906-13.531,69.738-10.325,3.664,6.412-1.624,10.992-5.288,16.071,2.415,5.954.541,12.7-2.789,19.069a12.181,12.181,0,0,1-8.66,14.822H460.2c-1.041,3.206-4.288,14.447-8.827,14.531-4.455.125-297.4-6.578-297.4-6.578-4.538,0-3.123-52.21-3.123-63.368,0-14.239-9.826-159.253-3.248-250.683,2.914-40.219,29.436-39.22,55.749-43.342L114.881,126l3,105.336c-.042,0-.042,0,0,.042l2.332,83.02v.125l1.083,37.346,3.039,107.917,3.581,127.486L600.8,600.349Z" transform="translate(-80.199 -30.527)" fill="#d4c2fc"/>
        <path id="Path_60699" data-name="Path 60699" d="M442.273,226.935c-3.5,4.372-6.995,8.785-10.534,13.157-1.416,1.79,1.082,4.288,2.5,2.5,3.5-4.372,6.995-8.785,10.534-13.157C446.229,227.684,443.731,225.145,442.273,226.935Z" transform="translate(123.335 33.998)" fill="#ffcb56"/>
        <path id="Path_60700" data-name="Path 60700" d="M110.595,247.954l-16.82,20.193,21.067,4.163Z" transform="translate(-93.774 47.911)" fill="#f674b4"/>
        <path id="Path_60701" data-name="Path 60701" d="M334.33,75.364l4.413,24.481,22.816-4.039-5.746-24.481Z" transform="translate(60.951 -65.697)" fill="#ffcb56"/>
        <path id="Path_60702" data-name="Path 60702" d="M338.15,91.14c-7.036-7.578-14.031-15.113-21.067-22.691-1.54-1.665-4.08.833-2.5,2.5,7.036,7.578,14.031,15.113,21.067,22.691C337.234,95.3,339.732,92.805,338.15,91.14Z" transform="translate(47.929 -67.9)" fill="#f674b4"/>
        <path id="Path_60703" data-name="Path 60703" d="M337.48,302.232a79.049,79.049,0,0,0-100.756,47.547c-.791,2.165,2.665,3.081,3.414.958,14.406-39.178,57.04-58.872,96.385-45.091C338.73,306.437,339.646,302.982,337.48,302.232Z" transform="translate(-1.904 79.9)" fill="#ffcb56"/>
        <path id="Path_60704" data-name="Path 60704" d="M310.1,322.9a47.048,47.048,0,0,0-49.42,21.733c-1.207,1.957,1.874,3.747,3.081,1.79a43.381,43.381,0,0,1,45.382-20.11C311.391,326.726,312.348,323.312,310.1,322.9Z" transform="translate(13.402 95.542)" fill="#ffcb56"/>
        <path id="Path_60705" data-name="Path 60705" d="M351.421,216.327c-3.539,4.5-7.078,9.035-10.575,13.531-1.374,1.79,1.124,4.33,2.5,2.5,3.539-4.5,7.078-9.035,10.575-13.531C355.335,217.035,352.837,214.5,351.421,216.327Z" transform="translate(64.885 27.161)" fill="#7baeed"/>
        <path id="Path_60706" data-name="Path 60706" d="M358.43,226.258c-3.955,2.207-7.869,4.455-11.824,6.662-2,1.124-.208,4.205,1.79,3.081,3.955-2.207,7.869-4.455,11.824-6.662C362.218,228.215,360.428,225.134,358.43,226.258Z" transform="translate(68.285 33.8)" fill="#7baeed"/>
      </g>
      <g id="Frame" transform="translate(20.193 26.904)">
        <path id="Path_60707" data-name="Path 60707" d="M615.675,597.12h-.042L142.745,584.047A1.817,1.817,0,0,1,141,582.3L131,226.612a1.015,1.015,0,0,1,0-.5l-3-105.045a1.77,1.77,0,0,1,1.707-1.832l412.642-12.615a1.871,1.871,0,0,1,1.832,1.5l73.277,486.919a1.843,1.843,0,0,1-.416,1.457A2.006,2.006,0,0,1,615.675,597.12ZM144.535,580.549,613.593,593.5,540.857,110.243l-409.27,12.532,2.956,103.546v.083Z" transform="translate(-91.95 -69.899)" fill="#000200"/>
        <path id="Path_60708" data-name="Path 60708" d="M549.636,527.708a1.763,1.763,0,0,1-1.249-.5L231.213,217.571a1.767,1.767,0,0,1,2.456-2.54l317.174,309.6a1.772,1.772,0,0,1,.042,2.5A1.687,1.687,0,0,1,549.636,527.708Z" transform="translate(-25.912 -0.487)" fill="#000200"/>
        <path id="Path_60709" data-name="Path 60709" d="M207.568,193.76a1.763,1.763,0,0,1-1.249-.5l-77.774-75.9a1.767,1.767,0,1,1,2.456-2.54l77.774,75.942a1.729,1.729,0,0,1-1.207,3Z" transform="translate(-91.948 -64.942)" fill="#000200"/>
        <path id="Path_60710" data-name="Path 60710" d="M162.645,443.639H107.853a1.777,1.777,0,0,1-1.79-1.79V397.133a1.79,1.79,0,0,1,3.581,0v42.926h53.043a1.777,1.777,0,0,1,1.79,1.79A1.84,1.84,0,0,1,162.645,443.639Z" transform="translate(-106.063 115.808)" fill="#000200"/>
        <path id="Path_60711" data-name="Path 60711" d="M416.647,124.534a1.752,1.752,0,0,1-1.749-1.54l-5.038-35.14h-37.3a1.79,1.79,0,0,1,0-3.581H411.4a1.788,1.788,0,0,1,1.749,1.54l5.246,36.68a1.779,1.779,0,0,1-1.5,2A.529.529,0,0,1,416.647,124.534Z" transform="translate(64.194 -84.273)" fill="#000200"/>
      </g>
      <g id="Man" transform="translate(59.226 152.637)">
        <g id="Body_1_" transform="translate(8.237 254.708)">
          <path id="Path_60712" data-name="Path 60712" d="M331.165,410.284a1.791,1.791,0,0,1-1.582-.958c-30.019-57.248-60.787-75.192-85.976-88.682l7.661,68.323a1.768,1.768,0,0,1-.708,1.624,1.877,1.877,0,0,1-1.749.25l-26.48-10.617-17.986,26.063a1.781,1.781,0,0,1-2.581.375l-64.492-52.876c-.749-.625-2.956-3.83-2.332-4.58s3.83,1.207,4.58,1.832l62.993,51.669,17.695-25.647a1.7,1.7,0,0,1,2.123-.625l25.022,10.034-7.7-68.7a1.742,1.742,0,0,1,.749-1.665,1.714,1.714,0,0,1,1.832-.083c26.147,13.906,58.705,31.226,90.431,91.722a1.788,1.788,0,0,1-.749,2.415A3.1,3.1,0,0,1,331.165,410.284Z" transform="translate(-134.831 -315.797)" fill="#000200"/>
          <path id="Path_60713" data-name="Path 60713" d="M203.657,428.573a1.805,1.805,0,0,1-1.79-1.624L197.12,369.7l-10.2-14.322a1.791,1.791,0,1,1,2.914-2.082l10.492,14.7a2.243,2.243,0,0,1,.333.874l4.788,57.747a1.776,1.776,0,0,1-1.624,1.915C203.781,428.573,203.74,428.573,203.657,428.573Z" transform="translate(-101.541 -292.159)" fill="#000200"/>
          <path id="Path_60714" data-name="Path 60714" d="M235.3,414.387a1.788,1.788,0,0,1-1.749-1.541l-4.871-36.222a1.78,1.78,0,0,1,1.541-2,1.751,1.751,0,0,1,2,1.54l4.871,36.222a1.78,1.78,0,0,1-1.54,2Z" transform="translate(-74.477 -277.974)" fill="#000200"/>
        </g>
        <g id="Head_1_">
          <path id="Path_60715" data-name="Path 60715" d="M146.094,256.874a47.265,47.265,0,0,1-12.948-1.624,1.779,1.779,0,1,1,1-3.414,44.725,44.725,0,0,0,12.366,1.5,1.693,1.693,0,0,1,1.79,1.749,1.768,1.768,0,0,1-1.749,1.79Z" transform="translate(-128.504 -102.28)" fill="#000200"/>
          <path id="Path_60716" data-name="Path 60716" d="M222.417,378.744a1.747,1.747,0,0,1-1-.291l-86.892-57.747a1.773,1.773,0,1,1,1.957-2.956l84.644,56.29,5.787-31.934A1.8,1.8,0,0,1,229,340.69a1.743,1.743,0,0,1,1.416,2.082l-6.245,34.557a1.887,1.887,0,0,1-1.041,1.332C222.875,378.661,222.667,378.744,222.417,378.744Z" transform="translate(-127.303 -60.026)" fill="#000200"/>
          <path id="Path_60717" data-name="Path 60717" d="M133.012,233.345a1.774,1.774,0,0,1-1.707-1.291,1.755,1.755,0,0,1,1.207-2.207c7.328-2.123,16.779-2.748,28.187-1.79a1.775,1.775,0,1,1-.291,3.539c-10.95-.916-19.985-.375-26.9,1.624A.751.751,0,0,1,133.012,233.345Z" transform="translate(-128.912 -117.804)" fill="#000200"/>
          <path id="Path_60718" data-name="Path 60718" d="M212.039,277.43h-1.124a1.768,1.768,0,0,1-1.707-1.832,1.885,1.885,0,0,1,1.832-1.707c5.746.208,10.409-1.207,12.782-3.789a6.869,6.869,0,0,0,1.624-5.87c-.749-5.621-11.991-8.41-16.238-9.035a1.8,1.8,0,0,1-1.54-1.832l.874-26.23a1.788,1.788,0,0,1,1.79-1.707h.042a1.768,1.768,0,0,1,1.707,1.832l-.833,24.648c4.58.874,16.612,3.872,17.695,11.824a10.493,10.493,0,0,1-2.54,8.743C223.53,275.64,218.326,277.43,212.039,277.43Z" transform="translate(-79.745 -119.214)" fill="#000200"/>
          <path id="Path_60719" data-name="Path 60719" d="M196.318,228.275l-1.041,5.621c-1.374,7.244-12.615,5.163-11.283-2.123l1.041-5.621C186.409,218.907,197.692,220.988,196.318,228.275Z" transform="translate(-95.042 -121.644)" fill="#000200"/>
          <path id="Path_60720" data-name="Path 60720" d="M229.561,231.655l-1.041,5.621c-1.374,7.244-12.615,5.163-11.283-2.082l1.041-5.621C219.652,222.329,230.935,224.41,229.561,231.655Z" transform="translate(-73.66 -119.445)" fill="#000200"/>
          <path id="Path_60721" data-name="Path 60721" d="M192.09,207.891a69.971,69.971,0,0,0-13.531,3.664c-3.414,1.332-.666,6.37,2.706,5.038a63.941,63.941,0,0,1,12.116-3.123C197.045,212.8,195.713,207.225,192.09,207.891Z" transform="translate(-99.475 -130.53)" fill="#000200"/>
          <path id="Path_60722" data-name="Path 60722" d="M231.33,213.953c-2.831-2.04-6.079-3.622-8.743-5.871-2.79-2.373-6.995,1.541-4.163,3.914,3.081,2.623,6.62,4.455,9.867,6.828C231.288,220.947,234.328,216.076,231.33,213.953Z" transform="translate(-73.431 -130.845)" fill="#000200"/>
          <path id="Path_60723" data-name="Path 60723" d="M193.473,277.013c-4.247-.791-9.867-2.956-10.034-8.077-.083-3.664-5.829-3.872-5.746-.208.208,7.827,6.911,12.365,14.031,13.74C195.388,283.175,197.095,277.721,193.473,277.013Z" transform="translate(-99.025 -93.066)" fill="#000200"/>
          <path id="Path_60724" data-name="Path 60724" d="M213.982,160.919c-41.885-1.374-69.28,8.2-83.728,29.394a1.078,1.078,0,0,0-.291.458,1.885,1.885,0,0,0,.333,1.957,1.8,1.8,0,0,0,1.374.583l2.248,81.271v.125a45.852,45.852,0,0,1,15.28-.291,71.943,71.943,0,0,1,14.031-1.374c9.909-25.772,4.247-58.955,25.356-65.866,16.071-5.288,85.976-5.787,103.338,6.953a87.465,87.465,0,0,1,1.249,16.612q-.25,14.426-.416,27.729c-1.207,84.477-1.915,135.438-30.685,150.8-24.523,13.073-67.615,8.993-68.073,8.951a1.866,1.866,0,0,0-1.582.666,1.729,1.729,0,0,0-.291,1.665c6.495,19.194,37.471,24.19,38.8,24.4.083,0,.167.042.291.042a1.782,1.782,0,0,0,1.749-1.416l4.247-21.567a1.934,1.934,0,0,0-.291-1.374c9.451-1.457,18.985-4,26.854-8.16,30.643-16.362,31.351-68.114,32.558-153.882q.187-13.365.416-27.729C297.5,185.65,270.438,162.834,213.982,160.919Z" transform="translate(-129.818 -160.79)" fill="#000200"/>
          <path id="Path_60725" data-name="Path 60725" d="M144.917,253.781l-12.2.208,1.082,27.021A74.3,74.3,0,0,0,144.917,253.781Z" transform="translate(-127.952 -100.978)" fill="#000200"/>
        </g>
        <g id="Hand_1_" transform="translate(184.89 286.285)">
          <path id="Path_60726" data-name="Path 60726" d="M244.115,439.635a1.885,1.885,0,0,1-.666-.125,1.831,1.831,0,0,1-1-2.332c1.749-4.33,3.5-8.7,5.2-13.032,15.4-38.762,29.935-75.4,51.835-83.728,7.786-2.956,16.279-2.207,25.147,2.248a1.769,1.769,0,0,1-1.582,3.164c-8.077-4.039-15.363-4.746-22.316-2.123-20.443,7.786-34.682,43.717-49.8,81.729-1.707,4.33-3.456,8.66-5.2,13.032A1.684,1.684,0,0,1,244.115,439.635Z" transform="translate(-242.336 -332.675)" fill="#000200"/>
          <path id="Path_60727" data-name="Path 60727" d="M315.994,396.136a11.306,11.306,0,0,1-1.207-.042,1.773,1.773,0,1,1,.208-3.539c9.118.541,42.218-7.453,51.336-12.49,6.87-3.83,8.369-9.784,6.786-12.657-1.249-2.248-4.455-2.332-8.369-.208-14.489,7.952-68.156,11.533-80.314,11.533-3.539,0-5.246-1.749-6.037-3.206-1.79-3.289-.791-8.785,2.581-13.948,3.914-6.037,9.451-9.409,14.739-8.993a1.776,1.776,0,0,1,1.624,1.915,1.748,1.748,0,0,1-1.915,1.624c-4.7-.333-8.993,3.581-11.491,7.369-2.54,3.914-3.581,8.244-2.456,10.325.167.333.749,1.332,2.914,1.332,11.574,0,64.909-3.581,78.607-11.075,6.995-3.83,11.45-1.54,13.2,1.582,2.623,4.788.25,12.824-8.16,17.487C358.795,388.309,327.069,396.136,315.994,396.136Z" transform="translate(-219.704 -323.733)" fill="#000200"/>
          <path id="Path_60728" data-name="Path 60728" d="M300.571,405.767a1.826,1.826,0,0,1-1.707-1.249,1.776,1.776,0,0,1,1.166-2.248,156.229,156.229,0,0,1,15.238-3.622c18.736-3.789,39.969-8.077,36.555-27.437a1.8,1.8,0,0,1,3.539-.625c4.039,22.774-20.026,27.646-39.345,31.559-5.5,1.124-10.659,2.165-14.864,3.5A1.637,1.637,0,0,1,300.571,405.767Z" transform="translate(-206.029 -313.088)" fill="#000200"/>
          <path id="Path_60729" data-name="Path 60729" d="M299.152,414.458a1.826,1.826,0,0,1-1.707-1.249,1.793,1.793,0,0,1,1.166-2.248,156.211,156.211,0,0,1,15.238-3.622c18.736-3.789,39.969-8.077,36.555-27.437a1.8,1.8,0,0,1,3.539-.625c4.039,22.774-20.026,27.646-39.345,31.517-5.5,1.124-10.659,2.165-14.864,3.5A1.041,1.041,0,0,1,299.152,414.458Z" transform="translate(-206.942 -307.498)" fill="#000200"/>
          <path id="Path_60730" data-name="Path 60730" d="M319.015,409.844a1.826,1.826,0,0,1-1.707-1.249,1.764,1.764,0,0,1,1.166-2.207,14.8,14.8,0,0,0,10.076-14.322,1.79,1.79,0,0,1,3.581,0c0,13.781-12.491,17.695-12.615,17.736C319.349,409.8,319.182,409.844,319.015,409.844Z" transform="translate(-194.164 -299.47)" fill="#000200"/>
          <path id="Path_60731" data-name="Path 60731" d="M377.064,335.722a1.755,1.755,0,0,0-1.416-.708H300.206A1.786,1.786,0,0,0,298.5,336.3L283.885,387.64a1.777,1.777,0,0,0,.333,1.624,1.757,1.757,0,0,0,1.374.666h.125l34.265-2.665,44.091-10.034a1.664,1.664,0,0,0,1.291-1.207L377.4,337.345A2.2,2.2,0,0,0,377.064,335.722Z" transform="translate(-215.657 -335.014)" fill="#000200"/>
        </g>
      </g>
      <g id="Woman" transform="translate(299.903 64.886)">
        <g id="Head" transform="translate(0 0)">
          <path id="Path_60732" data-name="Path 60732" d="M286.416,110.916l26.9-.874c-12.032,5.829-22.566,9.909-25.772,9.7A34.906,34.906,0,0,1,286.416,110.916Z" transform="translate(-269.769 -105.681)" fill="#000200"/>
          <path id="Path_60733" data-name="Path 60733" d="M317.635,160.926a9.309,9.309,0,0,1-4.08-.874,7.187,7.187,0,0,1-3.789-4.913c-1.207-4.955,4.538-9.409,7.328-11.241l-5.87-13.531a1.771,1.771,0,1,1,3.247-1.416l6.453,14.947a1.759,1.759,0,0,1-.749,2.248c-2.581,1.457-7.7,5.413-6.995,8.16a3.685,3.685,0,0,0,1.915,2.581c1.749.874,4.621.583,7.661-.708a1.757,1.757,0,0,1,2.332.916,1.792,1.792,0,0,1-.916,2.332A16.457,16.457,0,0,1,317.635,160.926Z" transform="translate(-254.857 -94.196)" fill="#000200"/>
          <path id="Path_60734" data-name="Path 60734" d="M307.141,130.844l1.416,3.247c1.832,4.205-4.7,7.036-6.537,2.831l-1.416-3.248C298.772,129.47,305.309,126.639,307.141,130.844Z" transform="translate(-260.85 -93.633)" fill="#000200"/>
          <path id="Path_60735" data-name="Path 60735" d="M331.744,128.259l1.416,3.247c1.832,4.205-4.7,7.036-6.537,2.831l-1.416-3.248C323.375,126.885,329.912,124.054,331.744,128.259Z" transform="translate(-245.025 -95.296)" fill="#000200"/>
          <path id="Path_60736" data-name="Path 60736" d="M322.813,117.156a43.108,43.108,0,0,1,8.66-.958c2.29,0,1.832,3.539-.416,3.539a40.184,40.184,0,0,0-7.7.958C321.064,121.111,320.564,117.614,322.813,117.156Z" transform="translate(-247.294 -101.72)" fill="#000200"/>
          <path id="Path_60737" data-name="Path 60737" d="M295.682,123.405c1.582-1.5,3.456-2.706,4.913-4.33,1.54-1.665,4.413.375,2.873,2.082-1.707,1.832-3.747,3.248-5.537,5C296.306,127.735,294.058,124.988,295.682,123.405Z" transform="translate(-264.172 -100.268)" fill="#000200"/>
          <path id="Path_60738" data-name="Path 60738" d="M335.107,154.377c2.29-1.416,5.038-3.955,3.955-6.953-.791-2.123,2.5-3.581,3.248-1.416,1.665,4.58-1.207,8.7-5,11.117C335.4,158.374,333.15,155.584,335.107,154.377Z" transform="translate(-238.937 -83.234)" fill="#000200"/>
          <path id="Path_60739" data-name="Path 60739" d="M360.012,120.283a1.768,1.768,0,0,1-1.624-1.041l-4.039-9.368a1.792,1.792,0,0,1,.916-2.332,1.757,1.757,0,0,1,2.332.916l4,9.326a1.74,1.74,0,0,1-.874,2.332A1.368,1.368,0,0,1,360.012,120.283Z" transform="translate(-226.163 -107.387)" fill="#000200"/>
          <path id="Path_60740" data-name="Path 60740" d="M394.243,215.195a1.811,1.811,0,0,0-.874-1.457,1.777,1.777,0,0,0-1.707-.042c-.25.125-24.065,12.2-41.01,10.2-19.735-2.29-31.642-31.434-51.419-79.772-2.082-5.121-4.247-10.409-6.537-15.946a52.829,52.829,0,0,1-2.748-8.494,35.215,35.215,0,0,1-1.041-8.41,1.79,1.79,0,0,0-3.581,0,37.247,37.247,0,0,0,1.166,9.243,55.662,55.662,0,0,0,2.956,9.035c2.29,5.5,4.455,10.825,6.537,15.9C316.261,195,328.5,224.9,350.277,227.435a52.8,52.8,0,0,0,16.82-1.207,1.694,1.694,0,0,0,.541.791l16.987,14.447a1.745,1.745,0,0,0,1.166.416.617.617,0,0,0,.291-.042,1.805,1.805,0,0,0,1.249-.874C387.623,240.467,394.826,227.6,394.243,215.195Z" transform="translate(-270.47 -106.039)" fill="#000200"/>
          <path id="Path_60741" data-name="Path 60741" d="M414.089,107.71l-40.927,1.249-14.531.458-31.143.916c3.664,5.288,31.309,19.485,37.679,15.2h0l.375-.125c9.451-4.663,16.987-6.162,21.858-4.413a8.526,8.526,0,0,1,5.038,4.788,9.647,9.647,0,0,1,0,7.661c-1.582,3.789-5.454,6.953-11.2,9.16a1.688,1.688,0,0,0-.375.208h0c-14.614,9.451-8.2,36.43,9.951,44.174,11.616,4.955,23.94,3.039,34.807-2.581Z" transform="translate(-243.352 -107.18)" fill="#000200"/>
          <path id="Path_60742" data-name="Path 60742" d="M332.9,197.638a583.556,583.556,0,0,1-32.142-69.28c-.042-.167-.167-.25-.25-.375,1.166-1.332-.333-3.747-2.123-2.748-17.986,10.076-26.9,31.226-19.485,50.878,8.036,21.317,31.518,31.309,52.751,24.065A1.793,1.793,0,0,0,332.9,197.638Z" transform="translate(-276.286 -96.06)" fill="#000200"/>
          <path id="Path_60743" data-name="Path 60743" d="M360.879,215.62c-5.579,0-10.617-2.54-15.072-7.578a1.77,1.77,0,1,1,2.665-2.332C353.135,211,358.506,213,364.5,211.665c16.571-3.747,34.474-31.684,39.511-49.254a1.779,1.779,0,1,1,3.414,1c-5.371,18.861-24.023,47.672-42.134,51.752A23.029,23.029,0,0,1,360.879,215.62Z" transform="translate(-231.86 -72.824)" fill="#000200"/>
          <path id="Path_60744" data-name="Path 60744" d="M397.277,172.143a1.416,1.416,0,0,1-.416-.042l-10.7-2.581a1.786,1.786,0,0,1-1-.666l-9.618-12.49a1.782,1.782,0,0,1,2.831-2.165l9.2,11.991,10.076,2.456a1.775,1.775,0,0,1,1.291,2.165A1.693,1.693,0,0,1,397.277,172.143Z" transform="translate(-212.676 -77.726)" fill="#000200"/>
        </g>
        <g id="Hand" transform="translate(97.25 241.461)">
          <path id="Path_60745" data-name="Path 60745" d="M344.705,347.272a2.815,2.815,0,0,1-.583-.083c-7.2-2.5-5-9.7-1.416-21.608a233.629,233.629,0,0,0,6.537-25.522c3.747-19.443,20.859-51.169,93.928-44.924a1.775,1.775,0,1,1-.291,3.539c-52.043-4.455-84.1,10.492-90.139,42.051a229.9,229.9,0,0,1-6.662,25.9c-3.581,11.783-4.621,15.946-.833,17.237a1.764,1.764,0,0,1,1.083,2.248A1.662,1.662,0,0,1,344.705,347.272Z" transform="translate(-332.963 -254.333)" fill="#000200"/>
          <path id="Path_60746" data-name="Path 60746" d="M338.26,311.314a1.763,1.763,0,0,1-1.249-.5,6.2,6.2,0,0,1-1.54-4.5c-.083-5.038,3.456-14.7,20.817-32.059a1.766,1.766,0,1,1,2.5,2.5c-24.148,24.148-19.36,31.434-19.277,31.476a1.771,1.771,0,0,1,.042,2.5A1.576,1.576,0,0,1,338.26,311.314Z" transform="translate(-335.469 -241.858)" fill="#000200"/>
          <path id="Path_60747" data-name="Path 60747" d="M355.594,341.2a5.493,5.493,0,0,1-2.373-.583c-9.035-4.288-7.744-27.229,3.123-54.625a1.767,1.767,0,1,1,3.289,1.291c-10.825,27.271-10.95,47.214-4.913,50.087.833.416,1.166.167,1.332.083,1.749-1.082,2.748-6.578,2.873-9.951a1.79,1.79,0,0,1,1.832-1.707,1.768,1.768,0,0,1,1.707,1.832c-.042,1.707-.583,10.409-4.58,12.865A3.749,3.749,0,0,1,355.594,341.2Z" transform="translate(-327.906 -234.693)" fill="#000200"/>
          <path id="Path_60748" data-name="Path 60748" d="M363.258,339.676a6.09,6.09,0,0,1-4.039-1.749c-7.869-7.036-6.328-24.107,4.538-50.753a1.782,1.782,0,0,1,3.289,1.374c-13.448,32.892-9.2,43.383-5.454,46.714,1.166,1.041,1.79.874,2,.791,1.832-.583,3.706-5,4.372-7.786a1.835,1.835,0,0,1,2.165-1.332,1.776,1.776,0,0,1,1.291,2.165c-.375,1.5-2.373,8.993-6.787,10.367A4.541,4.541,0,0,1,363.258,339.676Z" transform="translate(-323.371 -233.913)" fill="#000200"/>
          <path id="Path_60749" data-name="Path 60749" d="M371.836,334.756c-2.248,0-4.663-1.749-7.369-5.246-2.165-2.831-7.869-13.989,9.867-39.553a1.767,1.767,0,0,1,2.914,2c-16.779,24.148-11.241,33.683-9.992,35.348,2.456,3.164,4.122,4.039,4.788,3.83.25-.083,2.456-1.082,2.914-11.783.291-6.7,7.2-20.151,13.906-24.731,6.87-4.7,22.857-2.5,49.962,3.247a1.8,1.8,0,0,1,1.374,2.123,1.832,1.832,0,0,1-2.123,1.374c-24.856-5.246-41.468-7.744-47.214-3.789-5.579,3.83-12.116,16.362-12.365,21.983-.375,9.2-2.082,13.989-5.371,15.03A6.858,6.858,0,0,1,371.836,334.756Z" transform="translate(-318.5 -231.908)" fill="#000200"/>
          <path id="Path_60750" data-name="Path 60750" d="M346.872,319.19a4.645,4.645,0,0,1-1.124-.125c-1.166-.291-3.289-1.332-4.08-5.163a1.764,1.764,0,0,1,3.456-.708c.291,1.374.791,2.248,1.416,2.415.791.167,2.456-.541,4.58-3.164a1.775,1.775,0,0,1,2.748,2.248C351.036,318.232,348.621,319.19,346.872,319.19Z" transform="translate(-331.508 -217.383)" fill="#000200"/>
        </g>
        <g id="Body" transform="translate(12.316 110.87)">
          <path id="Path_60751" data-name="Path 60751" d="M285.572,233.557a1.417,1.417,0,0,1-.416-.042,1.771,1.771,0,0,1-1.332-2.123c5.579-23.857,29.311-50.794,49.754-56.5.958-.25,1.249.958,2.207,1.249,2.873.833-.291,1.915-1.249,2.207-19.4,5.413-41.926,31.06-47.255,53.875A1.775,1.775,0,0,1,285.572,233.557Z" transform="translate(-283.781 -174.86)" fill="#000200"/>
          <path id="Path_60752" data-name="Path 60752" d="M402.038,332.967a110.86,110.86,0,0,1-22.941-2.623,1.788,1.788,0,1,1,.749-3.5c38.97,8.285,53.084-6.7,53.251-6.828a1.738,1.738,0,0,1,2.5-.125,1.776,1.776,0,0,1,.167,2.5C435.263,322.933,426.02,332.967,402.038,332.967Z" transform="translate(-223.383 -81.876)" fill="#000200"/>
        </g>
      </g>
      <g id="Laptop" transform="translate(222.241 225.252)">
        <path id="Path_60753" data-name="Path 60753" d="M430.416,412.447,363.884,207.021a1.83,1.83,0,0,0-1.665-1.249l-129.984-.791h0a1.805,1.805,0,0,0-1.79,1.624l-1.416,15.7a1.881,1.881,0,0,0,.541,1.457L427.5,414.321a1.763,1.763,0,0,0,1.249.5,1.62,1.62,0,0,0,.958-.291A1.837,1.837,0,0,0,430.416,412.447Z" transform="translate(-229.023 -204.981)" fill="#000200"/>
        <path id="Path_60754" data-name="Path 60754" d="M363.074,372.834a1.865,1.865,0,0,1-1.332-.583,1.771,1.771,0,0,1,.125-2.5l69.613-62.036-4.7-10.409-69.821,65.367a1.767,1.767,0,0,1-2.415-2.581l71.612-67.074a1.817,1.817,0,0,1,1.582-.458,1.869,1.869,0,0,1,1.291,1l6.245,13.864a1.728,1.728,0,0,1-.458,2.04L364.2,372.376A1.448,1.448,0,0,1,363.074,372.834Z" transform="translate(-148.65 -148.672)" fill="#000200"/>
      </g>
    </g>
  </g>
</svg>
