<svg xmlns="http://www.w3.org/2000/svg" width="21.766" height="19.323" viewBox="0 0 21.766 19.323">
  <path id="noun-headphone-4598927" d="M162.051,105a6.718,6.718,0,0,0-6.69,6.108h-.639a3.054,3.054,0,0,0-3.054,3.054v1.221a3.054,3.054,0,0,0,3.054,3.054h.745l.338,1.351a3.054,3.054,0,0,0,2.962,2.313h.334a1.833,1.833,0,0,0,1.728,1.221h2.443a1.832,1.832,0,1,0,0-3.665h-2.443a1.833,1.833,0,0,0-1.728,1.221h-.334a1.832,1.832,0,0,1-1.777-1.388l-.435-1.741v-6.032a5.5,5.5,0,0,1,10.994,0v6.108a.611.611,0,0,0,.611.611h1.221a3.054,3.054,0,0,0,3.054-3.054v-1.221a3.054,3.054,0,0,0-3.054-3.054h-.639a6.718,6.718,0,0,0-6.69-6.108Zm-6.718,7.329h-.611a1.832,1.832,0,0,0-1.832,1.832v1.221a1.832,1.832,0,0,0,1.832,1.832h.611Zm13.436,0v4.886h.611a1.832,1.832,0,0,0,1.832-1.832v-1.221a1.832,1.832,0,0,0-1.832-1.832Zm-8.55,9.161a.611.611,0,0,1,.611-.611h2.443a.611.611,0,0,1,0,1.222h-2.443A.611.611,0,0,1,160.219,121.49Z" transform="translate(-151.168 -104.5)" fill="#23022e" stroke="#23022e" stroke-width="1"/>
</svg>
