<svg xmlns="http://www.w3.org/2000/svg" width="303.823" height="291" viewBox="0 0 303.823 291">
  <g id="step_3" data-name="step 3" transform="translate(-732.588 -1771)">
    <circle id="Ellipse_870" data-name="Ellipse 870" cx="145.5" cy="145.5" r="145.5" transform="translate(739 1771)" fill="rgba(217,219,241,0.52)"/>
    <g id="_17" data-name="17" transform="translate(460.488 1467.353)">
      <g id="Objects" transform="translate(272.1 317.8)">
        <path id="Path_60479" data-name="Path 60479" d="M1005.593,888.342c4.024-1.1,7.76-3.408,11.38-5.622V867.2H882.9l7.452,156.909,126.621-2.484V940.831a94.927,94.927,0,0,1-11.515,1.367c-5.853,1.059-12.419,2.06-18.6,1.694a.709.709,0,0,1-.6.308c-2.157.1-4.583.1-6.527-.963a4.736,4.736,0,0,1-2.022-5.911c.944-2.657,4.121-4.005,6.566-4.949a47.554,47.554,0,0,1,8.761-2.234c1.386-.9,2.792-1.752,4.236-2.561,1.29-.866,2.677-1.771,4.1-2.638a34.032,34.032,0,0,1,11.9-6.874c.039-.712.077-1.367.1-1.964-.655-.173-1.29-.366-1.925-.6a17.48,17.48,0,0,1-5.141-3.312,1.893,1.893,0,0,1-1.945-.462c-2.657-3.062-5.045-5.8-8.9-6.97a20.339,20.339,0,0,1-4.043.193,1.158,1.158,0,0,1-.366-.116,12.038,12.038,0,0,0-5.353,6.2c-1.271,3.793-1.463,7.837-2.426,11.688-1.021,4.044-2.773,8.9-5.8,11.88-2.272,2.253-4.814,3.158-7.3.655-2.137-2.137.4-7.586-.424-9.916a40.38,40.38,0,0,1-11.688-3.216c-7.76-3.447-1.964-12.747,4.814-19.1,1.252-1.175,3.466-.6,4.66-1.56,1.945-1.56,3.37-3.928,4.525-4.563,4.063-2.233,4.718-1.117,7.317-1.983,3.081-1.021,5.584-6.046,8.838-6.585C994.078,887.379,999.643,889.959,1005.593,888.342Z" transform="translate(-765.291 -761.413)" fill="#d4c2fc"/>
        <path id="Path_60480" data-name="Path 60480" d="M1526.044,1413.03l-10.244-7.914L1539.7,1374v23.818Z" transform="translate(-1276.326 -1170.629)" fill="#7baeed"/>
        <path id="Path_60481" data-name="Path 60481" d="M1226.1,317.8l2.484,99.8h91.365l4.968-99.8Z" transform="translate(-1042.407 -317.8)" fill="#7baeed"/>
        <path id="Path_60482" data-name="Path 60482" d="M272.1,465.3l154.926.5v129.1l-150.959,2.484Z" transform="translate(-272.1 -436.899)" fill="#fed6c2"/>
        <path id="Path_60483" data-name="Path 60483" d="M1717.756,932.482a.79.79,0,0,1-.6-.27l-11.611-13a.818.818,0,1,1,1.213-1.1l10.821,12.111,14.075-27.381a.814.814,0,0,1,1.444.751l-14.615,28.42a.825.825,0,0,1-.616.443A.284.284,0,0,1,1717.756,932.482Z" transform="translate(-1429.374 -789.841)" fill="#ffcf58"/>
        <path id="Path_60484" data-name="Path 60484" d="M710.074,1359.051a.807.807,0,0,1-.539-.193l-8.934-7.721a.805.805,0,0,1,1.059-1.213l8.934,7.721a.782.782,0,0,1,.077,1.136A.761.761,0,0,1,710.074,1359.051Z" transform="translate(-617.862 -1151.02)" fill="#ffcf58"/>
        <path id="Path_60485" data-name="Path 60485" d="M701.2,1359.03a.785.785,0,0,1-.616-.289.815.815,0,0,1,.077-1.136l8.934-7.721a.805.805,0,1,1,1.059,1.213l-8.934,7.721A.67.67,0,0,1,701.2,1359.03Z" transform="translate(-617.922 -1150.999)" fill="#ffcf58"/>
        <path id="Path_60486" data-name="Path 60486" d="M805.288,594.758c2.946-3.119,5.873-6.239,8.819-9.358.712-.751-.4-1.925-1.136-1.155l-8.819,9.358C803.44,594.354,804.576,595.528,805.288,594.758Z" transform="translate(-701.523 -532.738)" fill="#7baeed"/>
        <path id="Path_60487" data-name="Path 60487" d="M1306.475,429.078c-2.08-2.214-4.178-4.429-6.258-6.643-.713-.77-1.868.385-1.155,1.155,2.079,2.214,4.178,4.429,6.258,6.643C1306.052,430.984,1307.207,429.829,1306.475,429.078Z" transform="translate(-1101.14 -402.082)" fill="#fff"/>
        <path id="Path_60488" data-name="Path 60488" d="M1283.438,483.23l-3.909-.347c-1.04-.1-1.04,1.54,0,1.617l3.909.347C1284.478,484.962,1284.478,483.326,1283.438,483.23Z" transform="translate(-1084.92 -451.093)" fill="#fff"/>
      </g>
      <g id="Frame_2" transform="translate(449.246 325.367)">
        <g id="Palm" transform="translate(20.209 7.36)">
          <path id="Path_60489" data-name="Path 60489" d="M1322.623,491.589l40.8.077c-.4-5.468-3.408-20.256-3.716-20.507-.789-4.987-10.012-45.48-14.326-56.475-1.983-5.045-4.005-10.07-7.221-14.461a11.9,11.9,0,0,0-3.562-.924c-.6.693-1.463,5.507-1.714,6.2-1.386-2.888-3.216-6.893-6.162-4.987-2.6,1.675-1.656,5.026-.866,8.183-.135.038-.27.1-.424.135a26.875,26.875,0,0,0-3.7-4.737c-1.271-1.425-4-.154-4.525,1.5-.173.558,4.294,18.2,4.91,20.276-.539.77-6.72-2.638-7.74-2.888a6.759,6.759,0,0,0-7.124,2.291c-1.829,2.214-3.774,4.66-4.236,7.471-.751,4.486,2.118,6.335,3.582,5.622l-.616,2.157c-1.271-.6-3.5,2.137-3.543,2.407a12.331,12.331,0,0,0,1.463,13.286c.154.173,7.394,8.78,12.034,12.439a81.62,81.62,0,0,1,4.12,7.529C1320.062,476.551,1321.738,488.1,1322.623,491.589Zm-2.773-43.9a4.917,4.917,0,0,1-2.542,3.62,4.1,4.1,0,0,1-5.3-1.309,3.6,3.6,0,0,1-1.54-1.733,31.39,31.39,0,0,1-1.059-3.716,11.749,11.749,0,0,0-1.483-3.37c-1.5-.982-1.213-3.735,1-3.678.828.077,1.1-1.521,1.656-2.349a4.7,4.7,0,0,1,2.542-1.964,4.96,4.96,0,0,1,5.334,1.829c2.387,3.119,2.387,8.26,1.714,11.957A1.732,1.732,0,0,1,1319.851,447.688Z" transform="translate(-1300.356 -398.535)" fill="#fff"/>
          <path id="Path_60490" data-name="Path 60490" d="M1319.458,588.893a.817.817,0,0,1-.809-.751c-.9-12-3.716-20.2-8.145-23.722-4.063-3.273-17-14.692-12.516-24.646,1.213-2.676,2.445-3.832,3.524-4.236a4.05,4.05,0,0,1-2.445-3.947c.038-2.6,1.367-7.837,4.718-10.86a7.949,7.949,0,0,1,6.181-2.157c7.375.6,10.109,5.3,10.205,5.488a.813.813,0,0,1-.308,1.1.841.841,0,0,1-1.117-.308c-.1-.173-2.445-4.14-8.915-4.679a6.46,6.46,0,0,0-4.968,1.752c-2.811,2.542-4.14,7.2-4.178,9.685a2.393,2.393,0,0,0,1.829,2.542c1.02.212,2.522-.308,3.389-2.426a5.415,5.415,0,0,1,5.584-3.581c1.637.25,5.507,1.829,6.47,11.341.52,5.122-1,7.3-2.349,8.222-1.579,1.078-3.851,1.059-6.084-.058-2-1.021-4.063-3.023-4.14-5.237-.1-2.58-1.367-5.16-2.677-5.411-.982-.173-2.176,1.059-3.235,3.427-3.177,7.067,4.14,16.367,12.054,22.7,4.852,3.87,7.8,12.246,8.742,24.877a.8.8,0,0,1-.751.866A.071.071,0,0,1,1319.458,588.893Zm-15.6-53.163c1.868,1.021,3.042,3.966,3.138,6.643.038,1.309,1.406,2.927,3.254,3.851,1.694.847,3.35.924,4.448.173,1.425-.982,1.983-3.293,1.656-6.72-.578-5.815-2.484-9.512-5.083-9.9a3.8,3.8,0,0,0-3.851,2.6A5.175,5.175,0,0,1,1303.862,535.73Z" transform="translate(-1297.056 -494.818)" fill="#000200"/>
          <path id="Path_60491" data-name="Path 60491" d="M1388.41,448.334a.8.8,0,0,1-.77-.558c-6.893-20.179-8.7-26.456-7.3-29.287a3.238,3.238,0,0,1,2-1.656c4.1-1.386,7.182,5.43,8.992,9.493l.135.289a.817.817,0,0,1-.4,1.078.834.834,0,0,1-1.078-.4l-.135-.289c-1.386-3.1-4.255-9.531-7.009-8.626a1.59,1.59,0,0,0-1.059.828c-1.175,2.388,1.483,10.783,7.375,28.035a.816.816,0,0,1-.5,1.04A.482.482,0,0,1,1388.41,448.334Z" transform="translate(-1363.948 -412.544)" fill="#000200"/>
          <path id="Path_60492" data-name="Path 60492" d="M1431.11,433.684a.8.8,0,0,1-.77-.558c-6.893-20.179-8.7-26.456-7.3-29.287a3.238,3.238,0,0,1,2-1.656c3.89-1.29,6.239,4.1,7.952,8.029l.481,1.078a.814.814,0,0,1-1.483.674l-.481-1.1c-1.386-3.177-3.466-7.972-5.95-7.144a1.59,1.59,0,0,0-1.059.828c-1.174,2.388,1.483,10.783,7.375,28.035a.816.816,0,0,1-.5,1.04A.756.756,0,0,1,1431.11,433.684Z" transform="translate(-1398.426 -400.705)" fill="#000200"/>
          <path id="Path_60493" data-name="Path 60493" d="M1494.908,489.4a.813.813,0,0,1-.809-.732c-3.081-31.867-15.924-72.457-19.1-80.505-4.2-10.571-6.624-11.553-7.7-11.168a1.59,1.59,0,0,0-1.059.828c-1.175,2.368,1.483,10.764,7.375,28.055a.816.816,0,0,1-1.541.539c-6.893-20.2-8.684-26.476-7.3-29.306a3.154,3.154,0,0,1,2-1.637c3.89-1.309,7.432,6.277,9.743,12.111,3.2,8.087,16.116,48.908,19.217,80.948a.818.818,0,0,1-.732.886A.174.174,0,0,0,1494.908,489.4Z" transform="translate(-1432.128 -395.326)" fill="#000200"/>
          <path id="Path_60494" data-name="Path 60494" d="M1429.887,672.519a14.781,14.781,0,0,0-15.057-11.842c-1.04.019-1.04,1.656,0,1.617a13.2,13.2,0,0,1,13.5,10.648C1428.54,673.963,1430.118,673.539,1429.887,672.519Z" transform="translate(-1391.523 -609.579)" fill="#000200"/>
        </g>
        <path id="Frame_2_" d="M1286.757,458.535h-91.365a.8.8,0,0,1-.809-.789l-2.484-99.818a.815.815,0,0,1,.231-.578.835.835,0,0,1,.578-.25h98.816a.845.845,0,0,1,.6.25.861.861,0,0,1,.231.6l-4.968,99.818A.852.852,0,0,1,1286.757,458.535Zm-90.575-1.617h89.805l4.891-98.181h-97.122Z" transform="translate(-1192.1 -357.1)" fill="#000200"/>
      </g>
      <g id="Frame_3" transform="translate(400.586 416.232)">
        <path id="Blank" d="M1330.848,895.2c-4.178,4.178-11.9,14-23.164,14.961s-13.074-.635-17.079.809-8.838,5.777-8.838,5.777a48.73,48.73,0,0,0-7.875,3.389,12.439,12.439,0,0,0-4.313,5.1s-3.658-.693-5.488,1.174a7.142,7.142,0,0,0-1.771,4.66s-4.352,2.1-4.833,5.95c-.481,3.87.058,8.164,4.178,8.684s4.024,2.734,6.277,2.407a12.372,12.372,0,0,0,4.236-1.579s-2.137,7.529-.52,9.146,4.66,2.58,6.912.635,8.049-13.671,10.456-24.454c.886-3.947,8.28-6.354,12.554-2.734s11.822,15.289,10.128,17.7c-1.675,2.407-20.757,6.1-24.126,7.721s-7.721,3.062-7.721,6.1-.578,6.373,9.358,5.834,29.73-1.829,32.791-3.909c3.062-2.1,8.857-6.1,8.857-6.1V895.2Z" transform="translate(-1196.118 -882.453)" fill="#fff"/>
        <path id="Frame_1_" d="M947.631,987.546a.82.82,0,0,1-.809-.77L939.39,829.847a.757.757,0,0,1,.231-.6.845.845,0,0,1,.6-.25h50.929a.809.809,0,1,1,0,1.617h-50.1L948.4,985.89l125.042-2.465V838.762a.809.809,0,0,1,1.618,0V984.253a.8.8,0,0,1-.79.809l-126.64,2.484Z" transform="translate(-939.387 -829)" fill="#000200"/>
        <g id="Text" transform="translate(4.566 16.753)">
          <path id="Path_60495" data-name="Path 60495" d="M967.476,1241.276a.918.918,0,0,1-.558-.212.819.819,0,0,1-.039-1.155l36.045-39.2a.839.839,0,0,1,1.155-.058.819.819,0,0,1,.039,1.155l-36.045,39.2A.854.854,0,0,1,967.476,1241.276Z" transform="translate(-965.974 -1145.676)" fill="#000200"/>
          <path id="Path_60496" data-name="Path 60496" d="M1226.913,937.974a.818.818,0,0,1-.6-1.367l18.215-20.333a.818.818,0,1,1,1.213,1.1L1227.529,937.7A.793.793,0,0,1,1226.913,937.974Z" transform="translate(-1175.464 -916.005)" fill="#000200"/>
          <path id="Path_60497" data-name="Path 60497" d="M963.909,1200.734a.816.816,0,0,1-.578-.231.838.838,0,0,1,0-1.155l9.839-9.916a.817.817,0,0,1,1.155,1.155l-9.839,9.916A.886.886,0,0,1,963.909,1200.734Z" transform="translate(-963.1 -1136.597)" fill="#000200"/>
          <path id="Path_60498" data-name="Path 60498" d="M1288.332,1435.693a.739.739,0,0,1-.481-.173.8.8,0,0,1-.154-1.136l22.817-30.134a.811.811,0,1,1,1.29.982l-22.817,30.134A.785.785,0,0,1,1288.332,1435.693Z" transform="translate(-1225.06 -1309.979)" fill="#000200"/>
          <path id="Path_60499" data-name="Path 60499" d="M991.148,1587.856a.85.85,0,0,1-.578-.231.8.8,0,0,1,0-1.156l13.44-13.709a.819.819,0,0,1,1.155-.019.8.8,0,0,1,0,1.155l-13.44,13.709A.835.835,0,0,1,991.148,1587.856Z" transform="translate(-985.083 -1446.102)" fill="#000200"/>
          <path id="Path_60500" data-name="Path 60500" d="M1255,1359a.787.787,0,0,1-.751-.52l-12.573-32.445a.817.817,0,0,1,1.521-.6l12.573,32.445a.825.825,0,0,1-.462,1.059A.959.959,0,0,1,1255,1359Z" transform="translate(-1187.996 -1246.189)" fill="#fff"/>
          <path id="Path_60501" data-name="Path 60501" d="M1166.7,1409.9a.813.813,0,0,1-.809-.732.8.8,0,0,1,.732-.886l41.206-4.313a.812.812,0,1,1,.154,1.617l-41.206,4.313Z" transform="translate(-1126.837 -1310.009)" fill="#fff"/>
          <path id="Path_60502" data-name="Path 60502" d="M1432.775,1422.467a.832.832,0,0,1-.5-.173.822.822,0,0,1-.154-1.136l39.222-51.084a.811.811,0,0,1,1.29.982l-39.222,51.083A.777.777,0,0,1,1432.775,1422.467Z" transform="translate(-1341.679 -1282.388)" fill="#000200"/>
        </g>
        <g id="Hand" transform="translate(58.338 11.865)">
          <path id="Path_60503" data-name="Path 60503" d="M1351.705,1030.2l-38.433,28.748a.822.822,0,0,1,.038,1.1c-1.964,2.465-5.622,8.357-9.3,5.834l-8.511,6.354,8.183,11.476,11.938-8.511c-6.72-.52-6.123-4.14-3.543-8.588,4.583-3.485,15.288-6.1,27.515-8.491L1360.832,1043Z" transform="translate(-1285.269 -1003.324)" fill="#fff"/>
          <path id="Path_60504" data-name="Path 60504" d="M1300.422,1232.011a.78.78,0,0,1-.655-.347l-8.183-11.476a.814.814,0,0,1,.173-1.117l8.087-6.046a.805.805,0,0,1,1.136.173.819.819,0,0,1-.154,1.136l-7.452,5.565,7.24,10.167,11.264-8.029a.815.815,0,1,1,.943,1.328l-11.938,8.511A.808.808,0,0,1,1300.422,1232.011Z" transform="translate(-1281.988 -1150.817)" fill="#000200"/>
          <path id="Path_60505" data-name="Path 60505" d="M1389.875,1055.627a.839.839,0,0,1-.655-.328.82.82,0,0,1,.154-1.136l37.374-27.958a.791.791,0,0,1,.616-.154.883.883,0,0,1,.539.327l9.127,12.8a.737.737,0,0,1,.135.6.792.792,0,0,1-.327.52l-20.468,14.6a.827.827,0,0,1-1.136-.193.809.809,0,0,1,.193-1.136l19.813-14.114L1427.075,1028l-36.719,27.458A.74.74,0,0,1,1389.875,1055.627Z" transform="translate(-1360.812 -999.964)" fill="#000200"/>
          <path id="Path_60506" data-name="Path 60506" d="M1593.216,1025.361a.328.328,0,0,1-.135-.019.792.792,0,0,1-.52-.327l-9.108-12.8a.809.809,0,0,1,.193-1.136l3.177-2.272a7.83,7.83,0,0,1,7.7-.789.829.829,0,0,1,.481.751v15.077a.8.8,0,0,1-.347.655l-.982.693A.608.608,0,0,1,1593.216,1025.361Zm-7.991-13.421,8.145,11.438v-14.056a6.172,6.172,0,0,0-5.622.809Z" transform="translate(-1517.652 -984.872)" fill="#000200"/>
          <path id="Path_60507" data-name="Path 60507" d="M1261.453,1256.115l-8.183-11.476a.8.8,0,0,0-.693-.347.769.769,0,0,0-.655.385l-3.1,5.045h0l-6.335,10.321a1.038,1.038,0,0,0-.1.212.832.832,0,0,0,.116.674.976.976,0,0,0,.462.327.655.655,0,0,0,.193.019h0a.533.533,0,0,0,.173-.019l10.956-2.426.847-.193h0l5.8-1.271a.8.8,0,0,0,.578-.5A.668.668,0,0,0,1261.453,1256.115Zm-6.1.828-4.872-6.835,2.176-3.543,6.758,9.473Z" transform="translate(-1242.365 -1176.191)" fill="#000200"/>
          <path id="Path_60508" data-name="Path 60508" d="M1375.524,1177.532c-4.236,0-7.355-.578-8.607-2.5-.9-1.386-.732-3.235.539-5.622,2.368-4.429,10.84-6.316,19.043-8.126,6.1-1.348,12.419-2.753,13.709-4.968a.816.816,0,1,1,1.406.828c-1.636,2.83-7.721,4.178-14.749,5.738-7.471,1.656-15.943,3.543-17.965,7.317-.963,1.791-1.155,3.119-.616,3.966,1.56,2.388,9.454,1.81,14.672,1.406,1.155-.077,2.426-.154,3.774-.25,10.224-.616,25.648-1.56,31.655-9.088a.809.809,0,1,1,1.271,1c-6.45,8.087-22.317,9.05-32.83,9.7-1.348.077-2.6.154-3.755.25C1380.319,1177.378,1377.777,1177.532,1375.524,1177.532Z" transform="translate(-1342.476 -1104.829)" fill="#000200"/>
          <path id="Path_60509" data-name="Path 60509" d="M1330.1,954.755a3.5,3.5,0,0,1-2-.6c-2.927-1.925-1.656-7.509.1-15.269.732-3.216,1.559-6.835,2.1-10.475,1.194-7.856,5.584-15.519,11.168-19.505a15.289,15.289,0,0,1,11.784-2.869c10.841,1.983,22.74-3.658,31.867-15.115a.809.809,0,0,1,1.271,1c-9.512,11.938-22.008,17.792-33.446,15.693a13.629,13.629,0,0,0-10.532,2.6c-5.257,3.736-9.377,10.975-10.513,18.427-.558,3.678-1.386,7.355-2.118,10.59-1.425,6.3-2.773,12.246-.789,13.555a2.475,2.475,0,0,0,2.234.116c3.273-1.155,7.413-6.643,9.223-12.246.789-2.445,1.29-4.66,1.733-6.624.982-4.332,1.752-7.74,4.891-9.955,1.868-1.328,4.794-1.54,7.837-.578,3.273,1.021,5.834,3.158,6.682,5.545a.81.81,0,0,1-1.521.558c-.693-1.926-2.85-3.678-5.642-4.544-2.522-.789-4.987-.655-6.412.347-2.619,1.868-3.292,4.852-4.236,8.992-.443,1.983-.963,4.255-1.771,6.758-2,6.219-6.412,11.919-10.224,13.267A4.607,4.607,0,0,1,1330.1,954.755Z" transform="translate(-1310.179 -890.621)" fill="#000200"/>
          <path id="Path_60510" data-name="Path 60510" d="M1303.769,1037.369a.878.878,0,0,1-.558-.212c-7.471-6.932-6.142-14.249-4.679-17.984,2.638-6.739,9.454-12.054,15.558-12.073h0a.809.809,0,1,1,0,1.617c-5.391.019-11.688,4.987-14.056,11.052-1.309,3.35-2.5,9.936,4.275,16.213a.82.82,0,0,1,.038,1.155A.754.754,0,0,1,1303.769,1037.369Z" transform="translate(-1286.799 -984.672)" fill="#000200"/>
          <path id="Path_60511" data-name="Path 60511" d="M1282.463,1067.43a5.943,5.943,0,0,1-4.294-1.849c-3.716-3.735-4.679-12.631-1.945-18.312,1.617-3.35,4.275-5.006,7.509-4.66a.8.8,0,0,1,.712.886.79.79,0,0,1-.886.713c-3.2-.347-4.948,1.848-5.873,3.755-2.426,5.045-1.617,13.209,1.637,16.463,1.56,1.56,3.485,1.791,5.757.712a.81.81,0,1,1,.693,1.463A7.573,7.573,0,0,1,1282.463,1067.43Z" transform="translate(-1268.438 -1013.308)" fill="#000200"/>
          <path id="Path_60512" data-name="Path 60512" d="M1260.208,1088.869h-.019c-6.3-.193-8.049-3.5-8.53-5.449-1.117-4.6,2.118-10.455,5.661-12.439a.806.806,0,0,1,.79,1.406c-2.965,1.656-5.8,6.874-4.872,10.629.635,2.638,3.062,4.1,6.99,4.217a.813.813,0,0,1,.789.828A.826.826,0,0,1,1260.208,1088.869Z" transform="translate(-1249.688 -1036.172)" fill="#000200"/>
          <path id="Path_60513" data-name="Path 60513" d="M1462.663,1083.982a.839.839,0,0,1-.674-.347.826.826,0,0,1,.193-1.136l20.179-14.21a.815.815,0,0,1,.943,1.328l-20.179,14.21A.881.881,0,0,1,1462.663,1083.982Z" transform="translate(-1419.582 -1033.961)" fill="#000200"/>
        </g>
      </g>
      <g id="Frame_1" transform="translate(280.415 355.636)">
        <g id="Hands" transform="translate(0 28.006)">
          <path id="Path_60514" data-name="Path 60514" d="M455.017,670.06A2.706,2.706,0,0,0,451.994,667c-15.847,2.33-31.752,2.773-46.52,7.895-13.979-9.262-37.278-12.843-78.5-9.165a2.555,2.555,0,0,0-1.771.809c.058,1.117.135,2.234.173,3.35.1,2.465-.019,4.929-.077,7.413-.019.847-.038,1.694-.058,2.523.308,5.411.558,10.821.655,16.27.058,3.447.115,6.893.231,10.34h0v.019c.019.578.038,1.175.077,1.752.077.6.154,1.175.231,1.771a.953.953,0,0,0-.077.25,2.926,2.926,0,0,0,1.54,3.312c1.386.732,2.85.25,4.2-.289.193-.077.4-.154.6-.231,2.715-.039,5.411-.058,8.126-.1.039.019.1.019.135.039q6.21,1.069,12.458,1.906a14.365,14.365,0,0,0,1.348,4.39c.1.732,3.312,4.275,4.872,5.391.578,1.906,3.235,3.254,5.314,4.082a.813.813,0,0,0,.135.1,3.132,3.132,0,0,0,.173.366,22.205,22.205,0,0,0,2.08,2.58,18.237,18.237,0,0,0,2.561,2.6,6.769,6.769,0,0,0,1.56,1.232,6.327,6.327,0,0,0,1.059,2.773c3,4.371,11.63-.019,12.246,0,.924.809,1.829,1.617,2.753,2.426,6.316,5.488,14.056,4.294,16.829-1.348,1.579.038,7.24-.4,8.491-1.444a4.763,4.763,0,0,0,1.791-3.774c.327-.289,4.891.019,6.393-1.521.982-1,1.54-3.6,1.444-4.891h0a.785.785,0,0,0,.327.231c1.117.347,6.373-1.155,7.471-2.522a7.332,7.332,0,0,0,.4-8.222,13.068,13.068,0,0,1,2.176-1c5.237-1.194,21.989-1.771,25.089-2.118h.058c.424-.424.866-.828,1.29-1.252a32.591,32.591,0,0,0,3.851-4.737Q459.513,689.026,455.017,670.06Z" transform="translate(-323.291 -663.426)" fill="#fff"/>
          <path id="Path_60515" data-name="Path 60515" d="M647.1,713.111h0c-6.8-.154-25.744-10.841-28.979-12.689-2.349,1.56-13.5,8.7-18.928,7.2-2.272-.616-3.524-1.694-3.716-3.177-.289-2.157,1.252-6.142,17.734-15.828,14.037-8.241,29.5-11.919,84.029-11.919a.809.809,0,0,1,0,1.617c-54.145,0-69.434,3.6-83.2,11.707-15.192,8.934-17.137,12.747-16.944,14.229.1.77.963,1.386,2.542,1.829,4.352,1.194,14.48-4.833,18-7.259a.826.826,0,0,1,.867-.039c.212.135,21.777,12.573,28.613,12.728a.813.813,0,0,1,.789.828A.794.794,0,0,1,647.1,713.111Z" transform="translate(-541.501 -673.436)" fill="#000200"/>
          <path id="Path_60516" data-name="Path 60516" d="M1009.119,664.9H981.7l5.045,55.223h22.374Z" transform="translate(-853.382 -663.908)" fill="#000200"/>
          <path id="Path_60517" data-name="Path 60517" d="M1005.716,717.541H983.341a.815.815,0,0,1-.809-.732l-5.045-55.223a.824.824,0,0,1,.809-.886h27.419a.814.814,0,0,1,.809.809v55.223A.814.814,0,0,1,1005.716,717.541ZM984.092,715.9h20.815V662.317H979.182Z" transform="translate(-849.978 -660.516)" fill="#000200"/>
          <path id="Path_60518" data-name="Path 60518" d="M396.678,671.906a.794.794,0,0,1-.52-.193c-5.218-4.313-19.967-11.4-60.018-10.224l-1.675.058c-5.969.212-12.131.6-18.292,1.117a.812.812,0,1,1-.154-1.617c6.181-.52,12.362-.9,18.389-1.117l1.675-.058c40.59-1.175,55.7,6.142,61.115,10.609a.8.8,0,0,1,.116,1.136A.852.852,0,0,1,396.678,671.906Z" transform="translate(-315.284 -659.746)" fill="#000200"/>
          <path id="Path_60519" data-name="Path 60519" d="M358.2,919.762a.918.918,0,0,1-.558-.212c-1.714-1.579-5.257-2.6-10.475-3.023-.558-.058-1.1-.1-1.694-.135a149.439,149.439,0,0,0-17.406.289.811.811,0,0,1-.116-1.617,148.412,148.412,0,0,1,17.6-.289c.616.038,1.194.077,1.752.135,5.642.462,9.4,1.579,11.418,3.447a.819.819,0,0,1,.039,1.155A.7.7,0,0,1,358.2,919.762Z" transform="translate(-324.902 -865.549)" fill="#000200"/>
          <path id="Path_60520" data-name="Path 60520" d="M775.532,854.084c-.077,0,.27-.058.27-.058-.443-.019-1.175-.347-1.155-.789a.827.827,0,0,1,.847-.77c.193,0,5.3.1,6.277-5.006,1.155-6.046-6.393-15.9-20.68-27.034a.809.809,0,0,1,1-1.271c15.019,11.688,22.567,21.854,21.277,28.613C782.233,853.8,776.379,854.084,775.532,854.084Z" transform="translate(-674.999 -788.318)" fill="#000200"/>
          <path id="Path_60521" data-name="Path 60521" d="M732.589,890.582H732.3a.83.83,0,0,1-.809-.828.844.844,0,0,1,.828-.809c3.524.077,5.584-.924,6.142-2.946,1.771-6.412-10.494-21.431-20.449-27.169a.816.816,0,0,1,.828-1.406c9.493,5.468,23.337,21.3,21.2,29.017C739.5,888.348,737.788,890.582,732.589,890.582Z" transform="translate(-640.143 -819.27)" fill="#000200"/>
          <path id="Path_60522" data-name="Path 60522" d="M697.314,923.132c-.693,0-1.425-.039-2.2-.1a.806.806,0,0,1-.732-.886.818.818,0,0,1,.886-.732c4.679.4,7.471-.462,8.26-2.58C705.748,913,694,898.639,685.3,892.17a.805.805,0,0,1-.173-1.136.826.826,0,0,1,1.136-.173c7.837,5.834,21.585,21.2,18.793,28.555C704.092,921.9,701.492,923.132,697.314,923.132Z" transform="translate(-613.783 -846.236)" fill="#000200"/>
          <path id="Path_60523" data-name="Path 60523" d="M648.115,954.593c-3.37,0-7.221-1.56-10.475-5.507a.807.807,0,1,1,1.252-1.021c4.255,5.141,9.57,5.757,12.959,4.063,2.465-1.232,3.639-3.447,3.081-5.8-1.155-4.852-8.145-13.132-17.792-21.123a.8.8,0,0,1-.116-1.136.818.818,0,0,1,1.136-.116c10.051,8.318,17.079,16.752,18.331,22.008.732,3.062-.809,6.065-3.947,7.625A9.93,9.93,0,0,1,648.115,954.593Z" transform="translate(-574.924 -872.941)" fill="#000200"/>
          <path id="Path_60524" data-name="Path 60524" d="M477.18,914.049a9.087,9.087,0,0,1-3.235-.578c-3.081-1.194-5.314-4.159-6.123-8.145a.816.816,0,1,1,1.6-.327c.693,3.427,2.561,5.95,5.122,6.951,3.042,1.175,6.855.173,11.014-2.888,3.37-2.484,4.91-4.814,4.121-6.258s-3.7-1.906-6.085-.982a94.023,94.023,0,0,0-11.437,5.776.816.816,0,1,1-.828-1.406,98.113,98.113,0,0,1,11.688-5.892c3.2-1.252,6.913-.462,8.106,1.714.732,1.329,1.1,4.159-4.6,8.337C482.706,913.163,479.587,914.049,477.18,914.049Z" transform="translate(-438.436 -853.501)" fill="#000200"/>
          <path id="Path_60525" data-name="Path 60525" d="M505,945.5a8.139,8.139,0,0,1-2.388-.347c-2.715-.789-4.929-2.985-6.393-6.354a.819.819,0,0,1,1.5-.655c.886,2.022,2.542,4.621,5.372,5.449,2.542.751,5.584-.039,9.031-2.349,4.621-3.081,5.045-4.987,4.891-5.834-.231-1.194-1.906-2.234-4.621-2.811a.808.808,0,0,1,.347-1.579c3.466.77,5.507,2.176,5.854,4.1.424,2.234-1.463,4.737-5.584,7.49A14.737,14.737,0,0,1,505,945.5Z" transform="translate(-461.328 -878.769)" fill="#000200"/>
          <path id="Path_60526" data-name="Path 60526" d="M536.5,972.626a7.581,7.581,0,0,1-1.829-.212c-2.754-.635-5.045-2.734-6.45-5.931a.819.819,0,0,1,1.5-.655c1.194,2.7,3.081,4.486,5.314,5.006,2.657.616,5.776-.5,9.011-3.235,2.6-2.2,3.851-4.371,3.466-5.969-.4-1.617-2.407-2.388-4.024-2.734a.8.8,0,0,1-.616-.963.809.809,0,0,1,.963-.616c3.736.828,4.929,2.6,5.257,3.928.558,2.253-.866,4.948-3.986,7.606C541.6,971.817,538.676,972.626,536.5,972.626Z" transform="translate(-487.166 -900.005)" fill="#000200"/>
          <path id="Path_60527" data-name="Path 60527" d="M562.4,1001.426a7.577,7.577,0,0,1-1.829-.212c-2.753-.635-5.045-2.734-6.45-5.931a.819.819,0,1,1,1.5-.655c1.194,2.7,3.081,4.486,5.334,5.006,2.657.616,5.776-.5,9.011-3.235,2.6-2.2,3.851-4.371,3.466-5.969-.4-1.617-2.407-2.388-4.024-2.734a.808.808,0,1,1,.347-1.579c3.735.828,4.91,2.6,5.257,3.928.558,2.253-.847,4.949-3.986,7.606C567.5,1000.617,564.576,1001.426,562.4,1001.426Z" transform="translate(-508.079 -923.26)" fill="#000200"/>
          <path id="Path_60528" data-name="Path 60528" d="M630.113,1025.9l-.039.019a60.056,60.056,0,0,1-6.874,5.488l9.839-2.1Z" transform="translate(-563.911 -955.397)" fill="#000200"/>
          <path id="Path_60529" data-name="Path 60529" d="M619.884,1028.833a.816.816,0,0,1-.751-.5.826.826,0,0,1,.308-1,63.337,63.337,0,0,0,6.778-5.43.891.891,0,0,1,.616-.212.819.819,0,0,1,.578.27l2.927,3.427a.787.787,0,0,1,.154.789.84.84,0,0,1-.6.539l-9.839,2.1A.533.533,0,0,1,619.884,1028.833Zm6.816-5.18c-1.021.9-2.118,1.849-3.293,2.792l4.794-1.021Z" transform="translate(-560.576 -951.996)" fill="#000200"/>
          <path id="Path_60530" data-name="Path 60530" d="M871.169,927.042a.829.829,0,0,1-.77-.539.816.816,0,0,1,.5-1.04c5.122-1.771,16.463-1.906,27.958-1.791a.818.818,0,0,1,0,1.637h0c-11.341-.116-22.509.019-27.4,1.714C871.362,927.022,871.266,927.042,871.169,927.042Z" transform="translate(-763.473 -872.828)" fill="#000200"/>
          <path id="Path_60531" data-name="Path 60531" d="M408.518,713.835c-.558-.058-1.1-.1-1.714-.135a104.062,104.062,0,0,1-1.483-49.042L407,664.6A102.658,102.658,0,0,0,408.518,713.835Z" transform="translate(-386.179 -663.665)" fill="#000200"/>
          <path id="Path_60532" data-name="Path 60532" d="M360.911,838.13c-.077,2.715-.154,5.43-.212,8.145a.809.809,0,0,0,1.617,0c.077-2.715.154-5.43.212-8.145C362.567,837.09,360.95,837.09,360.911,838.13Z" transform="translate(-351.954 -803.152)" fill="#000200"/>
        </g>
        <path id="Frame" d="M320.075,648.026a.81.81,0,0,1-.809-.789L315.3,515.147a.9.9,0,0,1,.231-.6.834.834,0,0,1,.578-.25h0l154.926.5a.814.814,0,0,1,.809.809v129.1a.8.8,0,0,1-.809.809l-150.959,2.5Zm-3.139-132.07,3.928,130.453,149.361-2.465V516.437Z" transform="translate(-315.297 -514.3)" fill="#000200"/>
      </g>
    </g>
  </g>
</svg>
