<svg xmlns="http://www.w3.org/2000/svg" width="321.299" height="291" viewBox="0 0 321.299 291">
  <g id="step_1" data-name="step 1" transform="translate(-64.849 -1771)">
    <circle id="Ellipse_868" data-name="Ellipse 868" cx="145.5" cy="145.5" r="145.5" transform="translate(80 1771)" fill="#ecedf4"/>
    <g id="_16" data-name="16" transform="translate(64.85 1804.844)">
      <g id="Objects" transform="translate(27.527 37.41)">
        <path id="Path_60427" data-name="Path 60427" d="M1126.9,926.7c92.961,19.671,119.713,80.676,122.679,138.58l-122.679-1.072Z" transform="translate(-1126.9 -879.378)" fill="#d4c2fc"/>
        <path id="Path_60428" data-name="Path 60428" d="M387.984,988.6l98.185-15.1-18.657,37.831H377Z" transform="translate(-219.992 -917.222)" fill="#7baeed"/>
        <path id="Path_60429" data-name="Path 60429" d="M279.6,1089.2c0,3.636,1.416,6.717,6.6,6.717a6.714,6.714,0,0,0,6.6-6.717,6.6,6.6,0,0,0-13.2,0Z" transform="translate(-7.988 -1005.445)" fill="#fed6c2"/>
        <path id="Path_60430" data-name="Path 60430" d="M258.6,686c0,3.636,1.416,6.717,6.6,6.717A6.714,6.714,0,0,0,271.8,686a6.6,6.6,0,0,0-13.2,0Z" transform="translate(17.03 -679.4)" fill="#7baeed"/>
      </g>
      <g id="Chair" transform="translate(0 122.237)">
        <path id="Path_60431" data-name="Path 60431" d="M1478.673,1173.094a.785.785,0,0,0,.593-.268.826.826,0,0,0,.191-.67l-8-45.562a.776.776,0,0,0-.746-.651l-92.751-3.253a.762.762,0,0,0-.612.268.784.784,0,0,0-.191.651l6.142,43.38a.815.815,0,0,0,.746.689l94.588,5.415Zm-8.668-45.581,7.712,43.935-92.942-5.32-5.932-41.811Z" transform="translate(-1377.149 -1122.689)" fill="#000200"/>
        <path id="Path_60432" data-name="Path 60432" d="M1509.786,1418.639h.077a.8.8,0,0,0,.727-.861l-4.114-47.877a.772.772,0,0,0-.861-.727.8.8,0,0,0-.727.861l4.114,47.877A.79.79,0,0,0,1509.786,1418.639Z" transform="translate(-1432.717 -1322.002)" fill="#000200"/>
        <path id="Path_60433" data-name="Path 60433" d="M1540.316,1417.12h.077a.791.791,0,0,0,.708-.861l-4.746-48.164a.78.78,0,0,0-.861-.708.791.791,0,0,0-.708.861l4.746,48.164A.762.762,0,0,0,1540.316,1417.12Z" transform="translate(-1468.95 -1320.56)" fill="#000200"/>
        <path id="Path_60434" data-name="Path 60434" d="M1742.7,1407.09h.077a.8.8,0,0,0,.727-.861l-4.325-49.714a.806.806,0,0,0-.861-.727.8.8,0,0,0-.727.861l4.325,49.714A.778.778,0,0,0,1742.7,1407.09Z" transform="translate(-1710.156 -1311.18)" fill="#000200"/>
        <path id="Path_60435" data-name="Path 60435" d="M1773.327,1407.093h.077a.791.791,0,0,0,.708-.861l-4.956-49.638a.788.788,0,1,0-1.569.153l4.956,49.638A.789.789,0,0,0,1773.327,1407.093Z" transform="translate(-1746.508 -1311.26)" fill="#000200"/>
      </g>
      <g id="Message_2" transform="translate(169.083 52.126)">
        <path id="Path_60436" data-name="Path 60436" d="M699.638,805.746a.786.786,0,0,0,.21-.019.773.773,0,0,0,.574-.689l4.153-46.423a.824.824,0,0,0-.191-.593.775.775,0,0,0-.574-.268L628.8,756.3a.857.857,0,0,0-.612.268.764.764,0,0,0-.191.631l4.057,34.176a.8.8,0,0,0,.785.708l57.235.861,8.936,12.476A.8.8,0,0,0,699.638,805.746Zm3.291-46.423-3.885,43.419-7.922-11.06a.771.771,0,0,0-.631-.325l-56.929-.861L629.7,757.907Z" transform="translate(-627.985 -756.3)" fill="#000200"/>
        <path id="Path_60437" data-name="Path 60437" d="M753.627,838.678a.784.784,0,0,0,.785-.765.793.793,0,0,0-.765-.823l-35.726-1.3a.795.795,0,0,0-.057,1.588l35.726,1.3Z" transform="translate(-694.871 -820.576)" fill="#000200"/>
        <path id="Path_60438" data-name="Path 60438" d="M759.286,889.595a.784.784,0,0,0,.785-.765.793.793,0,0,0-.765-.823L726.22,886.9a.83.83,0,0,0-.823.765.793.793,0,0,0,.766.823l33.1,1.11Z" transform="translate(-702.118 -861.906)" fill="#000200"/>
      </g>
      <g id="Message_1" transform="translate(228.91 24.188)">
        <path id="Path_60439" data-name="Path 60439" d="M369.954,663.765a.813.813,0,0,0,.708-.421l7.233-13.395,43.687,1.818a.789.789,0,0,0,.823-.746l2.392-35.8a.778.778,0,0,0-.191-.574.851.851,0,0,0-.555-.268L356.827,610.3a.839.839,0,0,0-.593.211.83.83,0,0,0-.249.574v27.938a.788.788,0,0,0,.785.785.8.8,0,0,0,.785-.785V611.946l65.578,3.98-2.277,34.234-43.419-1.8a.72.72,0,0,0-.727.421L369.246,662.6a.793.793,0,0,0,.325,1.072A.87.87,0,0,0,369.954,663.765Z" transform="translate(-355.985 -610.3)" fill="#000200"/>
        <path id="Path_60440" data-name="Path 60440" d="M431.585,679.669h38.9a.788.788,0,0,0,.785-.785.8.8,0,0,0-.785-.785h-38.9a.785.785,0,1,0,0,1.569Z" transform="translate(-416.774 -665.126)" fill="#000200"/>
        <path id="Path_60441" data-name="Path 60441" d="M431.485,735.069h19.327a.785.785,0,1,0,0-1.569H431.485a.788.788,0,0,0-.785.785A.764.764,0,0,0,431.485,735.069Z" transform="translate(-397.079 -709.925)" fill="#000200"/>
      </g>
      <g id="Woman" transform="translate(24.576 0)">
        <g id="Head" transform="translate(46.785 0)">
          <path id="Path_60442" data-name="Path 60442" d="M1251.539,733.138c.517,1.091,1.493,2.43,2.87,2.1.995-.23,1.454,1.282.459,1.512-2.1.5-3.808-.976-4.688-2.775C1249.759,733.081,1251.1,732.22,1251.539,733.138Z" transform="translate(-1200.155 -685.127)" fill="#000200"/>
          <path id="Path_60443" data-name="Path 60443" d="M1188.561,685.7a6.567,6.567,0,0,0,4.995-1.8,2.96,2.96,0,0,0,.67-2.507c-.459-2.775-5.186-3.368-5.722-3.425a.8.8,0,0,0-.172,1.588c1.32.153,4.114.842,4.325,2.1a1.415,1.415,0,0,1-.325,1.225,5.238,5.238,0,0,1-3.789,1.244.788.788,0,0,0-.785.785A.8.8,0,0,0,1188.561,685.7Z" transform="translate(-1127.054 -640.83)" fill="#000200"/>
          <path id="Path_60444" data-name="Path 60444" d="M1233.4,637.311V638.9a1.589,1.589,0,0,0,3.177,0v-1.588A1.589,1.589,0,0,0,1233.4,637.311Z" transform="translate(-1178.112 -606.713)" fill="#000200"/>
          <path id="Path_60445" data-name="Path 60445" d="M1232.157,594.846c-.938.268-1.818.708-2.775.9-1,.21-.861,1.8.134,1.588,1.091-.23,2.105-.689,3.177-1C1233.669,596.051,1233.133,594.559,1232.157,594.846Z" transform="translate(-1173.846 -573.586)" fill="#000200"/>
          <path id="Path_60446" data-name="Path 60446" d="M1213.557,736.431a.792.792,0,0,1,.708-.172c.115.019,11.941,2.717,18.485-1.052,5.3-3.062,7.138-9.2,7.252-24.321a.78.78,0,0,1,.8-.784.792.792,0,0,1,.785.8c-.115,13.7-1.435,21.853-8.056,25.68-3.2,1.837-7.425,2.3-11.118,2.22l-2.7,6.315a.787.787,0,0,1,.421,1.033.8.8,0,0,1-.727.5c-.1,0-.651.918-.746.88-5.128-2.143-5.339-10.123-5.358-10.41A.767.767,0,0,1,1213.557,736.431Z" transform="translate(-1179.28 -666.815)" fill="#000200"/>
          <path id="Path_60447" data-name="Path 60447" d="M1312.9,856" transform="translate(-1269.648 -784.796)" fill="none" stroke="#000200" stroke-linecap="round" stroke-linejoin="round" stroke-width="1"/>
          <path id="Path_60448" data-name="Path 60448" d="M1221.143,510.556c3.329-6.7,2.755-18.772,14.7-23.728,4.076-1.971,9.434-2.928,16.131-2.928,15.653,0,23.69,6.353,23.881,18.868.038,2.985.1,5.626.153,8.094.077,3.865.153,7.291.172,10.965a.792.792,0,0,1-.785.8h0a.776.776,0,0,1-.785-.785c-.019-3.655-.1-7.08-.172-10.946-.057-2.468-.115-5.109-.153-8.113-.076-4.956-1.435-8.822-4.133-11.634-6.774,10.812-8.018,18.408-19.786,23.632h0a.728.728,0,0,1-.344.057c-4.688-.249-8.056.478-9.74,2.067a3.8,3.8,0,0,0-1.225,2.851,4.334,4.334,0,0,0,.555,2.086,8.2,8.2,0,0,0,3.483,2.468,11.417,11.417,0,0,0,3.54.344.778.778,0,0,1,.593.23.83.83,0,0,1,.249.574v.23c1.492,3.712,7.463,24.608-3.368,26.981-9.262,2.028-23.5-.612-28.091-9.836C1210.981,532.792,1216.4,520.085,1221.143,510.556Z" transform="translate(-1214 -483.9)" fill="#000200"/>
          <path id="Path_60449" data-name="Path 60449" d="M1309.525,862.9a.8.8,0,0,0,.746-.517l3.693-9.568a.8.8,0,1,0-1.493-.574l-3.693,9.568a.806.806,0,0,0,.459,1.033A.767.767,0,0,0,1309.525,862.9Z" transform="translate(-1269.966 -781.34)" fill="#000200"/>
        </g>
        <g id="Plaid" transform="translate(0 64.091)">
          <path id="Path_60450" data-name="Path 60450" d="M1296.41,879.045a.817.817,0,0,0,.785-.631c3.54-17.356,24.685-49.772,24.9-50.078l.115-.23a31.134,31.134,0,0,1,3.291-7.616c22.944,4.612,40.128,15.576,44.72,22.618a.788.788,0,0,0,1.32-.861c-4.784-7.367-22.618-18.753-46.27-23.4a.813.813,0,0,0-.8.325,30.929,30.929,0,0,0-3.77,8.381c-1.55,2.277-21.528,33.219-25.068,50.556a.8.8,0,0,0,.612.938A.522.522,0,0,1,1296.41,879.045Z" transform="translate(-1278.323 -818.831)" fill="#000200"/>
          <path id="Path_60451" data-name="Path 60451" d="M1744.369,1373.427a18.242,18.242,0,0,0-.555-2.411.74.74,0,0,0-.115-.211c.785-5.664,1.4-9.415,1.818-11.194a.8.8,0,0,1,1.55.364c-.459,1.894-1.129,6.2-2.029,12.763A.792.792,0,0,1,1744.369,1373.427Z" transform="translate(-1739.485 -1255.635)" fill="#000200"/>
          <path id="Path_60452" data-name="Path 60452" d="M1199.851,1009.65a.8.8,0,0,0,.785-.957c-.172-.88-18.217-87.871-28.857-112.594-11.079-25.776-49.2-34.1-65.941-34.1a.785.785,0,1,0,0,1.569c16.38,0,53.714,8.094,64.468,33.143,9.97,23.173,26.541,101.687,28.55,111.331l-134.447-1.78.4-3.559a.8.8,0,0,0-.689-.88c-.44-.057-.5-1.454-.536-1.033l-.842,6.162a.789.789,0,0,0,.785.88l136.323,1.818Z" transform="translate(-1062.74 -853.739)" fill="#000200"/>
          <path id="Path_60453" data-name="Path 60453" d="M1188.888,1468.962a107.761,107.761,0,0,0,17.012-1.435.785.785,0,0,0-.249-1.55c-24.3,3.846-54.919,1.626-62.746-30.866a.8.8,0,1,0-1.55.364C1147.689,1461.767,1168.279,1468.962,1188.888,1468.962Z" transform="translate(-1083.695 -1316.687)" fill="#000200"/>
        </g>
        <g id="Hands" transform="translate(121.296 146.864)">
          <path id="Path_60454" data-name="Path 60454" d="M755.179,1331.72a1.118,1.118,0,0,0,.249-.038c23.671-7.807,42.615-35.114,43.4-36.262,4.057-5.913,4.5-5.645,7.023-4.229,1.359.765,3.349,3.177,5.09,5.281,2.736,3.311,4.344,5.186,5.741,5.2a2.257,2.257,0,0,0,2.162-1.033c.67-1.225.574-3.674-5.243-12.706-7.214-11.175-17.107-12.5-29.718-11.022-7.406.861-13.873,5.894-20.724,11.214-4.88,3.789-9.912,7.712-15.462,10.2a.8.8,0,0,0,.651,1.454c5.741-2.564,10.85-6.544,15.806-10.391,6.659-5.186,12.955-10.066,19.939-10.888,12.036-1.4,21.432-.172,28.206,10.314,5.511,8.515,5.473,10.582,5.186,11.06-.077.153-.325.211-.746.211-.746-.019-3.043-2.794-4.554-4.631-1.933-2.334-3.923-4.746-5.53-5.664-3.846-2.181-5.167-1.052-9.128,4.727-.785,1.148-19.423,28.015-42.6,35.65a.77.77,0,0,0-.5.995A.758.758,0,0,0,755.179,1331.72Z" transform="translate(-742.139 -1271.633)" fill="#000200"/>
          <path id="Path_60455" data-name="Path 60455" d="M1022.617,1402.37a.8.8,0,0,0,.746-.536c1.78-5.128,1.78-14.371-1.7-21.374a18.33,18.33,0,0,0-10.965-9.721.793.793,0,1,0-.478,1.512,16.8,16.8,0,0,1,10.046,8.917c3.291,6.621,3.291,15.328,1.626,20.15a.806.806,0,0,0,.5,1.014A.821.821,0,0,0,1022.617,1402.37Z" transform="translate(-997.771 -1347.87)" fill="#000200"/>
          <path id="Path_60456" data-name="Path 60456" d="M784.145,1369.547a2.6,2.6,0,0,0,1.8-.727c1.569-1.511,1.741-4.975.459-9.74a.794.794,0,1,0-1.531.421c1.282,4.8.823,7.367-.019,8.19a1.08,1.08,0,0,1-1.129.23c-.785-.249-1.684-4.382-2.086-6.143a30.263,30.263,0,0,0-.861-3.387c-1.033-2.736-4.114-6.41-7.52-5.588a.8.8,0,1,0,.364,1.55c2.335-.555,4.841,2.373,5.664,4.612a31.063,31.063,0,0,1,.8,3.177c.9,4.114,1.607,6.851,3.157,7.329A7.43,7.43,0,0,0,784.145,1369.547Z" transform="translate(-715.133 -1333.303)" fill="#000200"/>
          <path id="Path_60457" data-name="Path 60457" d="M807.638,1386.432h.172c1.359-.115,2.354-1.531,2.7-3.865a.793.793,0,0,0-1.569-.23c-.249,1.684-.823,2.488-1.263,2.526-.574.077-2.086-1.148-3.655-5.99-1.3-4.038-2.7-6.123-4.286-6.372a2.171,2.171,0,0,0-2.028.88.8.8,0,1,0,1.3.919.609.609,0,0,1,.5-.23c.23.038,1.454.478,3,5.281C804.021,1383.982,805.782,1386.432,807.638,1386.432Z" transform="translate(-743.161 -1349.307)" fill="#000200"/>
          <path id="Path_60458" data-name="Path 60458" d="M833.763,1393.669a4.018,4.018,0,0,0,2.43-.937.794.794,0,1,0-.938-1.282,2.343,2.343,0,0,1-1.76.593c-1.033-.211-1.914-1.722-2.755-3.2a19.639,19.639,0,0,0-1.512-2.334.788.788,0,1,0-1.206,1.014,15.468,15.468,0,0,1,1.359,2.1c1.014,1.76,2.086,3.578,3.808,3.942A2.006,2.006,0,0,0,833.763,1393.669Z" transform="translate(-774.95 -1360.429)" fill="#000200"/>
          <path id="Path_60459" data-name="Path 60459" d="M1028.26,1264.655a.7.7,0,0,0,.459-.153.8.8,0,0,0,.191-1.11c-8.9-12.515-16.992-15-27.976-8.573a.8.8,0,1,0,.8,1.378c8.534-4.994,16.189-5.511,25.891,8.114A.765.765,0,0,0,1028.26,1264.655Z" transform="translate(-1000.543 -1251.393)" fill="#000200"/>
          <path id="Path_60460" data-name="Path 60460" d="M1027.454,1307.405h.019a.794.794,0,0,0,0-1.588h0c-.1,0-3.75-.019-5.32-1.971a3.852,3.852,0,0,1-.555-3.425c.421-1.837.88-2.277,1.129-2.373.612-.249,2.048.708,3.578,1.741a38.61,38.61,0,0,0,5.53,3.215.8.8,0,1,0,.651-1.454,35.054,35.054,0,0,1-5.3-3.1c-2.124-1.416-3.655-2.449-5.052-1.895-.976.383-1.627,1.474-2.086,3.5a5.425,5.425,0,0,0,.861,4.784C1022.919,1307.348,1027.071,1307.405,1027.454,1307.405Z" transform="translate(-1008.138 -1287.79)" fill="#000200"/>
        </g>
      </g>
      <g id="Typing_m" transform="translate(163.351 133.529)">
        <path id="Path_60461" data-name="Path 60461" d="M530.776,1336.428a4.114,4.114,0,1,0-4.076-4.152C526.7,1334.955,528.154,1336.428,530.776,1336.428Zm0-6.64a2.483,2.483,0,0,1,2.488,2.488,2.575,2.575,0,0,1-2.488,2.564c-1.741,0-2.488-.765-2.488-2.564A2.5,2.5,0,0,1,530.776,1329.788Z" transform="translate(-433.145 -1300.166)" fill="#000200"/>
        <path id="Path_60462" data-name="Path 60462" d="M627.876,1336.428a4.114,4.114,0,1,0-4.076-4.152C623.8,1334.955,625.254,1336.428,627.876,1336.428Zm0-6.64a2.483,2.483,0,0,1,2.488,2.488,2.575,2.575,0,0,1-2.488,2.564c-1.741,0-2.488-.765-2.488-2.564A2.507,2.507,0,0,1,627.876,1329.788Z" transform="translate(-548.826 -1300.166)" fill="#000200"/>
        <path id="Path_60463" data-name="Path 60463" d="M652.476,1414.128a4.114,4.114,0,1,0-4.076-4.152C648.381,1412.655,649.835,1414.128,652.476,1414.128Zm0-6.64a2.483,2.483,0,0,1,2.488,2.488,2.575,2.575,0,0,1-2.488,2.564c-1.741,0-2.488-.766-2.488-2.564A2.483,2.483,0,0,1,652.476,1407.488Z" transform="translate(-578.133 -1362.998)" fill="#000200"/>
        <path id="Path_60464" data-name="Path 60464" d="M748.329,1410.994c.23,1.129,1,1.646,2.411,1.646a2.549,2.549,0,0,0,2.488-2.564,2.483,2.483,0,0,0-2.488-2.488,2.447,2.447,0,0,0-2.009,1.033,8.051,8.051,0,0,0-.1-1.186,6.8,6.8,0,0,0,.057-.88,4.1,4.1,0,1,1,2.048,7.673,3.762,3.762,0,0,1-3.54-1.76A2.8,2.8,0,0,0,748.329,1410.994Z" transform="translate(-695.303 -1363.079)" fill="#000200"/>
        <path id="Path_60465" data-name="Path 60465" d="M394.311,1196.626h0l106.318-.23a.789.789,0,0,0,.785-.708l1.282-13.108a.8.8,0,0,0-.211-.612.785.785,0,0,0-.593-.268H395.88a.789.789,0,0,0-.785.708l-1.607,13.318a.768.768,0,0,0,.191.612A.878.878,0,0,0,394.311,1196.626Zm105.591-1.818-104.71.21,1.416-11.73H501.031Z" transform="translate(-375.5 -1181.7)" fill="#000200"/>
        <path id="Path_60466" data-name="Path 60466" d="M366.889,1308.08h32.665a.781.781,0,0,0,.785-.746l3.636-55.092a.761.761,0,0,0-.211-.593.83.83,0,0,0-.574-.249H390.808a.788.788,0,0,0-.785.785v8.381l-23.8,35.975a.91.91,0,0,0-.134.44v10.3A.809.809,0,0,0,366.889,1308.08Zm31.918-1.588H367.673v-9.262l23.8-35.975a.91.91,0,0,0,.134-.44v-7.827h10.735Z" transform="translate(-271.535 -1238.062)" fill="#000200"/>
        <path id="Path_60467" data-name="Path 60467" d="M458.426,1288.606a.776.776,0,0,0,.785-.784.792.792,0,0,0-.785-.8L370.8,1285.7a.759.759,0,0,0-.8.785.792.792,0,0,0,.785.8l87.641,1.32Z" transform="translate(-327.518 -1265.796)" fill="#000200"/>
        <path id="Path_60468" data-name="Path 60468" d="M956.6,1260.379h.038l10.295-.555a.8.8,0,0,0-.1-1.588l-9.472.5v-5.664h9.51a.785.785,0,1,0,0-1.569H956.581a.788.788,0,0,0-.785.785v7.31a.83.83,0,0,0,.249.574A.943.943,0,0,0,956.6,1260.379Z" transform="translate(-948.083 -1238.143)" fill="#000200"/>
        <path id="Path_60469" data-name="Path 60469" d="M633.146,1485.633a.776.776,0,0,0,.785-.785.792.792,0,0,0-.785-.8L556.6,1483.7h0a.8.8,0,0,0-.8.785.792.792,0,0,0,.785.8l76.562.344Z" transform="translate(-537.793 -1425.911)" fill="#000200"/>
        <path id="Path_60470" data-name="Path 60470" d="M556.485,1542.244h0l94.588-1.359a.792.792,0,0,0,.785-.8.749.749,0,0,0-.8-.785l-94.568,1.359a.792.792,0,0,0-.785.8A.776.776,0,0,0,556.485,1542.244Z" transform="translate(-555.7 -1470.868)" fill="#000200"/>
        <path id="Path_60471" data-name="Path 60471" d="M703.848,1287.325c-2.469,5.377-7.846,9.376-14.428,8.152-5.415-.995-7.731-4.4-8.42-8.477Z" transform="translate(-631.668 -1266.85)" fill="#000200"/>
      </g>
      <g id="Paper" transform="translate(191.288 95.722)">
        <path id="Path_60472" data-name="Path 60472" d="M334.1,1023.544a.809.809,0,0,0,.708-.44l10.793-22.37,96.272-14.792L423.888,1022.4a.8.8,0,1,0,1.435.708l18.657-37.831a.8.8,0,0,0-.077-.823.776.776,0,0,0-.765-.306l-98.2,15.079a.788.788,0,0,0-.593.44L333.358,1022.4a.791.791,0,0,0,.364,1.053A.8.8,0,0,0,334.1,1023.544Z" transform="translate(-333.279 -984.13)" fill="#000200"/>
        <path id="Path_60473" data-name="Path 60473" d="M262.408,995.055,243.2,988.3l-6.3,12.744Z" transform="translate(-133.183 -987.502)"/>
        <path id="Path_60474" data-name="Path 60474" d="M233.6,998.484a.529.529,0,0,0,.172-.019l25.508-5.989a.794.794,0,0,0,.612-.727.78.78,0,0,0-.536-.785l-19.212-6.755a.789.789,0,0,0-.976.4l-6.3,12.744a.792.792,0,0,0,.1.842A.818.818,0,0,0,233.6,998.484Zm22.676-6.927-21.221,4.975,5.224-10.6Z" transform="translate(-129.883 -984.157)" fill="#000200"/>
        <path id="Path_60475" data-name="Path 60475" d="M462.885,1141.569h52.527a.785.785,0,0,0,0-1.569H462.885a.788.788,0,0,0-.785.785A.776.776,0,0,0,462.885,1141.569Z" transform="translate(-430.065 -1110.173)" fill="#000200"/>
        <path id="Path_60476" data-name="Path 60476" d="M766.83,1121.4a.8.8,0,0,0,.785-.651l1.263-6.659a.8.8,0,0,0-.631-.937.817.817,0,0,0-.938.631l-1.263,6.659a.8.8,0,0,0,.631.938A.421.421,0,0,0,766.83,1121.4Z" transform="translate(-740.918 -1088.449)" fill="#000200"/>
        <path id="Path_60477" data-name="Path 60477" d="M751.685,1110.569h5.875a.785.785,0,1,0,0-1.569h-5.875a.785.785,0,1,0,0,1.569Z" transform="translate(-727.476 -1085.105)" fill="#000200"/>
        <path id="Path_60478" data-name="Path 60478" d="M759.285,1149.669h5.99a.785.785,0,0,0,0-1.569h-5.99a.788.788,0,0,0-.785.785A.764.764,0,0,0,759.285,1149.669Z" transform="translate(-736.646 -1116.724)" fill="#000200"/>
      </g>
    </g>
  </g>
</svg>
