<svg xmlns="http://www.w3.org/2000/svg" width="291" height="291" viewBox="0 0 291 291">
  <g id="step_4" data-name="step 4" transform="translate(-1069 -1875)">
    <circle id="Ellipse_871" data-name="Ellipse 871" cx="145.5" cy="145.5" r="145.5" transform="translate(1069 1875)" fill="#ecedf4"/>
    <g id="_13" data-name="13" transform="translate(834.594 1623.768)">
      <path id="Path_60533" data-name="Path 60533" d="M1130.682,284.6l-94.282,28.76,38.616,100.189,86.144-37.191Z" transform="translate(-656.191)" fill="#7baeed"/>
      <path id="Path_60534" data-name="Path 60534" d="M280.621,1381.472c-28.177-2.8-43.733-12.826-33.053-42.393.12-.326.24-.67.361-.979A72.176,72.176,0,0,1,280.621,1381.472Z" transform="translate(0 -872.609)" fill="#fed6c2"/>
      <path id="Path_60535" data-name="Path 60535" d="M1439.4,1433.8h10.113l-.7-24-9.409,1.03Z" transform="translate(-989.995 -931.997)" fill="#d4c2fc"/>
      <path id="Path_60536" data-name="Path 60536" d="M1512.753,1382.036l-1.254-33.018,11.229-1.717v34.736Z" transform="translate(-1049.714 -880.229)" fill="#d4c2fc"/>
      <path id="Path_60537" data-name="Path 60537" d="M1599,1388.271v26.648h9.032L1606.984,1387Z" transform="translate(-1122.191 -913.112)" fill="#d4c2fc"/>
      <path id="Path_60538" data-name="Path 60538" d="M285.02,1049.881c-1.992-1.288-4-2.576-5.992-3.863-.67-.429-1.288.635-.618,1.064,1.992,1.288,4,2.576,5.992,3.863C285.072,1051.357,285.69,1050.31,285.02,1049.881Z" transform="translate(-28.112 -630.595)" fill="#ffcb56"/>
      <path id="Path_60539" data-name="Path 60539" d="M900.412,498.5l-7.212,7.709,10.714,3.056Z" transform="translate(-537.579 -177.171)" fill="#f674b4"/>
      <path id="Path_60540" data-name="Path 60540" d="M1801.217,1209.261c-1.151,1.717-2.284,3.434-3.434,5.151-.447.653.618,1.271,1.064.618,1.151-1.717,2.284-3.434,3.434-5.151C1802.711,1209.227,1801.646,1208.609,1801.217,1209.261Z" transform="translate(-1286.753 -765.662)" fill="#7baeed"/>
      <path id="Path_60541" data-name="Path 60541" d="M1327.478,1361.418c-1-.859-1.992-1.717-3-2.576-.6-.515-1.459.36-.858.859,1,.858,1.992,1.717,3,2.575C1327.2,1362.792,1328.079,1361.933,1327.478,1361.418Z" transform="translate(-893.921 -889.66)" fill="#000200"/>
      <path id="Path_60542" data-name="Path 60542" d="M1053.17,435.144a.61.61,0,0,1-.567-.395l-37.414-95.21a.629.629,0,0,1,.017-.5.6.6,0,0,1,.378-.326l94.282-28.76a.6.6,0,0,1,.755.395l30.46,91.758a.612.612,0,0,1-.326.755l-29.773,13.7a.607.607,0,0,1-.515-1.1l29.276-13.462-30.1-90.694-93.081,28.4,37.174,94.592a.615.615,0,0,1-.343.79A.593.593,0,0,1,1053.17,435.144Z" transform="translate(-638.586 -20.975)" fill="#000200"/>
      <path id="Path_60543" data-name="Path 60543" d="M1183.014,525.8a.6.6,0,0,1-.55-.343l-4.293-8.723h-7.641a.628.628,0,0,1-.515-.275l-4.773-7.383-8.448,2.764a.629.629,0,0,1-.773-.378l-5.306-14.543-8.225,1.906a.6.6,0,0,1-.67-.292l-6.353-11.023-5.752,1.065a.635.635,0,0,1-.687-.378l-5.941-14.9a.626.626,0,0,1,.017-.5.6.6,0,0,1,.4-.309l37.448-9.375a.6.6,0,0,1,.7.343l5.048,11.659,7.315-2.61a.617.617,0,0,1,.464.017.586.586,0,0,1,.309.361l4.361,12.672,7.675-2.73a.618.618,0,0,1,.773.343l5.168,12.277,7.761-2.953a.6.6,0,0,1,.773.326l4.791,10.749,7.126-2.713a.607.607,0,0,1,.773.309l3.915,8.551a.665.665,0,0,1,.017.481.584.584,0,0,1-.326.343l-34.323,15.213A.69.69,0,0,1,1183.014,525.8Zm-12.139-10.3h7.675a.612.612,0,0,1,.549.343l4.19,8.534,33.293-14.732-3.417-7.469-7.143,2.713a.6.6,0,0,1-.773-.326l-4.791-10.749-7.778,2.953a.622.622,0,0,1-.79-.343l-5.168-12.277-7.709,2.747a.617.617,0,0,1-.464-.017.586.586,0,0,1-.309-.361l-4.361-12.672-7.263,2.593a.625.625,0,0,1-.773-.326l-5.082-11.71-36.264,9.083,5.495,13.788,5.683-1.065a.588.588,0,0,1,.635.292l6.336,11.006,8.311-1.923a.64.64,0,0,1,.721.395l5.288,14.492,8.328-2.713a.627.627,0,0,1,.7.24Z" transform="translate(-727.959 -147.848)" fill="#000200"/>
      <path id="Path_60544" data-name="Path 60544" d="M1194.4,532.568a.624.624,0,0,1-.584-.412.612.612,0,0,1,.378-.79l38.461-13.753a.619.619,0,1,1,.412,1.168L1194.6,532.534A.86.86,0,0,1,1194.4,532.568Z" transform="translate(-786.545 -192.97)" fill="#000200"/>
      <path id="Path_60545" data-name="Path 60545" d="M1283.6,591.641a.624.624,0,0,1-.584-.412.612.612,0,0,1,.378-.79l35.955-12.826a.619.619,0,1,1,.412,1.168L1283.8,591.607A.863.863,0,0,1,1283.6,591.641Z" transform="translate(-860.429 -242.668)" fill="#000200"/>
      <path id="Path_60546" data-name="Path 60546" d="M1367.411,650.511a.623.623,0,0,1-.567-.361.6.6,0,0,1,.326-.807l35.285-15.3a.616.616,0,0,1,.481,1.133l-35.285,15.3A1.35,1.35,0,0,1,1367.411,650.511Z" transform="translate(-929.853 -289.398)" fill="#000200"/>
      <path id="Path_60547" data-name="Path 60547" d="M1443.423,698.555a.611.611,0,0,1-.567-.378.618.618,0,0,1,.326-.807l34.924-14.715a.615.615,0,1,1,.481,1.133L1443.664,698.5A.607.607,0,0,1,1443.423,698.555Z" transform="translate(-992.816 -329.665)" fill="#000200"/>
      <path id="Path_60548" data-name="Path 60548" d="M1122.4,583.172a.6.6,0,0,1-.549-.343l-30.649-62.105a.627.627,0,0,1-.017-.5.613.613,0,0,1,.344-.343l5.494-2.181a.609.609,0,1,1,.446,1.133l-4.876,1.94,30.117,61.023,33.671-11.985a.618.618,0,0,1,.79.378.612.612,0,0,1-.378.79l-34.186,12.157A.859.859,0,0,1,1122.4,583.172Z" transform="translate(-701.536 -193.041)" fill="#000200"/>
      <path id="Path_60549" data-name="Path 60549" d="M890.225,775.574a.544.544,0,0,1-.275-.069.606.606,0,0,1-.275-.824l26.339-51.631a.614.614,0,0,1,1.1.549L890.775,775.23A.653.653,0,0,1,890.225,775.574Z" transform="translate(-534.604 -362.881)" fill="#ff3857"/>
      <path id="Path_60550" data-name="Path 60550" d="M1028.225,842.157a.544.544,0,0,1-.275-.069.607.607,0,0,1-.275-.824l26.683-53.915a.614.614,0,1,1,1.1.549l-26.683,53.915A.6.6,0,0,1,1028.225,842.157Z" transform="translate(-648.909 -416.141)" fill="#ff3857"/>
      <path id="Path_60551" data-name="Path 60551" d="M1039.748,790.116a.483.483,0,0,1-.257-.069l-23.97-11.5a.618.618,0,0,1,.532-1.116l23.97,11.5a.628.628,0,0,1,.292.824A.662.662,0,0,1,1039.748,790.116Z" transform="translate(-638.608 -408.159)" fill="#ff3857"/>
      <path id="Path_60552" data-name="Path 60552" d="M1002.748,864.214a.485.485,0,0,1-.258-.069l-23.97-11.5a.618.618,0,1,1,.532-1.116l23.97,11.5a.624.624,0,0,1-.275,1.185Z" transform="translate(-607.961 -469.534)" fill="#ff3857"/>
      <path id="Path_60553" data-name="Path 60553" d="M962.948,940.917a.484.484,0,0,1-.258-.069l-23.97-11.5a.618.618,0,0,1,.532-1.116l23.97,11.5a.628.628,0,0,1,.292.824A.662.662,0,0,1,962.948,940.917Z" transform="translate(-574.995 -533.067)" fill="#ff3857"/>
      <path id="Path_60554" data-name="Path 60554" d="M932.348,1002.616a.484.484,0,0,1-.258-.069l-23.97-11.5a.618.618,0,1,1,.532-1.116l23.97,11.5a.628.628,0,0,1,.292.824A.662.662,0,0,1,932.348,1002.616Z" transform="translate(-549.649 -584.172)" fill="#ff3857"/>
      <path id="Path_60555" data-name="Path 60555" d="M549.173,669.733c-15.058,5.409-19.952,11.332-16.054,22.6,3.211,9.306,4.911,11.229,4.911,11.229l.738-.086A31.584,31.584,0,0,1,543.7,701.7c.154-.6.12.67.275.069.687-1.837-3.52-10.062-2.953-14.612.481-3.9,3.451-6.456,6.714-8.259,4.808-2.679,10.319-3.881,15.282-6.267,1.03-.5,2.7-1.528,4.5-2.421C563.853,667.449,558.2,666.488,549.173,669.733Z" transform="translate(-238.263 -317.309)" fill="#000200"/>
      <path id="Path_60556" data-name="Path 60556" d="M744.191,802.356a.624.624,0,0,1-.584-.412.612.612,0,0,1,.378-.79,3.734,3.734,0,0,0,2.318-1.8,1.4,1.4,0,0,0-.137-1.236c-.532-.961-2.971-.721-4.069-.464a.62.62,0,0,1-.721-.395l-2.06-5.752a.612.612,0,0,1,.378-.79.618.618,0,0,1,.79.378l1.889,5.254c1.2-.206,3.949-.5,4.876,1.168a2.656,2.656,0,0,1,.223,2.266,4.761,4.761,0,0,1-3.056,2.524A.593.593,0,0,1,744.191,802.356Z" transform="translate(-410.085 -419.179)" fill="#000200"/>
      <path id="Path_60557" data-name="Path 60557" d="M754.681,774.461l.446,1.253a1.334,1.334,0,0,0,2.507-.91l-.446-1.253A1.335,1.335,0,0,0,754.681,774.461Z" transform="translate(-422.772 -404.299)" fill="#000200"/>
      <path id="Path_60558" data-name="Path 60558" d="M666.681,806.058l.446,1.253a1.334,1.334,0,0,0,2.507-.91l-.446-1.253A1.335,1.335,0,0,0,666.681,806.058Z" transform="translate(-349.882 -430.471)" fill="#000200"/>
      <path id="Path_60559" data-name="Path 60559" d="M650.378,777.292a17.643,17.643,0,0,0-3.073,1.082c-.773.378-.052,1.494.721,1.116a15.436,15.436,0,0,1,2.764-.944C651.614,778.357,651.2,777.086,650.378,777.292Z" transform="translate(-333.63 -408.075)" fill="#000200"/>
      <path id="Path_60560" data-name="Path 60560" d="M746.386,743.6c-.824.017-1.631.172-2.455.137-.841-.052-1.082,1.271-.223,1.3.944.052,1.854-.1,2.8-.12C747.365,744.9,747.245,743.581,746.386,743.6Z" transform="translate(-413.31 -380.185)" fill="#000200"/>
      <path id="Path_60561" data-name="Path 60561" d="M564.819,735.119a11.658,11.658,0,0,1-2.73-.343c-5.323-1.322-12.242-7.091-14.251-19.042a.663.663,0,0,1,.052-.361l2.953-6.422c-6.1,1.133-9.8-.7-10.44-2.438a4.428,4.428,0,0,1,.223-3.606,7.37,7.37,0,0,1,2.61-2.73l-3.554-9.873c-4.138-11.521.5-19.248,14.595-24.313,12.5-4.5,20.416-1.837,24.159,8.1.79,2.095,1.563,4.1,2.3,6.044,7.143,18.716,11.453,30.014,6.147,36.281-2.644,3.125-6.628,4.722-9.839,5.993l-4.464,8.74A9.516,9.516,0,0,1,564.819,735.119Zm-15.745-19.4c1.94,11.23,8.362,16.655,13.307,17.875a8.481,8.481,0,0,0,9.169-3.073l4.5-8.843a.6.6,0,0,1,.326-.292l.206-.086c3.245-1.288,6.92-2.764,9.375-5.666,4.825-5.718.618-16.758-6.37-35.045-.738-1.94-1.511-3.949-2.3-6.044-3.468-9.186-10.869-11.607-22.613-7.383-13.5,4.842-17.754,11.865-13.856,22.751l3.468,9.65a23.529,23.529,0,0,1,4.207-1.683.609.609,0,0,1,.343,1.168c-3.795,1.15-6.25,2.679-7.143,4.43a3.231,3.231,0,0,0-.155,2.644c.378,1.047,3.846,2.919,10.2,1.408a.613.613,0,0,1,.618.206.6.6,0,0,1,.086.652Z" transform="translate(-243.556 -314.15)" fill="#000200"/>
      <path id="Path_60562" data-name="Path 60562" d="M621.534,638.861c-1.065-.67-4.224-2.078-7.057-.79-5.855,2.644-6.3,4.1-9.89,5.89-1.683.841-4.138,1.717-4.172,3.949a3.193,3.193,0,0,0,.086.721,17.582,17.582,0,0,0-2.043,3.5.6.6,0,0,0-.051.378l-.326.378a.663.663,0,0,0-.79.961c2.782,4.447,9.2,2.782,11.161-1.408a26.154,26.154,0,0,0,10.835-4.138C621.912,646.519,626.1,641.728,621.534,638.861Z" transform="translate(-292.39 -292.343)" fill="#000200"/>
      <path id="Path_60563" data-name="Path 60563" d="M787,868.4a6.531,6.531,0,0,1-3.683,2.855,26.5,26.5,0,0,1-7.171.831c-.755.395-.069,1.545.687,1.133a24.057,24.057,0,0,0,6.955-.761,7.561,7.561,0,0,0,3.9-2.925C788.455,869.141,787.751,868.008,787,868.4Z" transform="translate(-447.205 -483.492)" fill="#000200"/>
      <path id="Path_60564" data-name="Path 60564" d="M723.385,998.947a.615.615,0,0,0-.79-.343,15.1,15.1,0,0,1-7.143.635.629.629,0,0,0-.6.24c-.137.189-.155.429.172,1.1l3.228,6.439a2.413,2.413,0,0,1,1.545-1.631l2.61-5.426c.206-.069.429-.137.635-.223A.6.6,0,0,0,723.385,998.947Z" transform="translate(-389.777 -591.371)" fill="#000200"/>
      <path id="Path_60565" data-name="Path 60565" d="M506.505,1211.211a.585.585,0,0,1-.429-.189c-.189-.206-4.584-5.306,6.233-29.67a.611.611,0,1,1,1.116.5c-10.337,23.283-6.473,28.3-6.439,28.348a.635.635,0,0,1-.052.859A.733.733,0,0,1,506.505,1211.211Z" transform="translate(-216.063 -742.475)" fill="#000200"/>
      <path id="Path_60566" data-name="Path 60566" d="M515.56,1347.944a.6.6,0,0,1-.6-.549c-.532-5.495-9.186-5.254-9.272-5.237a.586.586,0,0,1-.6-.395,4.851,4.851,0,0,0-2.661-2.953c-3.9-1.717-10.955.7-17.325,3.314a.62.62,0,1,1-.464-1.15c6.628-2.7,13.977-5.2,18.286-3.3a6.089,6.089,0,0,1,3.159,3.245c1.94.017,9.529.447,10.1,6.353a.6.6,0,0,1-.549.67Z" transform="translate(-198.847 -871.704)" fill="#000200"/>
      <path id="Path_60567" data-name="Path 60567" d="M630.855,1425.5a.573.573,0,0,1-.395-.155c-9.014-7.761-5-23.317,1.374-31.559a.611.611,0,0,1,.567-.223c.1.017,2.507.36,4.138.79a.6.6,0,0,1,.361.91c-11.229,17.651-1.374,28.726-.944,29.19a.608.608,0,0,1-.893.824c-.1-.12-10.663-11.9.361-29.962-1.065-.24-2.249-.429-2.833-.515-5.941,7.933-9.667,22.424-1.322,29.6a.633.633,0,0,1-.412,1.1Z" transform="translate(-315.601 -918.543)" fill="#000200"/>
      <path id="Path_60568" data-name="Path 60568" d="M726.548,1406.409c-.962,0-2.009-.017-3.142-.086a.612.612,0,0,1-.584-.635.591.591,0,0,1,.635-.584c8.139.412,11.435-.858,12.225-1.219a2.415,2.415,0,0,0-.343-1.958c-.755-.979-2.541-1.408-5.2-1.2-4.619.343-7.95-.773-8.894-2.97-.618-1.425-.086-3.073,1.459-4.482,1.992-1.837,2.833-1.6,3.984-.361a4.389,4.389,0,0,0,3.451,1.648c1.82.1,2.3-.223,2.335-.326.1-.326-.876-1.975-6.439-5.1-3.795-2.129-9.135-1.391-15.917-.446-6.164.858-13.839,1.923-22.682,1.064a.613.613,0,0,1,.12-1.219c8.705.841,16.312-.223,22.407-1.065,7.005-.962,12.534-1.734,16.69.584,7.675,4.31,7.177,5.958,7.023,6.508-.412,1.391-2.8,1.253-3.572,1.2a5.642,5.642,0,0,1-4.275-2.043c-.67-.721-.807-.876-2.249.429-1.15,1.065-1.58,2.164-1.167,3.091.549,1.254,2.885,2.593,7.692,2.232,3.125-.223,5.237.343,6.267,1.7a3.758,3.758,0,0,1,.464,3.314.692.692,0,0,1-.24.309C736.421,1404.881,734.017,1406.409,726.548,1406.409Z" transform="translate(-366.686 -912.724)" fill="#000200"/>
      <path id="Path_60569" data-name="Path 60569" d="M898.786,1496.268a.6.6,0,0,1-.6-.567.592.592,0,0,1,.567-.653c6.233-.515,10.1-1.082,10.972-5.786a.62.62,0,0,1,1.219.223c-1.082,5.855-6.422,6.3-12.071,6.782Z" transform="translate(-541.706 -997.397)" fill="#000200"/>
      <path id="Path_60570" data-name="Path 60570" d="M886.566,1523.253a.6.6,0,0,1-.6-.532.6.6,0,0,1,.532-.687c1.288-.172,2.438-.24,3.468-.292,3.863-.223,5.632-.326,6.4-5.46a.617.617,0,1,1,1.219.189c-.91,6.13-3.554,6.284-7.538,6.508-1,.052-2.129.12-3.365.292A.386.386,0,0,0,886.566,1523.253Z" transform="translate(-531.581 -1019.763)" fill="#000200"/>
      <path id="Path_60571" data-name="Path 60571" d="M338.586,1067.812a232.41,232.41,0,0,1-23.249-.962c-18.012-1.786-28.743-6.336-33.774-14.32-4.378-6.954-4.327-16.4.189-28.9l.155-.429.206-.567c15.35-42.136,31.061-60.938,50.893-60.938h.137a.591.591,0,0,1,.6.618.6.6,0,0,1-.618.6h-.137c-19.231,0-34.581,18.561-49.743,60.148-.069.189-.137.361-.206.55l-.155.429c-4.378,12.105-4.481,21.205-.309,27.816,4.808,7.624,15.247,12,32.847,13.754a268.9,268.9,0,0,0,30.495.91c2.335-.034,4.378-.189,6.988-.395,3.228-.24,7.229-.549,13.393-.721,1.8-.051,3.64-.086,5.46-.12,8.4-.155,17.891-.309,18.733-2.919a.614.614,0,0,1,1.168.378c-1.1,3.451-9.8,3.589-19.866,3.778-1.82.034-3.657.069-5.443.12-6.13.189-10.13.481-13.341.721-2.627.189-4.688.344-7.057.4Q342.114,1067.812,338.586,1067.812Z" transform="translate(-28.277 -560.837)" fill="#000200"/>
      <path id="Path_60572" data-name="Path 60572" d="M591.556,1362.824a.6.6,0,0,1-.5-.258.626.626,0,0,1,.137-.859l2.49-1.786a.61.61,0,0,1,.859.137.626.626,0,0,1-.137.859l-2.49,1.786A.605.605,0,0,1,591.556,1362.824Z" transform="translate(-287.223 -890.584)" fill="#000200"/>
      <path id="Path_60573" data-name="Path 60573" d="M830.76,1014.438a.6.6,0,0,1-.361-.12c-8.225-5.924-34.924-23.025-49.348-24a.592.592,0,0,1-.567-.652.613.613,0,0,1,.652-.567c17.514,1.185,49.657,24,49.983,24.227a.618.618,0,0,1-.361,1.116Z" transform="translate(-444.215 -583.528)" fill="#000200"/>
      <path id="Path_60574" data-name="Path 60574" d="M914.605,980.46c-11.882,0-24.828-3.537-35.817-14.028a.607.607,0,1,1,.841-.876c22.819,21.755,54.344,12.912,66.037,5.22,6.439-4.241,15.385-16,22.579-25.446a135.077,135.077,0,0,1,9-11.161c.841-.824,1.648-1.666,2.421-2.473,2.885-3.022,5.357-5.615,8.087-5.323,1.683.189,3.211,1.477,4.7,3.949,2.644,4.4,4.979,4.636,5.632,4.584a1.457,1.457,0,0,0,1.288-.738,1.38,1.38,0,0,0-.275-1.425c-2.146-2.8-4.155-9.2-2.181-13.445,1.322-2.833,5.014-1.665,9.7-.189a43.037,43.037,0,0,0,9.787,2.249c2.782.189,3.9-.378,4-.67.034-.086-.086-.343-.532-.653a19.009,19.009,0,0,0-4-1.614,30.383,30.383,0,0,1-4.533-1.734c-9.89-5.1-30.495-11.315-43.733-6.319-13.685,5.168-29.945,22.236-30.117,22.407a.634.634,0,0,1-.7.137c-2.97-1.374-5.666-1.528-8.053-.464-4.894,2.2-6.9,8.843-6.92,8.911a.587.587,0,0,1-.549.429c-.069,0-7.263.5-9.22,6.611a.614.614,0,0,1-1.168-.378c1.923-5.992,8.19-7.194,9.89-7.418.532-1.545,2.747-7.143,7.469-9.272a10.332,10.332,0,0,1,8.671.292c2.318-2.387,17.359-17.531,30.271-22.407,13.6-5.134,34.65,1.185,44.729,6.387a29.717,29.717,0,0,0,4.361,1.648,18.754,18.754,0,0,1,4.327,1.769c1.236.876,1.1,1.734.979,2.06-.412,1.15-2.267,1.683-5.237,1.494a43.422,43.422,0,0,1-10.079-2.3c-4.55-1.442-7.4-2.232-8.225-.464-1.7,3.657.034,9.547,2.043,12.174a2.483,2.483,0,0,1-1.906,4.138c-1.065.052-3.829-.326-6.748-5.185-1.271-2.129-2.524-3.228-3.777-3.365-2.112-.24-4.413,2.164-7.057,4.962-.79.824-1.6,1.683-2.455,2.507-1.906,1.854-5.134,6.1-8.877,11.023-7.246,9.53-16.26,21.377-22.871,25.721C940.017,975.961,927.981,980.46,914.605,980.46Z" transform="translate(-525.485 -515.792)" fill="#000200"/>
      <path id="Path_60575" data-name="Path 60575" d="M1290.747,1024.369a.736.736,0,0,1-.189-.034c-.189-.069-19.643-6.422-20.862-25.189a.615.615,0,0,1,.567-.653.625.625,0,0,1,.652.567c1.168,17.943,19.832,24.039,20.021,24.107a.609.609,0,0,1,.395.773A.624.624,0,0,1,1290.747,1024.369Z" transform="translate(-849.428 -591.313)" fill="#000200"/>
      <path id="Path_60576" data-name="Path 60576" d="M1275.879,1038.478h-.1c-.189-.034-18.664-3.28-21.291-25.807a.614.614,0,0,1,1.219-.155c2.524,21.635,20.106,24.725,20.278,24.742a.621.621,0,0,1,.515.7A.638.638,0,0,1,1275.879,1038.478Z" transform="translate(-836.827 -602.485)" fill="#000200"/>
      <path id="Path_60577" data-name="Path 60577" d="M1564.82,987.286a.6.6,0,0,1-.5-.258.61.61,0,0,1,.137-.859,3.089,3.089,0,0,0,1.116-1.923,3.39,3.39,0,0,0-1.047-2.542.608.608,0,0,1,.91-.807,4.442,4.442,0,0,1,1.356,3.486,4.259,4.259,0,0,1-1.614,2.764A.53.53,0,0,1,1564.82,987.286Z" transform="translate(-1093.368 -576.569)" fill="#000200"/>
      <path id="Path_60578" data-name="Path 60578" d="M1592.392,988.406a1.472,1.472,0,0,1-.464-.086c-1.477-.532-1.717-3.383-1.168-5.941.807-3.795-.412-9.014-3.262-13.943a.616.616,0,0,1,1.065-.618c2.988,5.185,4.258,10.732,3.4,14.818-.567,2.644-.034,4.378.378,4.533.189.069.961-.275,2.146-2.593,2.335-4.567-.1-13.239-.944-14.372a.6.6,0,0,1-.36-.446.62.62,0,0,1,.481-.721.809.809,0,0,1,.824.395c1.047,1.391,3.692,10.595,1.082,15.694C1594.469,987.307,1593.4,988.406,1592.392,988.406Z" transform="translate(-1112.595 -565.652)" fill="#000200"/>
      <path id="Path_60579" data-name="Path 60579" d="M1572.949,1006.415a.576.576,0,0,1-.464-.223.6.6,0,0,1,.069-.858c1.854-1.58,4.808-4.67,4.808-6.216a.618.618,0,1,1,1.236,0c0,2.61-4.7,6.7-5.237,7.143A.685.685,0,0,1,1572.949,1006.415Z" transform="translate(-1100.106 -591.319)" fill="#000200"/>
      <path id="Path_60580" data-name="Path 60580" d="M877.911,1240.667a.62.62,0,0,1-.6-.481l-7.383-32.229a.62.62,0,0,1,.395-.721.612.612,0,0,1,.756.326c2.438,5.323,12.758,14.457,12.861,14.543a.608.608,0,0,1-.807.91c-.361-.309-7.3-6.456-11.178-11.727l6.576,28.606a.634.634,0,0,1-.464.738A.5.5,0,0,1,877.911,1240.667Z" transform="translate(-518.29 -764.186)" fill="#000200"/>
      <path id="Path_60581" data-name="Path 60581" d="M877.3,1219.8l.687,4.791s10.3,7.744,10.405,7.744C888.479,1232.352,877.3,1219.8,877.3,1219.8Z" transform="translate(-524.41 -774.621)" fill="#000200"/>
      <path id="Path_60582" data-name="Path 60582" d="M1123.818,1107.213a.615.615,0,0,1-.618-.618v-4.876a.618.618,0,1,1,1.236,0v4.876A.638.638,0,0,1,1123.818,1107.213Z" transform="translate(-728.087 -676.302)" fill="#000200"/>
      <path id="Path_60583" data-name="Path 60583" d="M1100.814,1029.736a.621.621,0,0,1-.618-.584.6.6,0,0,1,.584-.635l26.975-1.339-1.064-17.823a.6.6,0,0,1,.172-.464.623.623,0,0,1,.447-.189h20.175V984.63a.615.615,0,0,1,.618-.618h26.7l-1.03-23.729a.605.605,0,0,1,.532-.635l23.369-2.885V939.369a.623.623,0,0,1,.189-.446.608.608,0,0,1,.446-.172l19.506.927-1.288-20.724a.615.615,0,0,1,.567-.652.627.627,0,0,1,.652.567l1.322,21.411a.582.582,0,0,1-.172.464.663.663,0,0,1-.464.189L1198.874,940v17.325a.6.6,0,0,1-.532.6L1174.99,960.8l1.03,23.8a.608.608,0,0,1-.172.446.624.624,0,0,1-.447.189h-26.734V1009.3a.616.616,0,0,1-.618.618h-20.141l1.065,17.789a.6.6,0,0,1-.154.446.64.64,0,0,1-.429.206l-27.593,1.374Z" transform="translate(-709.032 -524.891)" fill="#000200"/>
      <path id="Path_60584" data-name="Path 60584" d="M1751.1,888.062h-13.032a.6.6,0,0,1-.567-.378.609.609,0,0,1,.155-.67l6.9-6.542a.608.608,0,0,1,.446-.172.585.585,0,0,1,.429.189l6.113,6.542a.637.637,0,0,1,.12.67A.623.623,0,0,1,1751.1,888.062Zm-11.487-1.219h10.062l-4.722-5.065Z" transform="translate(-1236.881 -493.415)" fill="#000200"/>
      <path id="Path_60585" data-name="Path 60585" d="M1001.452,1395.989a.624.624,0,0,0-.446-.189H978.718a.624.624,0,0,0-.446.189.648.648,0,0,0-.172.464l1.854,28.228a.606.606,0,0,0,.618.567h19.111a.62.62,0,0,0,.618-.584l1.322-28.228A.723.723,0,0,0,1001.452,1395.989Zm-3.795,19.54a.618.618,0,1,1-1.236,0v-11.384a.618.618,0,1,1,1.236,0Z" transform="translate(-607.901 -920.401)" fill="#000200"/>
      <path id="Path_60586" data-name="Path 60586" d="M957.46,1426.836h-4.842a.618.618,0,0,1,0-1.236h4.842a.618.618,0,1,1,0,1.236Z" transform="translate(-586.283 -945.084)" fill="#000200"/>
      <path id="Path_60587" data-name="Path 60587" d="M909.367,1435.612a.581.581,0,0,1-.549-.361c-.051-.12-1.3-3.091,1.872-6.181a.607.607,0,1,1,.841.876c-2.541,2.473-1.648,4.722-1.6,4.808a.618.618,0,0,1-.326.807A.673.673,0,0,1,909.367,1435.612Z" transform="translate(-550.278 -947.817)" fill="#000200"/>
      <path id="Path_60588" data-name="Path 60588" d="M946.218,1521.6a.618.618,0,1,1,0-1.236c5.855-.017,6.954,0,7.005,0a.616.616,0,0,1,.6.635.6.6,0,0,1-.635.6C953.172,1521.6,952.039,1521.565,946.218,1521.6Z" transform="translate(-580.982 -1023.57)" fill="#000200"/>
    </g>
  </g>
</svg>
