<svg xmlns="http://www.w3.org/2000/svg" width="291" height="291" viewBox="0 0 291 291">
  <g id="step_2" data-name="step 2" transform="translate(-410 -1875)">
    <circle id="Ellipse_869" data-name="Ellipse 869" cx="145.5" cy="145.5" r="145.5" transform="translate(410 1875)" fill="#ecedf4"/>
    <g id="_20" data-name="20" transform="translate(365.553 1838.784)">
      <g id="Objects">
        <path id="Path_60365" data-name="Path 60365" d="M176.991,46.283V72.85l22.587,73.068,74.794-.291V50.354Z" fill="#fed6c2"/>
        <path id="Path_60366" data-name="Path 60366" d="M65.563,71.033v77.157a126.455,126.455,0,0,0,49.718-77.157Z" fill="#f674b4"/>
        <path id="Path_60367" data-name="Path 60367" d="M302.9,327.216l-.618-17.572-1.127-32.109-1.2-33.836a50.257,50.257,0,0,0-13.865,5.288l.018-.018-12.993-10.412L251.1,265.178l12.03,15.846.036-.055a58.022,58.022,0,0,0-1.345,12.429,53.28,53.28,0,0,0,.491,7.069l-.491.055-14.228,9.3,7.105,17.372H302.9Z" fill="#7baeed"/>
        <path id="Path_60368" data-name="Path 60368" d="M238.448,208.737l-3.871,2.108-8.886,4.852L226.8,229.58l11.648,8.977L252.8,228.508V215.7Z" fill="#7baeed"/>
        <path id="Path_60369" data-name="Path 60369" d="M289.056,151.787l-.509.091v5.488l-8.94,2.653a34.933,34.933,0,0,1-3.071,12.466l5.451,11.339-13.865,9.94-6.505-5.978c-.745.363-1.49.727-2.271,1.036a36.634,36.634,0,0,1-12.884,2.544c-.254.018-.491.018-.745.018a34.065,34.065,0,0,1-10.321-1.6l-7.523,4.67-11.012-7.487,3.78-6.669a33.812,33.812,0,0,1-6.306-9.831c-.382-.89-.709-1.8-1.018-2.726l-8.995-.382-2.471-16.536,4.743-.745,5.742.127,6.942.145,15.191.309,22.551.454,21.006.436,1.217.036Z" fill="#7baeed"/>
        <path id="Path_60370" data-name="Path 60370" d="M132.435,229.562l3.325,8.995,5.779-8.85Z" fill="#7baeed"/>
        <path id="Path_60371" data-name="Path 60371" d="M300.086,103.069q-3.462,4.279-6.942,8.559c-.618.763.454,1.854,1.09,1.09q3.462-4.279,6.942-8.559C301.794,103.378,300.722,102.288,300.086,103.069Z" fill="#7baeed"/>
        <path id="Path_60372" data-name="Path 60372" d="M189.475,135.76l-4.361-4.634c-.672-.727-1.763.363-1.09,1.09l4.361,4.634C189.076,137.577,190.148,136.487,189.475,135.76Z" fill="#f674b4"/>
        <path id="Path_60373" data-name="Path 60373" d="M118.915,247.007q-5.07-6.515-10.122-13.011c-.6-.781-1.69.309-1.09,1.09q5.07,6.515,10.122,13.011C118.442,248.86,119.515,247.77,118.915,247.007Z" fill="#7baeed"/>
        <path id="Path_60374" data-name="Path 60374" d="M229.907,56.768l-5.288-7.8c-.545-.818-1.872-.036-1.327.781l5.288,7.8C229.126,58.349,230.452,57.586,229.907,56.768Z" fill="#000200"/>
        <path id="Path_60375" data-name="Path 60375" d="M223.129,63.383c-3.362-1.635-6.742-3.271-10.1-4.906-.89-.436-1.654.89-.781,1.327,3.362,1.635,6.742,3.271,10.1,4.906C223.238,65.127,224.02,63.8,223.129,63.383Z" fill="#000200"/>
      </g>
      <g id="Frame_1">
        <path id="PC" d="M205.484,104.25a.762.762,0,0,0-.654-.145l-8.323,1.963a.781.781,0,0,0-.581.618L176.719,217.9a.757.757,0,0,0,.745.89l27.512.6h.018a.7.7,0,0,0,.527-.218.788.788,0,0,0,.236-.545V104.85A.7.7,0,0,0,205.484,104.25Z" fill="#000200"/>
        <g id="Woman">
          <path id="Path_60376" data-name="Path 60376" d="M167.96,137.087a.762.762,0,0,1-.636-.345.784.784,0,0,1,.2-1.072,9.063,9.063,0,0,0,3.725-7.723,9.226,9.226,0,0,0-3.816-7.632.771.771,0,0,1,.872-1.272,10.671,10.671,0,0,1,4.488,8.886,10.529,10.529,0,0,1-4.4,8.977A.576.576,0,0,1,167.96,137.087Z" fill="#000200"/>
          <path id="Path_60377" data-name="Path 60377" d="M128.473,156.875c-8.522,6.415-23.078,2.144-26.967-7.559-3.616-9.031,2.235-16.155,11.194-19.117-1.835-7.014-2.271-16.391,2.362-24.041a20.839,20.839,0,0,1,13.847-9.722,20.481,20.481,0,0,1,2.98-.327h.018c.382.636.763,1.29,1.145,1.944-4.688,5.379-5.76,12.557-6.178,19.553-.236,3.889-.291,7.777-.836,11.648-.436,3.107,1.381,3.289,3.362,5.179C136.614,141.321,134.6,152.278,128.473,156.875Z" fill="#000200"/>
          <path id="Path_60378" data-name="Path 60378" d="M127.728,127.347c.636-8.722,4.834-22.351,4.834-22.351,3.907,3.616,31.546,5.07,34.744,3.416-1.29-7.105-6.36-13.52-21.9-13.52-18.39,0-24.513,7.668-24.513,19.916v12.266l.145.254C123.73,127.019,125.021,127.347,127.728,127.347Z" fill="#000200"/>
          <path id="Path_60379" data-name="Path 60379" d="M155.64,137.45a.763.763,0,0,1,0-1.526,4.268,4.268,0,0,0,3.162-1.018,1.558,1.558,0,0,0,.327-1.345c-.2-1.217-2.889-1.89-4.161-2.035a.769.769,0,0,1-.691-.763v-7.014a.763.763,0,1,1,1.526,0v6.36c1.417.254,4.47,1.036,4.834,3.2a3.125,3.125,0,0,1-.672,2.6A5.651,5.651,0,0,1,155.64,137.45Z" fill="#000200"/>
          <path id="Path_60380" data-name="Path 60380" d="M159.983,122.44v1.526a1.536,1.536,0,0,0,3.071,0V122.44A1.536,1.536,0,0,0,159.983,122.44Z" fill="#000200"/>
          <path id="Path_60381" data-name="Path 60381" d="M141.539,122.44v1.526a1.536,1.536,0,0,0,3.071,0V122.44A1.536,1.536,0,0,0,141.539,122.44Z" fill="#000200"/>
          <path id="Path_60382" data-name="Path 60382" d="M142.12,115.026a20.357,20.357,0,0,0-3.58,1.09c-.909.382-.127,1.708.781,1.327a17.687,17.687,0,0,1,3.216-.945C143.483,116.3,143.083,114.826,142.12,115.026Z" fill="#000200"/>
          <path id="Path_60383" data-name="Path 60383" d="M163.435,114.445c-.872-.363-1.8-.581-2.635-1-.872-.436-1.726.818-.854,1.272.963.491,2,.763,2.98,1.181C163.835,116.262,164.326,114.826,163.435,114.445Z" fill="#000200"/>
          <path id="Path_60384" data-name="Path 60384" d="M146.063,144.373c-1.145-.182-2.671-.709-2.744-2.072-.055-.981-1.6-.981-1.526,0,.127,2.09,1.963,3.253,3.871,3.543C146.627,146.009,147.026,144.519,146.063,144.373Z" fill="#000200"/>
          <path id="Path_60385" data-name="Path 60385" d="M168.632,121.931c-.018-1.381-.055-2.8-.073-4.252-.036-1.726-.073-3.507-.091-5.342-.2-12.066-7.959-18.208-23.06-18.208-17.245,0-25.277,6.578-25.277,20.679v12.266a.763.763,0,0,0,1.526,0V114.808c0-13.247,7.323-19.153,23.75-19.153,14.3,0,21.333,5.47,21.515,16.7.018,1.835.055,3.616.091,5.342.036,1.454.055,2.871.073,4.252.127,6.233.218,11.775.091,16.573-.291,10.758-1.581,18.535-6.833,21.588-6.36,3.671-17.845,2.962-17.954,2.962a.77.77,0,0,0-.672.309.756.756,0,0,0-.109.727c1.926,5.143,8.377,7.214,8.65,7.3a.921.921,0,0,0,.236.036.8.8,0,0,0,.709-.454l2.98-6.778a.7.7,0,0,0,.055-.382,22.8,22.8,0,0,0,6.869-2.4c5.869-3.416,7.287-11.612,7.6-22.878C168.851,133.743,168.76,128.182,168.632,121.931Z" fill="#000200"/>
          <path id="Path_60386" data-name="Path 60386" d="M122.858,138.9c-3.471,0-5.415-1.145-6.451-2.144a5.737,5.737,0,0,1-1.781-4.143,5.213,5.213,0,0,1,1.654-3.852c1.963-1.854,5.506-2.671,10.521-2.417a.769.769,0,0,1,.727.8.779.779,0,0,1-.8.727c-4.525-.236-7.777.454-9.395,2a3.671,3.671,0,0,0-1.181,2.744,4.151,4.151,0,0,0,1.327,3.035c1.272,1.217,3.344,1.817,6,1.708a.782.782,0,0,1,.8.727.769.769,0,0,1-.727.8C123.294,138.9,123.076,138.9,122.858,138.9Z" fill="#000200"/>
          <path id="Path_60387" data-name="Path 60387" d="M87.533,215.533a.794.794,0,0,1-.763-.636c-1.963-11.575-5.779-49.99,27.548-58.113a.767.767,0,1,1,.363,1.49c-32.037,7.814-28.311,45.12-26.4,56.368a.778.778,0,0,1-.636.89Z" fill="#000200"/>
          <path id="Path_60388" data-name="Path 60388" d="M145.1,172.975a18.2,18.2,0,0,1-6.306-1.163c-3.852-1.454-10.54-5.433-11.884-15.809a.761.761,0,0,1,1.508-.2c1.254,9.576,7.378,13.247,10.9,14.574,4.561,1.708,9.013,1.217,10.685-.254a.776.776,0,0,1,1.09.073.753.753,0,0,1-.073,1.072A9.167,9.167,0,0,1,145.1,172.975Z" fill="#000200"/>
          <path id="Path_60389" data-name="Path 60389" d="M183.733,200.251a.758.758,0,0,1-.727-.545c-5.215-17.663-14.392-28.166-30.656-35.126a.761.761,0,1,1,.6-1.4c16.736,7.16,26.149,17.972,31.51,36.107a.751.751,0,0,1-.509.945C183.878,200.233,183.806,200.251,183.733,200.251Z" fill="#000200"/>
          <path id="Path_60390" data-name="Path 60390" d="M127.655,217.6a.79.79,0,0,1-.745-.563l-6.76-24.277a.765.765,0,0,1,1.472-.418l6.76,24.277a.776.776,0,0,1-.527.945A.36.36,0,0,1,127.655,217.6Z" fill="#000200"/>
          <path id="Path_60391" data-name="Path 60391" d="M143.265,218.059a.717.717,0,0,1-.545-.236.773.773,0,0,1,.018-1.09c14.137-13.538,27-19.644,34.417-16.318,8.4,3.78,8.668,10.739,8.668,11.048a.768.768,0,0,1-.745.781.793.793,0,0,1-.781-.745c0-.254-.291-6.324-7.777-9.685-6.833-3.071-19.062,2.926-32.727,16.027A.759.759,0,0,1,143.265,218.059Z" fill="#000200"/>
          <path id="Path_60392" data-name="Path 60392" d="M182.425,214.389a.76.76,0,0,1-.763-.727c-.145-2.435-.218-3.562-5.6-7.3a.769.769,0,1,1,.89-1.254c5.506,3.834,6.051,5.288,6.251,8.486a.784.784,0,0,1-.727.818A.067.067,0,0,0,182.425,214.389Z" fill="#000200"/>
          <path id="Path_60393" data-name="Path 60393" d="M177.482,216.369a.774.774,0,0,1-.763-.727c0-.018-.236-3.053-4.016-6.378a.766.766,0,1,1,1.018-1.145c4.307,3.78,4.525,7.3,4.543,7.45a.769.769,0,0,1-.727.8Z" fill="#000200"/>
          <path id="Path_60394" data-name="Path 60394" d="M172.721,218.677a.771.771,0,0,1-.763-.709c-.018-.109-.291-2.8-4.161-5.161a.767.767,0,1,1,.8-1.308c4.6,2.8,4.888,6.215,4.888,6.36a.769.769,0,0,1-.709.818Z" fill="#000200"/>
          <path id="Path_60395" data-name="Path 60395" d="M122.495,122.15a.784.784,0,0,1-.745.8h-.018a.764.764,0,0,1-.763-.745c-.291-9.068.618-19.244,7.941-25.785a20.48,20.48,0,0,1,2.98-.327C123.24,102.143,122.2,112.791,122.495,122.15Z" fill="#fff"/>
          <path id="Path_60396" data-name="Path 60396" d="M139.085,151.842a1.249,1.249,0,0,1-.236-.036c-.472-.145-11.812-3.816-16.1-14.846a.771.771,0,0,1,1.436-.563c4.034,10.34,15.028,13.919,15.137,13.938a.771.771,0,0,1-.236,1.508Z" fill="#fff"/>
          <ellipse id="Ellipse_873" data-name="Ellipse 873" cx="8.959" cy="9.831" rx="8.959" ry="9.831" transform="translate(114.499 120.95)" fill="#fff"/>
          <path id="Path_60397" data-name="Path 60397" d="M123.458,141.375c-5.451,0-9.722-4.652-9.722-10.594,0-5.833,4.361-10.594,9.722-10.594s9.722,4.743,9.722,10.594C133.2,136.9,129.091,141.375,123.458,141.375Zm0-19.662c-4.525,0-8.2,4.07-8.2,9.049,0,5.161,3.525,9.049,8.2,9.049,4.743,0,8.2-3.816,8.2-9.049C131.653,125.784,127.983,121.713,123.458,121.713Z" fill="#000200"/>
          <path id="Path_60398" data-name="Path 60398" d="M140.921,149.189c7.014,1.217,5.706,6.705-.654,4.052C132.326,149.934,132.453,147.717,140.921,149.189Z" fill="#000200"/>
          <path id="Path_60399" data-name="Path 60399" d="M124.694,125.239c-.818-.545-1.581.781-.781,1.327a5.036,5.036,0,0,1,.036,8.486c-.8.563-.036,1.89.781,1.327A6.607,6.607,0,0,0,124.694,125.239Z" fill="#000200"/>
          <path id="Path_60400" data-name="Path 60400" d="M172.012,200.251a.742.742,0,0,1-.709-.491l-2.072-5.4a.771.771,0,0,1,1.436-.563l2.072,5.4a.779.779,0,0,1-.436,1A.823.823,0,0,1,172.012,200.251Z" fill="#000200"/>
        </g>
        <path id="Frame" d="M205.012,219.4h0L65.545,216.369a.752.752,0,0,1-.745-.763V71.033a.768.768,0,0,1,.763-.763H205.012a.768.768,0,0,1,.763.763V218.641a.788.788,0,0,1-.236.545A.773.773,0,0,1,205.012,219.4ZM66.326,214.843l137.922,3V71.8H66.326Z" fill="#000200"/>
      </g>
      <g id="Frame_3">
        <path id="Blank" d="M150.1,235.1c6.76-1.963,31.11-.709,43.612,1.508,15.973,2.835,21.933,7.668,21.933,7.668l-3.362,5.415s14.81,8.032,16.136,12.847S222,274.718,222,274.718s.018,7.287-3.725,8.086-4.725,1.581-4.725,1.581,1.526,8.3-1.944,10.976a7.884,7.884,0,0,1-6.705,1.69s-1.563,7.923-3.162,9.249-11.666,2.344-13.32,1.436l6.505-6.814s-10.122-8.086-14.555-8.25l-4.416-.164-3.38,6.033s-4.052-.127-3.144-4.016l.909-3.871-18.426.055Z" fill="#fff"/>
        <path id="Frame_1_" d="M309.571,321.964H152.532a.752.752,0,0,1-.763-.745l-2-103.905a.78.78,0,0,1,.745-.781h.018a.752.752,0,0,1,.763.745l2,103.142H308.79l-6.069-173.757-99.6-2.017a.756.756,0,0,1-.745-.781.716.716,0,0,1,.781-.745l100.289,2.035a.748.748,0,0,1,.745.745l6.124,175.283a.813.813,0,0,1-.218.563A.773.773,0,0,1,309.571,321.964Z" fill="#000200"/>
        <g id="Gear_3">
          <path id="Path_60401" data-name="Path 60401" d="M308.608,271.484a.816.816,0,0,0-.418-.654.757.757,0,0,0-.781.055,17.025,17.025,0,0,0-3.016,2.708l-.672.8a18.467,18.467,0,0,0-1.563,2.308,21.475,21.475,0,0,0-2.726,10.685,20.156,20.156,0,0,0,9.122,16.881.707.707,0,0,0,.418.127.976.976,0,0,0,.382-.091.729.729,0,0,0,.382-.691Z" fill="#000200"/>
          <path id="Path_60402" data-name="Path 60402" d="M309.571,321.964H261.38a.752.752,0,0,1-.709-.472l-7.105-17.372a.749.749,0,0,1,.291-.927l14.228-9.3c.018-.018.036-.018.055-.036a52.155,52.155,0,0,1-.418-6.451,58.317,58.317,0,0,1,1.272-12.175l-11.83-15.591a.764.764,0,0,1,.018-.945l22.024-26.621a.756.756,0,0,1,1.072-.109l12.593,10.1a50.931,50.931,0,0,1,13.592-5.106.763.763,0,0,1,.927.727l2.926,83.517a.812.812,0,0,1-.218.563A.852.852,0,0,1,309.571,321.964Zm-28.2-1.545h27.4l-2.871-81.79a49.331,49.331,0,0,0-12.756,5,.753.753,0,0,1-.945-.164c-.018-.018-.036-.055-.055-.073L279.915,233.6l-21.17,25.567,11.539,15.191a.758.758,0,0,1,.309.763,57.893,57.893,0,0,0-1.327,12.266,50.582,50.582,0,0,0,.491,6.96.746.746,0,0,1-.145.581.737.737,0,0,1-.527.291l-.309.036-13.538,8.85,6.687,16.318h19.444Z" fill="#000200"/>
        </g>
        <g id="Gear_2">
          <path id="Path_60403" data-name="Path 60403" d="M247.552,210.972a4.5,4.5,0,0,0-3.489,1.49l-.145.182a4.064,4.064,0,0,0-.363.545,4.946,4.946,0,0,0-.618,2.435,4.589,4.589,0,0,0,.363,1.781,4.649,4.649,0,0,0,4.361,2.835h0a5.139,5.139,0,0,0,1.744-.345,4.3,4.3,0,0,0,1.508-1,4.582,4.582,0,0,0,1.29-3.289A4.657,4.657,0,0,0,247.552,210.972Z" fill="#000200"/>
          <path id="Path_60404" data-name="Path 60404" d="M245.117,233.305a.784.784,0,0,1-.472-.164L233,224.165a.776.776,0,0,1-.291-.545L231.6,209.737a.75.75,0,0,1,.4-.727l12.756-6.978a.752.752,0,0,1,.709-.018l14.356,6.978a.759.759,0,0,1,.436.691v12.811a.792.792,0,0,1-.327.636l-14.356,10.049A1.072,1.072,0,0,1,245.117,233.305ZM234.2,223.165l10.939,8.413,13.574-9.5V210.155l-13.574-6.6L233.16,210.1Z" fill="#000200"/>
        </g>
        <g id="Wrench">
          <path id="Path_60405" data-name="Path 60405" d="M212.281,249.7a.774.774,0,0,1-.618-1.218l8.831-12.393L218.259,216.9a.793.793,0,0,1,.254-.672L234.6,202.086a.768.768,0,0,1,.763-.145l6.16,2.108a.77.77,0,0,1-.509,1.454l-5.742-1.963-15.446,13.574,2.217,19.08a.693.693,0,0,1-.145.527L212.9,249.351A.712.712,0,0,1,212.281,249.7Z" fill="#000200"/>
          <path id="Path_60406" data-name="Path 60406" d="M226.836,259.618a.841.841,0,0,1-.454-.145.76.76,0,0,1-.164-1.072l8.25-11.448a.766.766,0,0,1,.618-.309h18.7l10.7-22.9-2.4-10.9-2.708-.345a.786.786,0,0,1-.672-.854.753.753,0,0,1,.854-.672l3.253.4a.752.752,0,0,1,.654.6l2.562,11.7a.757.757,0,0,1-.055.491l-11.012,23.569a.759.759,0,0,1-.691.436H235.486l-8.032,11.121A.736.736,0,0,1,226.836,259.618Z" fill="#000200"/>
          <path id="Path_60407" data-name="Path 60407" d="M185.332,293.8a49.19,49.19,0,0,0-7.886-2.508c-.018,0-.055-.018-.073-.018-.055-.018-.109-.018-.145-.036-.436.418-.872.854-1.29,1.308h0l-7.814,10.812a10.214,10.214,0,0,0,16.627,11.866l10.013-13.756a.752.752,0,0,0,.145-.527C194.872,300.595,194.345,297.415,185.332,293.8Zm-1.817,20.534a8.683,8.683,0,0,1-14.137-10.085l8.2-11.357a46.418,46.418,0,0,1,7.2,2.326c6.687,2.689,8.214,4.961,8.522,5.651Z" fill="#000200"/>
        </g>
        <g id="Hand">
          <path id="Path_60408" data-name="Path 60408" d="M216.06,244.408a.707.707,0,0,1-.418-.127c-10.994-7.087-41.613-12.375-64.655-8.541a.774.774,0,0,1-.254-1.526c23.75-3.943,54.279,1.381,65.727,8.777a.77.77,0,0,1-.4,1.417Z" fill="#000200"/>
          <path id="Path_60409" data-name="Path 60409" d="M222.6,275.009a.739.739,0,0,1-.6-.291.754.754,0,0,1,.109-1.072c.055-.055,6.178-5.052,5.706-9.685-.491-4.67-10.212-11.03-19.607-15.264a.768.768,0,0,1,.636-1.4c9.522,4.288,19.916,10.867,20.516,16.5.581,5.47-5.978,10.812-6.269,11.03A.749.749,0,0,1,222.6,275.009Z" fill="#000200"/>
          <path id="Path_60410" data-name="Path 60410" d="M213.771,285.912a.791.791,0,0,1-.745-.563.776.776,0,0,1,.527-.945c4.979-1.4,7.614-3.834,7.814-7.25.345-5.779-6.487-13.084-9.377-14.265a.766.766,0,0,1,.581-1.417c3.162,1.29,10.721,8.995,10.321,15.773-.164,2.853-1.853,6.651-8.922,8.632A.939.939,0,0,1,213.771,285.912Z" fill="#000200"/>
          <path id="Path_60411" data-name="Path 60411" d="M207.211,298.25a6.777,6.777,0,0,1-1.8-.218.758.758,0,0,1-.509-.945.776.776,0,0,1,.945-.527,5.756,5.756,0,0,0,4.089-.545,7.224,7.224,0,0,0,3.089-4.852c1.726-7.178-3.707-13.574-8.3-15.428a.766.766,0,1,1,.581-1.417c4.906,1.981,11.23,8.831,9.213,17.208-.672,2.8-1.963,4.761-3.834,5.833A7.127,7.127,0,0,1,207.211,298.25Z" fill="#000200"/>
          <path id="Path_60412" data-name="Path 60412" d="M194.164,308.935a45.227,45.227,0,0,1-5.07-.327.769.769,0,0,1,.182-1.526c11.957,1.4,13.647-1.744,15.01-7.069,1.581-6.16-2.926-9.885-6.978-11.939a.772.772,0,1,1,.691-1.381c6.433,3.271,9.195,8.123,7.759,13.7C204.485,305.319,202.8,308.935,194.164,308.935Z" fill="#000200"/>
          <path id="Path_60413" data-name="Path 60413" d="M175.919,292.563a20.286,20.286,0,0,1,6.923,1.908c.636.236,1.272.472,1.944.745,5.161,2.072,7.232,3.907,8.068,4.943a9.623,9.623,0,0,1,1.054,1.054c.182.218.363.472.527.709l.345-.472a.752.752,0,0,0,.145-.527c-.036-.345-.563-3.525-9.576-7.141a49.191,49.191,0,0,0-7.886-2.508c-.018,0-.055-.018-.073-.018-5.579-1.217-12.03-1.49-24.8-2.035l-.618-.018a.8.8,0,0,0-.8.727.769.769,0,0,0,.727.8l.618.018c11.83.491,18.172.763,23.441,1.763Z" fill="#000200"/>
          <path id="Path_60414" data-name="Path 60414" d="M172.012,299.9a.728.728,0,0,1-.527-.218c-3.016-2.907-3.562-4.525-1.181-8.995a.764.764,0,0,1,1.345.727c-2.035,3.8-1.672,4.688.89,7.16a.773.773,0,0,1,.018,1.09A.788.788,0,0,1,172.012,299.9Z" fill="#000200"/>
        </g>
        <g id="Gear_1">
          <path id="Path_60415" data-name="Path 60415" d="M234.541,189.2a.762.762,0,0,1-.436-.127l-11.012-7.487a.773.773,0,0,1-.236-1.018l3.507-6.178a34.692,34.692,0,0,1-6.087-9.631c-.291-.672-.563-1.4-.872-2.29l-8.468-.363a.775.775,0,0,1-.727-.654l-2.471-16.536a.773.773,0,0,1,.636-.872l4.743-.745,82.59,1.672a.767.767,0,0,1,.236,1.49v4.852a.742.742,0,0,1-.545.727l-8.432,2.508a35.816,35.816,0,0,1-2.944,11.866l5.306,11.012a.789.789,0,0,1-.236.963l-13.865,9.94a.768.768,0,0,1-.963-.055l-6.124-5.615c-.618.291-1.217.581-1.854.836a37.12,37.12,0,0,1-13.156,2.6c-.254.018-.491.018-.763.018a35.04,35.04,0,0,1-10.212-1.526l-7.232,4.488A.54.54,0,0,1,234.541,189.2Zm-9.994-8.468,10.013,6.8,7.105-4.416a.774.774,0,0,1,.636-.073,33.569,33.569,0,0,0,10.085,1.563c.254,0,.454,0,.709-.018a35.866,35.866,0,0,0,12.647-2.49c.691-.273,1.345-.581,2-.909l.218-.109a.745.745,0,0,1,.854.127l6.051,5.561,12.847-9.213L282.532,166.8a.751.751,0,0,1,0-.654,34.277,34.277,0,0,0,3-12.193.759.759,0,0,1,.545-.691l8.377-2.49V146.5l-81.209-1.654-3.852.618,2.253,15.155,8.359.363a.742.742,0,0,1,.691.527c.345,1.072.654,1.89.981,2.671a33.194,33.194,0,0,0,6.178,9.613.772.772,0,0,1,.109.89Z" fill="#000200"/>
          <path id="Path_60416" data-name="Path 60416" d="M264.36,144.737a.8.8,0,0,0-.654-.4l-22.551-.454a.779.779,0,0,0-.691.4,14.515,14.515,0,0,0-1.763,7.069,13.656,13.656,0,0,0,13.683,13.683h.291A14.376,14.376,0,0,0,257.855,164a12.911,12.911,0,0,0,4.452-2.926,13.511,13.511,0,0,0,3.78-9.722A13.755,13.755,0,0,0,264.36,144.737Z" fill="#000200"/>
        </g>
      </g>
      <g id="Object">
        <path id="Path_60417" data-name="Path 60417" d="M71.033,91.567l-12.684,8.886,1.018,9.158,13.411-8.65Z" fill="#fff"/>
        <path id="Path_60418" data-name="Path 60418" d="M59.367,110.374a.713.713,0,0,1-.327-.073.788.788,0,0,1-.436-.6l-1.018-9.158a.748.748,0,0,1,.327-.709L70.6,90.949a.8.8,0,0,1,.727-.091.783.783,0,0,1,.472.563l1.744,9.395a.747.747,0,0,1-.345.781l-13.411,8.65A.707.707,0,0,1,59.367,110.374Zm-.2-9.558.818,7.469,11.939-7.7-1.436-7.723Z" fill="#000200"/>
      </g>
      <g id="Frame_2">
        <g id="Hand_1_">
          <path id="Path_60419" data-name="Path 60419" d="M279.734,76.048c-.055,0-.091.018-.145.018a125.684,125.684,0,0,1-25.858-1.508c-1.454-.509-2.907-1.054-4.361-1.708-5.869-5.688-4.943-21.3-7.087-21.7-3.852-.745-5.488,4.67-5.978,7.959-.8,5.361.436,12.865,1.108,18.244-1.054-.454-23.623-.581-25.567,1.908-2.907,3.707-4.852,5.124.927,9.213-.472,1.508-2.108,3.543-1.763,6.087s2.689,3.4,2.126,3.871c.745,2.017-1.127,3.6,3.035,7.178,1.036-.145,2.271,2.58,2.271,2.58a1.98,1.98,0,0,1-.055.472,4.916,4.916,0,0,0,1.89,3.543c.854.672,8.9,3.616,12.339,3.253.545.055,26.458-2.09,29.147-2.308,6.015-.491,12.011.418,18.044.273V76.048Z" fill="#fff"/>
          <path id="Path_60420" data-name="Path 60420" d="M252.367,100.6a.617.617,0,0,1-.345-.091c-5.306-2.689-13.629-15.155-15.355-23.005-.8-3.652-4.47-22.078,2.435-26.149,1.036-.618,2.562-1.345,3.78-.709,1.6.818,1.817,3.4,2.162,7.287.182,1.963.382,4.2.781,6.687,1.472,9.14,8.977,10.43,33.963,10.122a.759.759,0,0,1,.781.763.783.783,0,0,1-.763.781c-26.022.309-33.836-1.145-35.489-11.412-.418-2.544-.618-4.8-.781-6.8-.273-3.016-.509-5.615-1.345-6.051-.273-.145-.909-.145-2.308.672-4.343,2.562-4,14.138-1.726,24.5,1.744,7.941,10.031,19.68,14.555,21.969a.782.782,0,0,1,.345,1.036A.817.817,0,0,1,252.367,100.6Z" fill="#000200"/>
          <path id="Path_60421" data-name="Path 60421" d="M222.675,90.894c-6.651,0-10.794-1-12.9-3.107a5.181,5.181,0,0,1-1.545-4.034,5.753,5.753,0,0,1,1.981-4.252c3.58-3.2,12.248-4.125,27.276-2.926a.765.765,0,1,1-.109,1.526c-14.374-1.145-22.933-.327-26.131,2.544a4.242,4.242,0,0,0-1.472,3.162,3.69,3.69,0,0,0,1.108,2.889c2.053,2.035,6.8,2.889,14.555,2.617,3.834-.145,6.269-1.817,6.324-3.289.073-1.672-2.744-3.98-10.885-4.961a.769.769,0,0,1,.182-1.526c11.23,1.345,12.3,5.034,12.248,6.542-.109,2.6-3.4,4.6-7.814,4.761C224.492,90.876,223.565,90.894,222.675,90.894Z" fill="#000200"/>
          <path id="Path_60422" data-name="Path 60422" d="M235.413,92.6a9.631,9.631,0,0,0-5.815-3.562.766.766,0,1,0-.273,1.508,8.259,8.259,0,0,1,4.906,3.016c1.018,1.272,1.308,2.326.836,3.162-1.563,2.744-10.194,3.416-15.446,2.689-4.07-.563-6.578-1.763-7.469-3.543-.781-1.563-.418-3.78,1.09-6.6a6.951,6.951,0,0,1-1.363-.709c-1.763,3.325-2.126,5.942-1.09,8,1.145,2.29,3.961,3.725,8.632,4.379a33.067,33.067,0,0,0,4.579.291c4.924,0,10.812-.909,12.411-3.725C236.958,96.509,237.23,94.856,235.413,92.6Z" fill="#000200"/>
          <path id="Path_60423" data-name="Path 60423" d="M227.763,108.539c-.945,0-1.908-.036-2.926-.109-4.543-.309-10.031-1.8-11.812-5.052a5.2,5.2,0,0,1,.254-5.2.758.758,0,0,1,1.036-.309.774.774,0,0,1,.309,1.036,3.705,3.705,0,0,0-.254,3.725c1.381,2.526,6.306,3.961,10.576,4.252,9.885.691,15.628-2.344,15.809-4.706.109-1.29-1.763-2.78-6.2-3.18a.772.772,0,0,1-.691-.836.761.761,0,0,1,.836-.691c7.341.691,7.65,3.871,7.578,4.834C242.028,105.559,236.594,108.539,227.763,108.539Z" fill="#000200"/>
          <path id="Path_60424" data-name="Path 60424" d="M238.284,105.6a22.055,22.055,0,0,1-2.108.963.74.74,0,0,0,.672.454c3.144.109,5.161,1.2,5.124,2.762-.055,2.108-3.889,4.943-10.848,4.852-4.761-.073-9.922-2-11.521-4.307a3.669,3.669,0,0,1-.2-2.8c.145-.4-.218-.164-.6-.309-.4-.145-.691-.618-.836-.218a5.092,5.092,0,0,0,.382,4.2c2.072,3.016,8.1,4.888,12.756,4.961h.418c7.414,0,11.9-3.2,11.993-6.342C243.554,108.03,242.173,106.086,238.284,105.6Z" fill="#000200"/>
          <path id="Path_60425" data-name="Path 60425" d="M279.843,112.7a329.114,329.114,0,0,0-41.667,1.127c-1.417.472-2.871.872-4.288,1.345a.745.745,0,0,0,.745.581h.091c20.461-2.562,44.793-1.545,45.029-1.526a.758.758,0,0,0,.8-.727A.742.742,0,0,0,279.843,112.7Z" fill="#000200"/>
          <path id="Path_60426" data-name="Path 60426" d="M267.522,113.009a.76.76,0,0,0-.145.618c.527,0,1.036,0,1.563.036,6.887-9.522,3.852-32.291-3.4-38.633a.775.775,0,0,0-1.09.073.792.792,0,0,0,.073,1.09C271.284,82.081,274.137,104.341,267.522,113.009Z" fill="#000200"/>
        </g>
        <path id="Frame_2_" d="M205.012,137.377a.763.763,0,0,1,0-1.526l74.031-.291V41.795l-95.855-4.016V71.033a.763.763,0,0,1-1.526,0V36.979a.755.755,0,0,1,.236-.545.813.813,0,0,1,.563-.218l97.382,4.07a.76.76,0,0,1,.727.763v95.274a.768.768,0,0,1-.763.763l-74.794.291Z" fill="#000200"/>
      </g>
    </g>
  </g>
</svg>
