<svg xmlns="http://www.w3.org/2000/svg" width="32" height="32" viewBox="0 0 32 32">
  <g id="volunteer_activism_black_24dp" transform="translate(0.48)">
    <g id="Group_19437" data-name="Group 19437" transform="translate(0)">
      <rect id="Rectangle_7091" data-name="Rectangle 7091" width="32" height="32" transform="translate(-0.48)" fill="none"/>
    </g>
    <g id="Group_19441" data-name="Group 19441" transform="translate(1.519 3)">
      <g id="Group_19440" data-name="Group 19440">
        <g id="Group_19439" data-name="Group 19439">
          <g id="Group_19438" data-name="Group 19438">
            <path id="Path_60764" data-name="Path 60764" d="M17.88,16.446c4.058-3.69,7.88-7.144,7.88-10.112A4.289,4.289,0,0,0,21.426,2,4.75,4.75,0,0,0,17.88,3.642,4.772,4.772,0,0,0,14.334,2,4.289,4.289,0,0,0,10,6.334C10,9.3,13.822,12.756,17.88,16.446ZM14.334,4.627a2.088,2.088,0,0,1,1.55.722l2,2.351,2-2.351a2.088,2.088,0,0,1,1.55-.722,1.672,1.672,0,0,1,1.707,1.707c0,1.471-2.679,4.163-5.253,6.553-2.574-2.39-5.253-5.1-5.253-6.553A1.672,1.672,0,0,1,14.334,4.627Z" transform="translate(1.82 -2)" fill="#f674b4"/>
            <path id="Path_60765" data-name="Path 60765" d="M24.639,17.566H22.013a3.8,3.8,0,0,0-2.456-3.546L11.467,11H1V25.446H8.88V23.555L18.073,26.1,28.579,22.82V21.506A3.935,3.935,0,0,0,24.639,17.566ZM3.627,22.82V13.627H6.253V22.82Zm14.407.538L8.88,20.823v-7.2h2.114l7.643,2.85a1.169,1.169,0,0,1,.749,1.09,28.922,28.922,0,0,1-3.021-.2L13.24,16.332l-.827,2.5,3.126,1.038a6.545,6.545,0,0,0,2.075.341h7.026a1.323,1.323,0,0,1,1.182.735Z" transform="translate(-1 0.82)" fill="#f674b4"/>
          </g>
        </g>
      </g>
    </g>
  </g>
</svg>
